<svg xmlns="http://www.w3.org/2000/svg" width="690" height="360" viewBox="0 0 690 360" fill="none">
    <path d="M1237 389.999C1237 389.999 998 568 913 489C831.021 412.807 1060.91 318.575 970.831 252.158C885.36 189.14 831.693 448.864 736.901 401C620.448 342.199 985.498 192.604 881.5 113.843C776.645 34.4322 715 365.001 650 306C602.135 262.553 747.772 150.647 702 105C674 77.0767 521.607 239 505 197C492.403 165.141 600.095 102.135 603 67.9985C611.272 -29.2094 394.292 280.754 293 203C254.165 173.189 274.957 -54.7434 226 -55C185.649 -55.2115 184.211 122.393 147 138C37.7952 183.804 15 -135 15 -135" stroke="#F1F2F3" stroke-opacity="0.06" stroke-width="30"/>
</svg>
