<svg xmlns="http://www.w3.org/2000/svg" width="40" height="40" viewBox="0 0 40 40" fill="none">
    <g clip-path="url(#clip0_501_180)">
        <path d="M36.0001 13.9112C36.0001 12.7008 35.2545 12.2192 34.3593 11.9528C34.3593 11.9528 28.3105 12.5512 26.1585 12.8016C24.4609 12.9984 23.5705 11.7016 24.9065 9.57356C25.7985 8.15196 26.1585 7.62316 26.1585 6.40156C26.1585 3.75036 23.9561 1.60156 21.2385 1.60156C18.5201 1.60156 16.3177 3.75036 16.3177 6.40156C16.3177 7.60476 16.7353 8.42796 17.5481 9.57676C19.0857 11.752 18.1633 12.9272 16.3177 12.8016C14.2977 12.6648 8.11687 11.9528 8.11687 11.9528C7.04007 11.776 6.60487 12.676 6.47687 13.8608C6.47687 13.8608 6.14327 15.2312 5.62167 22.1672C5.58007 22.3264 5.61767 22.5048 5.63127 22.5768C5.91367 24.0264 7.41527 23.1272 8.96647 22.0264C9.96487 21.3176 11.0113 20.8008 12.2465 20.8008C14.9649 20.8008 17.1673 22.9496 17.1673 25.6008C17.1673 28.252 14.9649 30.4008 12.2465 30.4008C10.9401 30.4008 10.0353 29.9944 8.87927 29.0848C7.72247 28.1752 6.14327 27.1752 5.68167 28.3008C5.60007 28.5008 5.57927 28.9008 5.62087 29.1584C6.10007 34.1504 6.28967 34.388 6.47607 35.2008C6.66247 36.0136 7.21047 36.8008 8.11607 36.8008H33.7441C35.2057 36.8008 36.0001 35.9256 36.0001 34.6008C36.0001 33.9008 36.0001 15.1208 36.0001 13.9112Z" fill="url(#paint0_linear_501_180)" stroke="black" stroke-width="1.6" stroke-miterlimit="10" stroke-linecap="round" stroke-linejoin="round"/>
    </g>
    <defs>
        <linearGradient id="paint0_linear_501_180" x1="3.5004" y1="2" x2="36.0004" y2="38.5" gradientUnits="userSpaceOnUse">
            <stop stop-color="#E74723"/>
            <stop offset="1" stop-color="#FCA04A"/>
        </linearGradient>
        <clipPath id="clip0_501_180">
            <rect width="40" height="40" fill="white"/>
        </clipPath>
    </defs>
</svg>
