<svg width="116" height="60" viewBox="0 0 116 60" fill="none" xmlns="http://www.w3.org/2000/svg">
<path d="M4.08397 59.4011C4.3055 59.907 4.8952 60.1376 5.40111 59.916L13.6454 56.306C14.1513 56.0845 14.3818 55.4948 14.1603 54.9889C13.9388 54.483 13.3491 54.2524 12.8431 54.474L5.51492 57.6829L2.30602 50.3546C2.08449 49.8487 1.49478 49.6182 0.988875 49.8397C0.482967 50.0612 0.252431 50.6509 0.473959 51.1569L4.08397 59.4011ZM115 1C114.946 0.00147754 114.945 0.00149643 114.945 0.00152451C114.944 0.00154597 114.944 0.00158322 114.943 0.00162637C114.941 0.00171274 114.939 0.00183612 114.936 0.00199729C114.931 0.00231969 114.922 0.00279325 114.911 0.00342423C114.889 0.00468624 114.857 0.00657785 114.814 0.00914896C114.729 0.0142911 114.603 0.0221511 114.438 0.0331271C114.108 0.0550787 113.622 0.0894959 112.994 0.139564C111.738 0.239696 109.915 0.40245 107.636 0.653326C103.078 1.155 96.6971 2.00947 89.3954 3.42124C74.8115 6.24102 56.4722 11.2994 41.6651 20.2671L42.7011 21.9778C57.2105 13.1904 75.2796 8.18755 89.7751 5.38488C97.013 3.98543 103.339 3.13836 107.854 2.64132C110.112 2.39283 111.915 2.23192 113.153 2.13324C113.772 2.08389 114.249 2.05011 114.571 2.02872C114.731 2.01802 114.853 2.01042 114.935 2.00552C114.975 2.00307 115.006 2.00129 115.026 2.00014C115.036 1.99957 115.043 1.99915 115.048 1.99888C115.05 1.99875 115.052 1.99865 115.053 1.99859C115.054 1.99856 115.054 1.99854 115.054 1.99853C115.054 1.99852 115.054 1.99852 115 1ZM41.6651 20.2671C26.8949 29.2124 17.5089 38.7663 11.8081 46.106C8.95832 49.775 7.03068 52.889 5.81193 55.0948C5.20256 56.1978 4.77038 57.0737 4.48874 57.6786C4.34792 57.981 4.24472 58.2156 4.17582 58.377C4.14136 58.4577 4.11548 58.5201 4.09776 58.5635C4.0889 58.5852 4.08208 58.6021 4.07724 58.6142C4.07482 58.6203 4.0729 58.6251 4.07147 58.6287C4.07075 58.6305 4.07016 58.632 4.06969 58.6332C4.06945 58.6338 4.06919 58.6345 4.06907 58.6348C4.06884 58.6354 4.06864 58.6359 5 59C5.93136 59.3641 5.93122 59.3645 5.93111 59.3647C5.93111 59.3647 5.93103 59.365 5.93103 59.3649C5.93104 59.3649 5.93117 59.3646 5.93142 59.3639C5.93193 59.3627 5.93291 59.3602 5.93439 59.3565C5.93734 59.3491 5.94224 59.3369 5.94916 59.32C5.963 59.2861 5.98487 59.2334 6.01519 59.1623C6.07583 59.0203 6.17027 58.8053 6.30181 58.5228C6.56489 57.9579 6.97632 57.123 7.56251 56.062C8.73488 53.9401 10.6062 50.9138 13.3876 47.3328C18.9492 40.1724 28.1547 30.7876 42.7011 21.9778L41.6651 20.2671Z" fill="#E36654"/>
</svg>
