<svg width="551" height="398" viewBox="0 0 551 398" fill="none" xmlns="http://www.w3.org/2000/svg">
<rect x="1.4585" y="137.924" width="504" height="72" rx="36" transform="rotate(0.7 1.4585 137.924)" fill="#29292E"/>
<path d="M109.74 179.439C108.403 180.769 106.722 181.422 104.695 181.397C102.669 181.372 101.004 180.679 99.7003 179.316C98.3971 177.94 97.758 176.219 97.7833 174.152C97.8085 172.086 98.4893 170.387 99.8257 169.057C101.162 167.713 102.844 167.053 104.87 167.078C106.897 167.103 108.562 167.803 109.865 169.179C111.168 170.542 111.807 172.257 111.782 174.323C111.757 176.39 111.076 178.095 109.74 179.439ZM101.398 177.857C102.267 178.827 103.374 179.321 104.72 179.337C106.067 179.354 107.179 178.887 108.058 177.938C108.949 176.989 109.404 175.774 109.422 174.294C109.441 172.814 109.015 171.589 108.147 170.619C107.293 169.635 106.192 169.135 104.845 169.118C103.499 169.102 102.38 169.575 101.488 170.537C100.609 171.486 100.161 172.701 100.143 174.181C100.125 175.661 100.543 176.886 101.398 177.857ZM123.106 171.381L122.983 181.461L120.803 181.434L120.824 179.754C120.47 180.31 120.005 180.751 119.428 181.077C118.85 181.403 118.208 181.562 117.502 181.554C116.408 181.54 115.526 181.203 114.854 180.541C114.195 179.866 113.873 178.989 113.886 177.909L113.967 171.27L116.147 171.296L116.072 177.436C116.064 178.076 116.244 178.598 116.613 179.003C116.981 179.394 117.486 179.593 118.126 179.601C118.966 179.611 119.63 179.279 120.118 178.605C120.606 177.931 120.858 176.988 120.873 175.774L120.927 171.355L123.106 171.381ZM132.019 173.61C131.661 173.446 131.228 173.361 130.722 173.355C129.922 173.345 129.25 173.71 128.708 174.45C128.179 175.177 127.906 176.28 127.888 177.76L127.842 181.52L125.662 181.493L125.785 171.414L127.965 171.441L127.941 173.361C128.215 172.764 128.648 172.276 129.239 171.896C129.831 171.503 130.433 171.311 131.046 171.318C131.486 171.324 131.859 171.388 132.164 171.512L132.019 173.61ZM138.595 181.651L138.718 171.572L140.898 171.599L140.878 173.279C141.666 172.061 142.78 171.462 144.22 171.479C145.3 171.492 146.169 171.836 146.827 172.511C147.499 173.173 147.829 174.044 147.816 175.123L147.735 181.763L145.555 181.736L145.63 175.597C145.638 174.957 145.457 174.441 145.089 174.05C144.72 173.646 144.223 173.439 143.596 173.432C142.743 173.421 142.072 173.753 141.584 174.427C141.095 175.101 140.844 176.045 140.829 177.258L140.775 181.678L138.595 181.651ZM159.799 176.49C159.795 176.85 159.778 177.15 159.748 177.389L152.049 177.295C152.131 178.163 152.43 178.853 152.943 179.366C153.47 179.88 154.134 180.141 154.934 180.151C155.601 180.159 156.156 180.019 156.599 179.731C157.043 179.43 157.335 179.007 157.475 178.462L159.528 179.007C159.25 179.977 158.701 180.724 157.881 181.247C157.061 181.77 156.058 182.025 154.871 182.01C153.338 181.991 152.124 181.47 151.23 180.446C150.336 179.408 149.898 178.176 149.915 176.749C149.933 175.309 150.381 174.088 151.26 173.085C152.152 172.083 153.365 171.591 154.898 171.61C156.445 171.629 157.652 172.117 158.521 173.074C159.389 174.031 159.815 175.17 159.799 176.49ZM152.169 175.637L157.489 175.702C157.43 174.994 157.171 174.424 156.709 173.992C156.261 173.56 155.651 173.339 154.877 173.33C154.184 173.321 153.602 173.521 153.13 173.928C152.658 174.323 152.338 174.892 152.169 175.637ZM167.424 181.924C166.942 182.078 166.408 182.151 165.821 182.144C164.821 182.132 164.018 181.842 163.412 181.274C162.819 180.707 162.529 179.87 162.542 178.764L162.604 173.724L160.844 173.703L160.867 171.843L162.627 171.864L162.663 168.864L164.843 168.891L164.807 171.891L167.406 171.923L167.384 173.782L164.784 173.751L164.724 178.67C164.718 179.164 164.833 179.545 165.07 179.815C165.32 180.071 165.658 180.202 166.085 180.207C166.565 180.213 166.973 180.138 167.308 179.982L167.424 181.924ZM171.681 182.056L168.685 171.938L170.905 171.965L172.719 179.028L174.984 172.015L177.004 172.04L179.078 179.106L181.064 172.089L183.284 172.117L180.061 182.158L178.041 182.133L175.947 175.087L173.681 182.08L171.681 182.056ZM189.353 182.431C187.833 182.413 186.592 181.911 185.631 180.926C184.669 179.927 184.198 178.675 184.216 177.168C184.235 175.662 184.737 174.428 185.722 173.466C186.707 172.492 187.96 172.014 189.48 172.032C190.986 172.051 192.22 172.559 193.181 173.558C194.156 174.543 194.634 175.789 194.616 177.295C194.597 178.802 194.089 180.043 193.09 181.017C192.105 181.978 190.859 182.45 189.353 182.431ZM187.207 179.585C187.76 180.205 188.483 180.521 189.376 180.532C190.269 180.543 190.993 180.245 191.547 179.638C192.114 179.032 192.404 178.242 192.416 177.269C192.428 176.295 192.157 175.499 191.605 174.878C191.066 174.258 190.35 173.943 189.456 173.932C188.563 173.921 187.833 174.219 187.265 174.825C186.711 175.432 186.428 176.222 186.416 177.195C186.404 178.168 186.668 178.965 187.207 179.585ZM203.026 174.478C202.668 174.314 202.235 174.228 201.729 174.222C200.929 174.212 200.258 174.577 199.715 175.318C199.186 176.044 198.913 177.148 198.895 178.628L198.849 182.388L196.669 182.361L196.792 172.282L198.972 172.308L198.949 174.228C199.222 173.631 199.655 173.143 200.246 172.764C200.838 172.371 201.44 172.178 202.054 172.186C202.494 172.191 202.866 172.256 203.171 172.38L203.026 174.478ZM211.538 182.543L208.214 177.862L206.94 179.026L206.898 182.486L204.698 182.459L204.871 168.3L207.071 168.327L206.975 176.206L211.181 172.457L214.001 172.492L209.772 176.421L214.197 182.575L211.538 182.543ZM225.336 182.871C223.816 182.853 222.575 182.351 221.614 181.366C220.653 180.367 220.181 179.115 220.2 177.608C220.218 176.101 220.72 174.867 221.705 173.906C222.69 172.931 223.943 172.453 225.463 172.472C226.969 172.49 228.203 172.999 229.165 173.997C230.139 174.983 230.617 176.228 230.599 177.735C230.581 179.242 230.072 180.482 229.073 181.457C228.088 182.418 226.842 182.89 225.336 182.871ZM223.19 180.025C223.743 180.645 224.466 180.96 225.359 180.971C226.252 180.982 226.976 180.684 227.53 180.078C228.098 179.471 228.387 178.681 228.399 177.708C228.411 176.735 228.141 175.938 227.588 175.318C227.049 174.698 226.333 174.383 225.44 174.372C224.546 174.361 223.816 174.659 223.249 175.265C222.694 175.872 222.411 176.662 222.4 177.635C222.388 178.608 222.651 179.405 223.19 180.025ZM233.338 182.809L233.439 174.59L231.779 174.569L231.802 172.709L233.461 172.73L233.472 171.87C233.485 170.763 233.803 169.9 234.424 169.281C235.045 168.662 235.848 168.358 236.835 168.371C237.328 168.377 237.807 168.456 238.272 168.608L238.13 170.447C237.785 170.309 237.439 170.238 237.092 170.234C236.666 170.229 236.317 170.378 236.047 170.681C235.79 170.971 235.658 171.363 235.652 171.856L235.641 172.756L238.101 172.786L238.078 174.646L235.619 174.616L235.518 182.836L233.338 182.809ZM245.002 182.951L245.173 168.952L254.312 169.064L254.288 171.104L247.488 171.021L247.445 174.541L252.925 174.608L252.9 176.647L247.42 176.58L247.367 180.92L254.387 181.006L254.361 183.066L245.002 182.951ZM260.588 183.302C259.081 183.283 257.907 182.796 257.065 181.839C256.224 180.868 255.812 179.603 255.831 178.043C255.85 176.497 256.286 175.249 257.137 174.299C258.002 173.35 259.181 172.884 260.675 172.902C261.315 172.91 261.906 173.051 262.45 173.324C263.006 173.584 263.436 173.929 263.737 174.36L263.802 169.02L265.982 169.047L265.809 183.206L263.629 183.179L263.645 181.899C263.4 182.323 262.996 182.665 262.432 182.924C261.869 183.184 261.254 183.31 260.588 183.302ZM258.782 180.48C259.308 181.086 260.011 181.395 260.891 181.405C261.771 181.416 262.481 181.125 263.022 180.531C263.562 179.925 263.839 179.128 263.851 178.141C263.863 177.141 263.606 176.338 263.08 175.732C262.554 175.125 261.851 174.817 260.971 174.806C260.091 174.795 259.381 175.086 258.841 175.68C258.3 176.273 258.024 177.07 258.011 178.07C257.999 179.057 258.256 179.86 258.782 180.48ZM274.161 183.228C273.679 183.382 273.145 183.455 272.558 183.448C271.558 183.436 270.755 183.146 270.148 182.579C269.555 182.011 269.265 181.174 269.279 180.068L269.341 175.028L267.581 175.007L267.603 173.147L269.363 173.168L269.4 170.169L271.58 170.195L271.543 173.195L274.143 173.227L274.12 175.087L271.52 175.055L271.46 179.974C271.454 180.468 271.57 180.849 271.806 181.119C272.057 181.375 272.395 181.506 272.822 181.511C273.302 181.517 273.709 181.442 274.044 181.286L274.161 183.228ZM285.289 178.023C285.285 178.383 285.268 178.683 285.238 178.923L277.538 178.829C277.621 179.696 277.919 180.387 278.433 180.9C278.96 181.413 279.624 181.674 280.424 181.684C281.09 181.692 281.646 181.552 282.089 181.264C282.533 180.963 282.825 180.54 282.965 179.995L285.018 180.54C284.74 181.51 284.19 182.257 283.371 182.78C282.551 183.303 281.548 183.558 280.361 183.543C278.828 183.525 277.614 183.003 276.72 181.979C275.826 180.941 275.388 179.709 275.405 178.282C275.423 176.843 275.871 175.621 276.75 174.619C277.642 173.616 278.855 173.124 280.388 173.143C281.935 173.162 283.142 173.65 284.011 174.607C284.879 175.565 285.305 176.703 285.289 178.023ZM277.659 177.17L282.978 177.235C282.92 176.527 282.661 175.958 282.199 175.525C281.751 175.093 281.14 174.872 280.367 174.863C279.674 174.854 279.091 175.054 278.62 175.462C278.148 175.856 277.828 176.425 277.659 177.17ZM291.867 183.684C290.361 183.666 289.147 183.171 288.225 182.199C287.304 181.228 286.852 179.969 286.871 178.423C286.89 176.876 287.372 175.628 288.317 174.68C289.262 173.731 290.488 173.266 291.994 173.285C293.234 173.3 294.264 173.619 295.083 174.243C295.902 174.866 296.392 175.699 296.553 176.741L294.428 177.135C294.328 176.56 294.06 176.097 293.625 175.745C293.202 175.38 292.671 175.193 292.031 175.185C291.165 175.175 290.468 175.466 289.94 176.06C289.413 176.653 289.143 177.45 289.131 178.45C289.119 179.45 289.369 180.253 289.882 180.86C290.394 181.466 291.084 181.774 291.951 181.785C292.591 181.793 293.126 181.633 293.557 181.304C293.987 180.976 294.266 180.52 294.393 179.935L296.528 180.381C296.302 181.431 295.772 182.252 294.938 182.841C294.117 183.418 293.094 183.699 291.867 183.684ZM298.562 183.606L298.735 169.447L300.915 169.473L300.844 175.293C301.566 174.035 302.674 173.415 304.167 173.434C305.313 173.448 306.223 173.792 306.894 174.467C307.58 175.129 307.916 176.006 307.902 177.099L307.821 183.719L305.642 183.692L305.716 177.573C305.725 176.906 305.531 176.377 305.136 175.986C304.754 175.594 304.223 175.394 303.543 175.386C302.703 175.376 302.039 175.714 301.55 176.402C301.062 177.089 300.81 178.046 300.795 179.273L300.742 183.632L298.562 183.606ZM324.788 178.506C324.783 178.866 324.766 179.166 324.737 179.405L317.037 179.311C317.12 180.179 317.418 180.869 317.932 181.382C318.459 181.895 319.122 182.157 319.922 182.167C320.589 182.175 321.144 182.035 321.588 181.747C322.031 181.446 322.323 181.023 322.463 180.478L324.517 181.023C324.238 181.993 323.689 182.739 322.869 183.263C322.049 183.786 321.046 184.041 319.86 184.026C318.326 184.007 317.113 183.486 316.219 182.461C315.324 181.424 314.886 180.192 314.904 178.765C314.921 177.325 315.369 176.104 316.248 175.101C317.141 174.099 318.354 173.607 319.887 173.626C321.433 173.644 322.641 174.133 323.509 175.09C324.378 176.047 324.804 177.186 324.788 178.506ZM317.157 177.653L322.477 177.718C322.419 177.01 322.159 176.44 321.698 176.008C321.25 175.576 320.639 175.355 319.866 175.345C319.172 175.337 318.59 175.537 318.118 175.944C317.647 176.338 317.326 176.908 317.157 177.653ZM334.681 184.047L332.261 184.018L330.082 180.651L327.801 183.963L325.382 183.933L328.904 178.836L325.665 173.856L328.045 173.885L330.126 177.051L332.264 173.937L334.644 173.966L331.284 178.865L334.681 184.047ZM336.376 187.708L336.543 173.989L338.723 174.016L338.708 175.296C339.006 174.873 339.437 174.531 340 174.271C340.563 174.012 341.185 173.886 341.865 173.894C343.332 173.912 344.479 174.406 345.307 175.376C346.149 176.347 346.56 177.605 346.541 179.152C346.522 180.698 346.067 181.946 345.175 182.895C344.297 183.845 343.111 184.31 341.618 184.292C341.005 184.284 340.426 184.157 339.882 183.911C339.339 183.664 338.916 183.339 338.614 182.935L338.556 187.735L336.376 187.708ZM339.292 181.463C339.818 182.07 340.521 182.378 341.401 182.389C342.281 182.4 342.991 182.108 343.532 181.515C344.073 180.908 344.349 180.112 344.361 179.125C344.373 178.125 344.117 177.322 343.591 176.715C343.065 176.109 342.362 175.8 341.482 175.79C340.602 175.779 339.892 176.07 339.351 176.664C338.81 177.257 338.534 178.054 338.522 179.054C338.51 180.04 338.767 180.843 339.292 181.463ZM357.995 178.912C357.991 179.272 357.974 179.571 357.944 179.811L350.245 179.717C350.328 180.585 350.626 181.275 351.14 181.788C351.667 182.301 352.33 182.563 353.13 182.572C353.797 182.581 354.352 182.441 354.795 182.153C355.239 181.851 355.531 181.428 355.671 180.883L357.724 181.428C357.446 182.398 356.897 183.145 356.077 183.668C355.257 184.192 354.254 184.446 353.067 184.432C351.534 184.413 350.32 183.891 349.426 182.867C348.532 181.829 348.094 180.597 348.111 179.171C348.129 177.731 348.577 176.51 349.456 175.507C350.348 174.504 351.561 174.013 353.094 174.031C354.641 174.05 355.848 174.538 356.717 175.496C357.585 176.453 358.011 177.592 357.995 178.912ZM350.365 178.058L355.685 178.123C355.627 177.416 355.367 176.846 354.905 176.414C354.457 175.981 353.847 175.761 353.073 175.751C352.38 175.743 351.798 175.942 351.326 176.35C350.854 176.744 350.534 177.314 350.365 178.058ZM365.674 176.345C365.475 176.303 365.248 176.28 364.995 176.277C364.195 176.267 363.544 176.619 363.042 177.333C362.553 178.047 362.3 179.144 362.282 180.624L362.236 184.384L360.056 184.357L360.179 174.278L362.359 174.305L362.336 176.224C362.583 175.614 362.976 175.119 363.514 174.739C364.065 174.359 364.647 174.172 365.261 174.18L365.84 174.227L365.674 176.345ZM373.747 184.444C373.265 184.599 372.731 184.672 372.144 184.665C371.144 184.653 370.341 184.363 369.735 183.795C369.142 183.228 368.852 182.391 368.865 181.285L368.927 176.245L367.167 176.223L367.19 174.364L368.95 174.385L368.986 171.385L371.166 171.412L371.129 174.412L373.729 174.443L373.707 176.303L371.107 176.272L371.047 181.191C371.041 181.684 371.156 182.066 371.393 182.335C371.643 182.592 371.981 182.723 372.408 182.728C372.888 182.734 373.296 182.659 373.631 182.503L373.747 184.444ZM379.436 184.754C378.302 184.74 377.366 184.442 376.626 183.86C375.9 183.264 375.409 182.558 375.152 181.741L376.961 181.003C377.359 182.328 378.19 182.999 379.457 183.014C379.964 183.02 380.378 182.899 380.702 182.649C381.038 182.4 381.208 182.089 381.213 181.715C381.218 181.315 381.028 181 380.644 180.768C380.261 180.537 379.789 180.358 379.231 180.231C378.686 180.091 378.141 179.931 377.597 179.751C377.052 179.558 376.59 179.239 376.208 178.794C375.827 178.349 375.641 177.774 375.649 177.067C375.659 176.267 375.987 175.611 376.633 175.099C377.293 174.587 378.163 174.338 379.243 174.351C380.189 174.362 381.026 174.606 381.754 175.082C382.482 175.544 382.948 176.143 383.152 176.879L381.343 177.617C381.229 177.135 380.967 176.752 380.557 176.467C380.16 176.182 379.722 176.037 379.242 176.031C378.762 176.025 378.381 176.114 378.099 176.297C377.817 176.467 377.674 176.718 377.67 177.052C377.665 177.398 377.855 177.674 378.24 177.879C378.624 178.07 379.089 178.229 379.634 178.356C380.192 178.483 380.75 178.643 381.308 178.836C381.866 179.03 382.335 179.369 382.716 179.854C383.097 180.338 383.282 180.961 383.273 181.721C383.262 182.6 382.9 183.329 382.186 183.907C381.472 184.485 380.556 184.768 379.436 184.754Z" fill="white"/>
<path d="M64.0993 167.691C65.7561 167.712 67.1155 166.385 67.1358 164.728C67.156 163.072 65.8294 161.712 64.1726 161.692C62.5159 161.672 61.1564 162.998 61.1362 164.655C61.116 166.312 62.4426 167.671 64.0993 167.691Z" stroke="white" stroke-width="1.99841" stroke-linecap="round" stroke-linejoin="round"/>
<path d="M53.99 176.568C55.6467 176.589 57.0061 175.262 57.0264 173.605C57.0466 171.949 55.72 170.589 54.0633 170.569C52.4065 170.549 51.0471 171.875 51.0268 173.532C51.0066 175.189 52.3332 176.548 53.99 176.568Z" stroke="white" stroke-width="1.99841" stroke-linecap="round" stroke-linejoin="round"/>
<path d="M68.8547 187.751C70.5114 187.771 71.8709 186.445 71.8911 184.788C71.9114 183.131 70.5847 181.772 68.928 181.751C67.2713 181.731 65.9118 183.058 65.8916 184.715C65.8713 186.371 67.198 187.731 68.8547 187.751Z" stroke="white" stroke-width="1.99841" stroke-linecap="round" stroke-linejoin="round"/>
<path d="M75.0617 170.825C76.7185 170.846 78.0779 169.519 78.0982 167.862C78.1184 166.205 76.7918 164.846 75.135 164.826C73.4783 164.805 72.1188 166.132 72.0986 167.789C72.0784 169.446 73.405 170.805 75.0617 170.825Z" stroke="white" stroke-width="1.99841" stroke-linecap="round" stroke-linejoin="round"/>
<path d="M72.2086 167.003L67.0264 165.515" stroke="white" stroke-width="1.99841" stroke-linecap="round" stroke-linejoin="round"/>
<path d="M61.8865 166.677L56.2761 171.584" stroke="white" stroke-width="1.99841" stroke-linecap="round" stroke-linejoin="round"/>
<path d="M56.4297 175.373L66.4879 182.946" stroke="white" stroke-width="1.99841" stroke-linecap="round" stroke-linejoin="round"/>
<path d="M69.9258 181.939L74.0642 170.638" stroke="white" stroke-width="1.99841" stroke-linecap="round" stroke-linejoin="round"/>
<rect x="1.4585" y="137.924" width="504" height="72" rx="36" transform="rotate(0.7 1.4585 137.924)" stroke="#43434C" stroke-width="1.2"/>
<rect x="8.37158" y="229.712" width="504" height="72" rx="36" transform="rotate(-1.07 8.37158 229.712)" fill="#29292E"/>
<path d="M106.518 269.811L106.257 255.814L111.576 255.714C112.896 255.69 113.955 255.99 114.753 256.615C115.565 257.227 115.981 258.099 116.002 259.232C116.014 259.846 115.851 260.409 115.514 260.922C115.177 261.421 114.77 261.782 114.294 262.005C115.032 262.258 115.627 262.68 116.078 263.272C116.529 263.85 116.763 264.592 116.78 265.499C116.804 266.779 116.389 267.793 115.536 268.543C114.697 269.292 113.544 269.68 112.077 269.707L106.518 269.811ZM108.701 261.349L111.54 261.296C113.047 261.268 113.789 260.647 113.766 259.434C113.743 258.208 112.972 257.609 111.452 257.637L108.632 257.69L108.701 261.349ZM108.82 267.708L111.759 267.653C113.612 267.618 114.525 266.881 114.498 265.442C114.471 263.988 113.531 263.279 111.678 263.314L108.738 263.369L108.82 267.708ZM127.927 259.33L128.116 269.408L125.936 269.449L125.905 267.769C125.568 268.335 125.117 268.79 124.55 269.134C123.983 269.478 123.346 269.657 122.64 269.67C121.546 269.691 120.654 269.381 119.962 268.74C119.283 268.086 118.933 267.219 118.913 266.139L118.789 259.5L120.969 259.46L121.083 265.599C121.095 266.238 121.291 266.755 121.672 267.148C122.053 267.527 122.563 267.711 123.203 267.699C124.043 267.684 124.696 267.331 125.163 266.643C125.631 265.954 125.853 265.003 125.83 263.79L125.748 259.37L127.927 259.33ZM131.654 257.58C131.254 257.587 130.918 257.46 130.647 257.199C130.375 256.924 130.235 256.593 130.228 256.206C130.221 255.806 130.348 255.47 130.609 255.199C130.871 254.914 131.201 254.768 131.601 254.76C132.015 254.753 132.357 254.886 132.629 255.161C132.914 255.423 133.06 255.753 133.068 256.153C133.075 256.54 132.941 256.876 132.666 257.161C132.405 257.432 132.067 257.572 131.654 257.58ZM130.794 269.358L130.606 259.28L132.785 259.239L132.973 269.317L130.794 269.358ZM135.659 269.267L135.394 255.109L137.574 255.069L137.838 269.226L135.659 269.267ZM144.806 269.256C143.299 269.284 142.111 268.833 141.24 267.903C140.369 266.959 139.919 265.707 139.889 264.147C139.86 262.601 140.257 261.34 141.079 260.364C141.914 259.388 143.078 258.887 144.571 258.859C145.211 258.847 145.807 258.969 146.359 259.225C146.923 259.468 147.363 259.8 147.677 260.221L147.578 254.882L149.757 254.841L150.022 268.999L147.842 269.039L147.818 267.76C147.586 268.191 147.193 268.545 146.638 268.822C146.083 269.099 145.472 269.244 144.806 269.256ZM142.914 266.491C143.458 267.081 144.17 267.368 145.05 267.351C145.93 267.335 146.631 267.022 147.153 266.412C147.675 265.789 147.926 264.984 147.908 263.997C147.889 262.998 147.608 262.203 147.063 261.613C146.519 261.023 145.807 260.736 144.927 260.752C144.047 260.769 143.346 261.082 142.824 261.692C142.302 262.302 142.05 263.107 142.069 264.106C142.087 265.093 142.369 265.888 142.914 266.491ZM153.552 257.171C153.152 257.178 152.816 257.051 152.544 256.79C152.273 256.515 152.133 256.184 152.126 255.797C152.118 255.397 152.246 255.061 152.507 254.79C152.769 254.505 153.099 254.359 153.499 254.351C153.912 254.344 154.255 254.477 154.527 254.752C154.812 255.014 154.958 255.344 154.965 255.744C154.973 256.131 154.839 256.467 154.564 256.752C154.303 257.023 153.965 257.163 153.552 257.171ZM152.692 268.949L152.503 258.871L154.683 258.83L154.871 268.908L152.692 268.949ZM157.556 268.858L157.368 258.78L159.548 258.739L159.579 260.419C160.329 259.178 161.424 258.544 162.864 258.517C163.944 258.497 164.823 258.814 165.502 259.468C166.194 260.109 166.551 260.969 166.571 262.049L166.695 268.687L164.515 268.728L164.4 262.589C164.389 261.949 164.192 261.439 163.812 261.06C163.431 260.667 162.927 260.476 162.301 260.488C161.448 260.504 160.787 260.856 160.32 261.545C159.853 262.234 159.631 263.185 159.653 264.398L159.736 268.817L157.556 268.858ZM176.324 258.426L178.484 258.385L178.661 267.904C178.686 269.197 178.252 270.252 177.36 271.069C176.482 271.898 175.317 272.327 173.864 272.354C172.677 272.376 171.659 272.109 170.808 271.551C169.958 270.993 169.444 270.256 169.267 269.339L171.3 268.961C171.362 269.454 171.63 269.849 172.102 270.147C172.588 270.444 173.164 270.587 173.83 270.574C174.644 270.559 175.299 270.327 175.798 269.878C176.296 269.428 176.539 268.857 176.526 268.164L176.503 266.944C176.257 267.335 175.863 267.656 175.321 267.906C174.779 268.143 174.181 268.267 173.528 268.28C172.061 268.307 170.9 267.875 170.043 266.985C169.186 266.08 168.743 264.882 168.715 263.389C168.688 261.896 169.078 260.688 169.888 259.766C170.711 258.831 171.849 258.349 173.302 258.322C173.928 258.31 174.517 258.419 175.068 258.649C175.619 258.879 176.045 259.191 176.346 259.586L176.324 258.426ZM171.717 265.573C172.247 266.123 172.939 266.39 173.792 266.374C174.645 266.358 175.32 266.066 175.816 265.496C176.325 264.927 176.571 264.175 176.554 263.242C176.537 262.309 176.263 261.567 175.732 261.017C175.215 260.467 174.53 260.2 173.677 260.215C172.824 260.231 172.142 260.524 171.633 261.094C171.124 261.663 170.878 262.415 170.895 263.348C170.912 264.281 171.186 265.023 171.717 265.573ZM188.55 268.279L185.242 258.259L187.462 258.218L189.493 265.221L191.541 258.142L193.561 258.104L195.852 265.102L197.62 258.028L199.84 257.987L196.928 268.123L194.909 268.16L192.598 261.182L190.55 268.242L188.55 268.279ZM206.224 268.109C204.704 268.137 203.449 267.674 202.458 266.719C201.466 265.751 200.956 264.514 200.928 263.007C200.9 261.501 201.363 260.252 202.318 259.26C203.273 258.256 204.51 257.739 206.03 257.711C207.536 257.683 208.785 258.153 209.777 259.121C210.782 260.076 211.298 261.306 211.326 262.813C211.354 264.319 210.884 265.575 209.916 266.58C208.961 267.571 207.731 268.081 206.224 268.109ZM203.992 265.33C204.563 265.933 205.295 266.226 206.189 266.209C207.082 266.193 207.796 265.873 208.331 265.249C208.88 264.626 209.145 263.827 209.127 262.854C209.108 261.881 208.814 261.093 208.242 260.49C207.684 259.887 206.959 259.594 206.065 259.611C205.172 259.627 204.451 259.947 203.903 260.571C203.368 261.195 203.109 261.993 203.128 262.966C203.146 263.939 203.434 264.727 203.992 265.33ZM219.645 259.737C219.282 259.584 218.847 259.512 218.341 259.521C217.541 259.536 216.881 259.922 216.362 260.678C215.856 261.421 215.617 262.533 215.644 264.012L215.715 267.772L213.535 267.813L213.347 257.734L215.526 257.694L215.562 259.613C215.818 259.008 216.235 258.507 216.814 258.11C217.393 257.699 217.99 257.488 218.603 257.476C219.043 257.468 219.417 257.521 219.726 257.635L219.645 259.737ZM221.563 267.663L221.299 253.505L223.478 253.464L223.743 267.622L221.563 267.663ZM230.71 267.652C229.204 267.68 228.015 267.229 227.144 266.298C226.273 265.354 225.823 264.102 225.794 262.543C225.765 260.996 226.162 259.735 226.983 258.76C227.819 257.784 228.983 257.282 230.476 257.254C231.116 257.242 231.712 257.365 232.263 257.621C232.828 257.864 233.267 258.196 233.582 258.617L233.482 253.277L235.662 253.237L235.926 267.394L233.747 267.435L233.723 266.155C233.491 266.586 233.097 266.94 232.542 267.217C231.987 267.495 231.377 267.639 230.71 267.652ZM228.818 264.887C229.363 265.477 230.075 265.763 230.955 265.747C231.835 265.73 232.535 265.417 233.057 264.807C233.579 264.184 233.831 263.379 233.813 262.393C233.794 261.393 233.512 260.598 232.968 260.008C232.423 259.418 231.711 259.132 230.831 259.148C229.952 259.164 229.251 259.478 228.729 260.087C228.207 260.697 227.955 261.502 227.974 262.502C227.992 263.488 228.274 264.283 228.818 264.887ZM248.022 267.328C246.516 267.357 245.287 266.899 244.336 265.957C243.385 265.015 242.895 263.77 242.866 262.224C242.837 260.677 243.28 259.416 244.195 258.438C245.111 257.461 246.322 256.958 247.828 256.93C249.068 256.907 250.107 257.194 250.945 257.792C251.783 258.39 252.298 259.207 252.491 260.244L250.379 260.703C250.262 260.132 249.98 259.677 249.533 259.339C249.1 258.987 248.563 258.817 247.923 258.829C247.057 258.845 246.369 259.158 245.861 259.767C245.352 260.377 245.107 261.182 245.126 262.182C245.144 263.181 245.419 263.976 245.95 264.567C246.481 265.157 247.18 265.444 248.047 265.428C248.687 265.416 249.217 265.239 249.637 264.898C250.057 264.557 250.322 264.092 250.431 263.503L252.579 263.883C252.385 264.94 251.881 265.776 251.065 266.391C250.263 266.993 249.249 267.306 248.022 267.328ZM254.711 267.043L254.447 252.886L256.626 252.845L256.891 267.003L254.711 267.043ZM263.224 256.643C264.531 256.618 265.584 256.952 266.383 257.644C267.183 258.322 267.594 259.282 267.617 260.521L267.735 266.8L265.595 266.84L265.566 265.3C265.282 265.813 264.857 266.234 264.29 266.565C263.722 266.882 263.105 267.047 262.439 267.059C261.439 267.078 260.62 266.813 259.983 266.265C259.346 265.717 259.02 265.009 259.003 264.143C258.968 262.223 260.493 261.074 263.58 260.697L265.476 260.461L265.473 260.321C265.462 259.708 265.253 259.225 264.846 258.873C264.453 258.52 263.923 258.35 263.256 258.362C262.643 258.374 262.14 258.557 261.746 258.911C261.353 259.251 261.128 259.722 261.073 260.323L259.106 260C259.248 259.011 259.699 258.209 260.461 257.594C261.223 256.98 262.144 256.663 263.224 256.643ZM262.847 265.371C263.687 265.356 264.342 265.083 264.812 264.554C265.282 264.026 265.516 263.341 265.514 262.501L265.506 262.081L263.591 262.337C261.941 262.554 261.125 263.123 261.142 264.043C261.149 264.443 261.309 264.767 261.62 265.014C261.932 265.262 262.341 265.381 262.847 265.371ZM273.879 266.845C272.746 266.867 271.801 266.598 271.044 266.038C270.299 265.465 269.787 264.775 269.505 263.967L271.29 263.173C271.728 264.485 272.58 265.129 273.847 265.106C274.353 265.096 274.764 264.962 275.079 264.703C275.408 264.443 275.569 264.127 275.562 263.754C275.554 263.354 275.355 263.044 274.964 262.825C274.573 262.605 274.097 262.441 273.535 262.331C272.986 262.208 272.436 262.065 271.887 261.902C271.337 261.725 270.864 261.421 270.469 260.988C270.074 260.555 269.87 259.986 269.857 259.279C269.842 258.479 270.15 257.814 270.78 257.282C271.424 256.75 272.285 256.473 273.365 256.453C274.312 256.436 275.156 256.653 275.898 257.106C276.639 257.546 277.124 258.13 277.351 258.859L275.565 259.653C275.436 259.175 275.163 258.8 274.744 258.528C274.339 258.255 273.896 258.124 273.416 258.133C272.937 258.142 272.558 258.242 272.282 258.434C272.005 258.612 271.87 258.868 271.876 259.202C271.883 259.548 272.081 259.818 272.471 260.011C272.861 260.19 273.331 260.335 273.88 260.444C274.442 260.554 275.005 260.697 275.568 260.873C276.131 261.049 276.611 261.374 277.006 261.846C277.402 262.319 277.607 262.935 277.621 263.695C277.637 264.575 277.298 265.315 276.602 265.914C275.907 266.514 274.999 266.825 273.879 266.845ZM283.216 266.671C282.083 266.692 281.138 266.423 280.38 265.864C279.636 265.291 279.123 264.6 278.841 263.792L280.627 262.999C281.065 264.311 281.917 264.955 283.183 264.931C283.69 264.922 284.101 264.788 284.416 264.528C284.745 264.269 284.905 263.952 284.898 263.579C284.891 263.179 284.692 262.87 284.301 262.65C283.91 262.431 283.434 262.266 282.872 262.157C282.322 262.034 281.773 261.891 281.223 261.727C280.673 261.551 280.201 261.246 279.806 260.814C279.411 260.381 279.207 259.811 279.194 259.105C279.179 258.305 279.487 257.639 280.117 257.107C280.76 256.575 281.622 256.299 282.702 256.279C283.648 256.261 284.492 256.479 285.234 256.932C285.976 257.371 286.46 257.956 286.687 258.685L284.902 259.478C284.773 259.001 284.499 258.626 284.081 258.353C283.676 258.081 283.233 257.949 282.753 257.958C282.273 257.967 281.895 258.068 281.619 258.259C281.342 258.438 281.207 258.694 281.213 259.027C281.219 259.374 281.418 259.643 281.808 259.836C282.198 260.016 282.668 260.16 283.216 260.27C283.778 260.379 284.341 260.522 284.905 260.699C285.468 260.875 285.947 261.199 286.343 261.672C286.739 262.145 286.943 262.761 286.958 263.521C286.974 264.401 286.635 265.14 285.939 265.74C285.243 266.34 284.336 266.65 283.216 266.671ZM294.074 266.308L293.813 252.311L302.951 252.14L302.989 254.18L296.19 254.307L296.256 257.826L301.735 257.724L301.773 259.763L296.294 259.866L296.375 264.205L303.394 264.074L303.432 266.133L294.074 266.308ZM309.663 266.177C308.156 266.205 306.968 265.754 306.097 264.823C305.226 263.88 304.776 262.628 304.747 261.068C304.718 259.522 305.114 258.261 305.936 257.285C306.771 256.309 307.936 255.808 309.429 255.78C310.069 255.768 310.664 255.89 311.216 256.146C311.78 256.389 312.22 256.721 312.535 257.142L312.435 251.803L314.615 251.762L314.879 265.92L312.699 265.96L312.675 264.681C312.443 265.112 312.05 265.466 311.495 265.743C310.94 266.02 310.329 266.165 309.663 266.177ZM307.771 263.412C308.315 264.002 309.027 264.289 309.907 264.272C310.787 264.256 311.488 263.943 312.01 263.333C312.532 262.71 312.784 261.905 312.765 260.918C312.746 259.918 312.465 259.124 311.92 258.534C311.376 257.944 310.664 257.657 309.784 257.673C308.904 257.69 308.203 258.003 307.681 258.613C307.159 259.223 306.908 260.028 306.926 261.027C306.945 262.014 307.226 262.809 307.771 263.412ZM323.227 265.684C322.75 265.853 322.219 265.943 321.632 265.954C320.632 265.972 319.82 265.707 319.197 265.159C318.586 264.61 318.271 263.783 318.25 262.676L318.156 257.637L316.396 257.67L316.362 255.81L318.121 255.777L318.065 252.778L320.245 252.737L320.301 255.737L322.901 255.688L322.935 257.548L320.336 257.596L320.428 262.515C320.437 263.009 320.564 263.386 320.809 263.649C321.067 263.897 321.409 264.017 321.836 264.009C322.316 264 322.721 263.913 323.051 263.747L323.227 265.684ZM334.189 260.138C334.196 260.498 334.188 260.798 334.166 261.039L326.467 261.182C326.577 262.047 326.896 262.728 327.426 263.225C327.968 263.722 328.64 263.962 329.44 263.947C330.106 263.935 330.657 263.778 331.091 263.477C331.525 263.162 331.804 262.73 331.927 262.181L333.996 262.662C333.748 263.64 333.222 264.404 332.419 264.952C331.616 265.5 330.621 265.786 329.434 265.808C327.901 265.837 326.672 265.353 325.747 264.356C324.821 263.347 324.345 262.129 324.318 260.703C324.291 259.263 324.702 258.028 325.549 256.999C326.41 255.969 327.607 255.44 329.14 255.412C330.687 255.383 331.909 255.833 332.806 256.763C333.704 257.693 334.165 258.818 334.189 260.138ZM326.536 259.521L331.856 259.422C331.776 258.716 331.498 258.155 331.024 257.737C330.563 257.319 329.945 257.117 329.172 257.131C328.479 257.144 327.903 257.362 327.444 257.784C326.985 258.192 326.682 258.771 326.536 259.521ZM340.94 265.593C339.433 265.621 338.204 265.164 337.253 264.222C336.302 263.279 335.812 262.035 335.783 260.488C335.754 258.942 336.198 257.68 337.113 256.703C338.028 255.726 339.239 255.223 340.745 255.195C341.985 255.172 343.024 255.459 343.862 256.057C344.7 256.655 345.215 257.472 345.408 258.508L343.296 258.968C343.179 258.397 342.897 257.942 342.451 257.603C342.017 257.251 341.481 257.081 340.841 257.093C339.974 257.11 339.287 257.422 338.778 258.032C338.269 258.642 338.024 259.446 338.043 260.446C338.062 261.446 338.337 262.241 338.868 262.831C339.399 263.421 340.098 263.708 340.964 263.692C341.604 263.68 342.134 263.504 342.554 263.162C342.975 262.821 343.24 262.356 343.349 261.767L345.496 262.147C345.302 263.204 344.798 264.041 343.983 264.656C343.18 265.258 342.166 265.57 340.94 265.593ZM347.629 265.308L347.364 251.15L349.544 251.11L349.653 256.929C350.335 255.649 351.423 254.995 352.917 254.967C354.063 254.946 354.982 255.262 355.675 255.916C356.38 256.556 356.743 257.423 356.763 258.516L356.887 265.135L354.707 265.176L354.593 259.057C354.581 258.39 354.371 257.867 353.964 257.488C353.57 257.109 353.033 256.926 352.353 256.938C351.513 256.954 350.86 257.313 350.393 258.015C349.926 258.717 349.704 259.682 349.727 260.908L349.808 265.267L347.629 265.308ZM367.929 265.089C366.796 265.11 365.851 264.841 365.094 264.282C364.349 263.709 363.837 263.018 363.555 262.21L365.34 261.417C365.778 262.729 366.63 263.373 367.897 263.349C368.403 263.34 368.814 263.205 369.129 262.946C369.458 262.687 369.619 262.37 369.612 261.997C369.604 261.597 369.405 261.287 369.014 261.068C368.623 260.849 368.147 260.684 367.585 260.575C367.036 260.451 366.486 260.308 365.937 260.145C365.386 259.969 364.914 259.664 364.519 259.232C364.124 258.799 363.92 258.229 363.907 257.523C363.892 256.723 364.2 256.057 364.83 255.525C365.474 254.993 366.335 254.717 367.415 254.697C368.362 254.679 369.206 254.897 369.948 255.349C370.689 255.789 371.174 256.373 371.401 257.103L369.615 257.896C369.486 257.418 369.213 257.044 368.794 256.771C368.389 256.499 367.946 256.367 367.466 256.376C366.987 256.385 366.608 256.485 366.332 256.677C366.055 256.856 365.92 257.112 365.926 257.445C365.933 257.792 366.131 258.061 366.521 258.254C366.911 258.433 367.381 258.578 367.93 258.688C368.492 258.797 369.055 258.94 369.618 259.116C370.181 259.292 370.661 259.617 371.056 260.09C371.452 260.562 371.657 261.179 371.671 261.938C371.687 262.818 371.348 263.558 370.652 264.158C369.957 264.758 369.049 265.068 367.929 265.089ZM378.387 264.894C376.867 264.922 375.612 264.459 374.62 263.504C373.629 262.535 373.119 261.298 373.091 259.792C373.063 258.285 373.526 257.036 374.481 256.045C375.436 255.04 376.673 254.524 378.193 254.495C379.699 254.467 380.948 254.937 381.94 255.906C382.945 256.86 383.461 258.091 383.489 259.597C383.517 261.104 383.047 262.359 382.079 263.364C381.124 264.356 379.893 264.865 378.387 264.894ZM376.155 262.115C376.726 262.718 377.458 263.011 378.352 262.994C379.245 262.977 379.959 262.657 380.494 262.034C381.042 261.41 381.308 260.612 381.289 259.638C381.271 258.665 380.977 257.877 380.405 257.275C379.847 256.672 379.122 256.378 378.228 256.395C377.335 256.412 376.614 256.732 376.066 257.356C375.531 257.979 375.272 258.777 375.291 259.75C375.309 260.724 375.597 261.512 376.155 262.115ZM385.698 264.597L385.433 250.439L387.613 250.399L387.877 264.556L385.698 264.597ZM399.513 254.257L399.701 264.335L397.521 264.376L397.49 262.696C397.154 263.263 396.702 263.718 396.135 264.062C395.568 264.406 394.932 264.585 394.225 264.598C393.132 264.618 392.239 264.308 391.547 263.668C390.868 263.014 390.519 262.147 390.498 261.067L390.374 254.428L392.554 254.387L392.669 260.526C392.681 261.166 392.877 261.682 393.258 262.075C393.638 262.455 394.148 262.639 394.788 262.627C395.628 262.611 396.282 262.259 396.749 261.57C397.216 260.881 397.438 259.93 397.416 258.717L397.333 254.298L399.513 254.257ZM408.097 264.099C407.62 264.268 407.088 264.358 406.502 264.368C405.502 264.387 404.69 264.122 404.066 263.574C403.456 263.025 403.14 262.198 403.12 261.091L403.026 256.052L401.266 256.085L401.231 254.225L402.991 254.192L402.935 251.193L405.115 251.152L405.171 254.152L407.77 254.103L407.805 255.963L405.205 256.011L405.297 260.93C405.306 261.424 405.433 261.801 405.678 262.063C405.936 262.312 406.279 262.432 406.705 262.424C407.185 262.415 407.59 262.328 407.921 262.162L408.097 264.099ZM410.897 252.364C410.497 252.372 410.161 252.245 409.889 251.983C409.618 251.708 409.478 251.377 409.471 250.991C409.463 250.591 409.59 250.255 409.852 249.983C410.113 249.698 410.444 249.552 410.844 249.545C411.257 249.537 411.6 249.671 411.872 249.946C412.157 250.207 412.303 250.538 412.31 250.938C412.318 251.324 412.184 251.66 411.909 251.945C411.647 252.217 411.31 252.357 410.897 252.364ZM410.037 264.142L409.848 254.064L412.028 254.023L412.216 264.102L410.037 264.142ZM419.564 264.125C418.044 264.153 416.788 263.69 415.797 262.735C414.805 261.766 414.295 260.529 414.267 259.023C414.239 257.516 414.703 256.267 415.658 255.276C416.612 254.271 417.85 253.755 419.369 253.726C420.876 253.698 422.125 254.168 423.116 255.137C424.121 256.091 424.637 257.322 424.665 258.828C424.694 260.335 424.224 261.59 423.256 262.595C422.301 263.587 421.07 264.096 419.564 264.125ZM417.331 261.346C417.903 261.948 418.635 262.242 419.528 262.225C420.421 262.208 421.135 261.888 421.67 261.265C422.219 260.641 422.484 259.843 422.466 258.869C422.448 257.896 422.153 257.108 421.582 256.505C421.024 255.902 420.298 255.609 419.405 255.626C418.512 255.643 417.791 255.963 417.242 256.587C416.707 257.21 416.449 258.008 416.467 258.981C416.485 259.955 416.773 260.743 417.331 261.346ZM426.874 263.828L426.686 253.75L428.866 253.709L428.897 255.389C429.647 254.148 430.742 253.514 432.182 253.487C433.262 253.467 434.141 253.784 434.82 254.438C435.512 255.078 435.868 255.939 435.889 257.018L436.013 263.657L433.833 263.698L433.718 257.559C433.706 256.919 433.51 256.409 433.13 256.03C432.749 255.637 432.245 255.446 431.619 255.458C430.766 255.474 430.105 255.826 429.638 256.515C429.171 257.204 428.949 258.155 428.971 259.368L429.054 263.787L426.874 263.828ZM442.154 263.703C441.021 263.724 440.075 263.455 439.318 262.895C438.574 262.323 438.061 261.632 437.779 260.824L439.565 260.03C440.003 261.342 440.855 261.987 442.121 261.963C442.628 261.953 443.039 261.819 443.354 261.56C443.683 261.3 443.843 260.984 443.836 260.611C443.829 260.211 443.63 259.901 443.239 259.682C442.848 259.462 442.372 259.298 441.809 259.188C441.26 259.065 440.711 258.922 440.161 258.759C439.611 258.583 439.139 258.278 438.744 257.845C438.349 257.413 438.145 256.843 438.132 256.136C438.117 255.337 438.424 254.671 439.055 254.139C439.698 253.607 440.56 253.331 441.64 253.31C442.586 253.293 443.43 253.51 444.172 253.963C444.914 254.403 445.398 254.987 445.625 255.716L443.84 256.51C443.711 256.032 443.437 255.657 443.019 255.385C442.613 255.113 442.171 254.981 441.691 254.99C441.211 254.999 440.833 255.099 440.556 255.291C440.28 255.469 440.144 255.725 440.151 256.059C440.157 256.405 440.356 256.675 440.746 256.868C441.136 257.047 441.605 257.192 442.154 257.301C442.716 257.411 443.279 257.554 443.843 257.73C444.406 257.906 444.885 258.231 445.281 258.703C445.677 259.176 445.881 259.792 445.896 260.552C445.912 261.432 445.572 262.172 444.877 262.772C444.181 263.371 443.274 263.682 442.154 263.703Z" fill="white"/>
<path d="M73.2571 276.509C79.8834 276.385 85.1547 270.913 85.0309 264.287C84.9072 257.66 79.4352 252.389 72.8089 252.513C66.1827 252.636 60.9114 258.108 61.0351 264.735C61.1589 271.361 66.6309 276.632 73.2571 276.509Z" stroke="white" stroke-opacity="0.85" stroke-width="2" stroke-linecap="round" stroke-linejoin="round"/>
<path d="M63.3638 271.617L64.8095 270.702C64.9528 270.61 65.0702 270.483 65.1506 270.333C65.2309 270.182 65.2715 270.014 65.2685 269.844L65.2092 265.332C65.2077 265.144 65.2608 264.961 65.3619 264.804L67.7639 260.871C67.836 260.754 67.9309 260.654 68.0429 260.575C68.1549 260.497 68.2816 260.442 68.4154 260.414C68.5493 260.385 68.6874 260.385 68.8216 260.411C68.9557 260.438 69.0831 260.492 69.196 260.569L71.6787 262.298C71.8928 262.441 72.1513 262.503 72.4071 262.472L76.3339 261.861C76.5721 261.823 76.788 261.699 76.9399 261.512L79.6547 258.261C79.8156 258.062 79.8957 257.811 79.8791 257.556L79.6849 254.522" stroke="white" stroke-opacity="0.85" stroke-width="2" stroke-linecap="round" stroke-linejoin="round"/>
<path d="M80.5955 273.833L79.2205 272.509C79.0933 272.386 78.9367 272.299 78.7657 272.255L76.0656 271.605C75.8284 271.545 75.6215 271.4 75.4841 271.197C75.3467 270.995 75.2883 270.749 75.32 270.506L75.5696 268.476C75.595 268.305 75.6631 268.144 75.7676 268.006C75.8721 267.869 76.0097 267.76 76.1675 267.69L79.9372 266.032C80.1123 265.955 80.3058 265.93 80.4947 265.959C80.6836 265.989 80.86 266.072 81.003 266.199L84.1682 268.991" stroke="white" stroke-opacity="0.85" stroke-width="2" stroke-linecap="round" stroke-linejoin="round"/>
<rect x="8.37158" y="229.712" width="504" height="72" rx="36" transform="rotate(-1.07 8.37158 229.712)" stroke="#43434C" stroke-width="1.2"/>
<g clip-path="url(#clip0_2935_2843)">
<rect x="28.1987" y="318.382" width="504" height="72" rx="36" transform="rotate(-3.71 28.1987 318.382)" fill="#29292E"/>
<path d="M128.092 353.993L127.186 340.022L129.521 339.871L130.427 353.841L128.092 353.993ZM133.179 353.663L132.527 343.604L134.702 343.463L134.812 345.16C135.344 343.882 136.289 343.2 137.646 343.112C138.457 343.059 139.147 343.188 139.715 343.499C140.296 343.809 140.714 344.276 140.968 344.901C141.21 344.297 141.611 343.79 142.173 343.38C142.734 342.969 143.394 342.739 144.152 342.69C145.23 342.62 146.109 342.884 146.789 343.481C147.481 344.064 147.861 344.868 147.927 345.892L148.367 352.678L146.192 352.819L145.787 346.572C145.745 345.934 145.533 345.44 145.149 345.091C144.779 344.727 144.28 344.566 143.655 344.606C142.923 344.654 142.364 344.991 141.977 345.617C141.602 346.229 141.447 347.027 141.511 348.012L141.841 353.101L139.685 353.241L139.28 346.994C139.239 346.356 139.033 345.861 138.663 345.511C138.292 345.148 137.794 344.986 137.169 345.027C136.437 345.074 135.877 345.411 135.49 346.038C135.117 346.663 134.962 347.461 135.025 348.433L135.355 353.522L133.179 353.663ZM151.251 356.139L150.363 342.448L152.538 342.307L152.621 343.584C152.886 343.139 153.29 342.766 153.831 342.463C154.373 342.161 154.983 341.988 155.661 341.944C157.125 341.849 158.307 342.253 159.207 343.157C160.121 344.06 160.628 345.283 160.728 346.826C160.828 348.37 160.47 349.649 159.654 350.664C158.851 351.678 157.705 352.233 156.215 352.33C155.602 352.369 155.016 352.287 154.455 352.083C153.894 351.879 153.447 351.587 153.115 351.208L153.426 355.998L151.251 356.139ZM153.678 349.688C154.249 350.253 154.974 350.506 155.852 350.449C156.73 350.392 157.416 350.047 157.909 349.414C158.402 348.767 158.616 347.952 158.552 346.967C158.488 345.969 158.17 345.188 157.599 344.624C157.028 344.06 156.303 343.806 155.425 343.863C154.547 343.92 153.861 344.265 153.368 344.898C152.874 345.532 152.66 346.347 152.725 347.345C152.789 348.33 153.106 349.111 153.678 349.688ZM168.892 343.371C168.522 343.234 168.084 343.182 167.579 343.215C166.781 343.267 166.139 343.683 165.656 344.462C165.184 345.228 164.996 346.349 165.092 347.826L165.335 351.578L163.16 351.719L162.508 341.66L164.683 341.519L164.807 343.435C165.035 342.819 165.428 342.299 165.989 341.875C166.548 341.438 167.134 341.2 167.746 341.16C168.185 341.132 168.562 341.167 168.876 341.267L168.892 343.371ZM175.444 351.083C173.927 351.181 172.651 350.776 171.617 349.868C170.582 348.946 170.015 347.734 169.918 346.23C169.82 344.727 170.226 343.458 171.134 342.424C172.042 341.376 173.254 340.803 174.771 340.705C176.274 340.607 177.543 341.019 178.579 341.941C179.626 342.848 180.199 344.054 180.296 345.557C180.394 347.061 179.982 348.337 179.061 349.385C178.153 350.419 176.947 350.985 175.444 351.083ZM173.086 348.41C173.684 348.986 174.429 349.245 175.321 349.187C176.212 349.129 176.911 348.776 177.417 348.129C177.936 347.481 178.164 346.671 178.101 345.7C178.038 344.728 177.707 343.955 177.109 343.379C176.523 342.802 175.785 342.543 174.893 342.601C174.002 342.658 173.297 343.012 172.778 343.66C172.272 344.307 172.05 345.117 172.113 346.088C172.176 347.059 172.5 347.833 173.086 348.41ZM184.938 350.307L180.613 340.486L182.828 340.342L185.811 347.705L187.818 340.019L190.053 339.874L187.033 350.171L184.938 350.307ZM200.865 343.843C200.889 344.202 200.895 344.502 200.884 344.743L193.2 345.242C193.349 346.1 193.699 346.766 194.251 347.238C194.816 347.709 195.498 347.919 196.296 347.867C196.961 347.824 197.504 347.642 197.924 347.32C198.343 346.986 198.602 346.542 198.7 345.987L200.789 346.373C200.586 347.362 200.096 348.148 199.319 348.733C198.541 349.318 197.561 349.649 196.377 349.726C194.846 349.825 193.596 349.398 192.626 348.446C191.655 347.48 191.123 346.285 191.031 344.861C190.937 343.424 191.29 342.172 192.09 341.105C192.902 340.037 194.074 339.453 195.604 339.354C197.147 339.254 198.389 339.648 199.328 340.535C200.267 341.423 200.78 342.525 200.865 343.843ZM193.192 343.579L198.501 343.234C198.389 342.534 198.086 341.985 197.593 341.59C197.113 341.193 196.487 341.02 195.715 341.07C195.023 341.115 194.458 341.359 194.019 341.801C193.579 342.231 193.304 342.823 193.192 343.579ZM208.233 348.796L207.317 334.666L209.492 334.525L210.409 348.655L208.233 348.796ZM222.058 342.469C222.082 342.828 222.088 343.128 222.077 343.369L214.393 343.867C214.542 344.726 214.892 345.392 215.444 345.864C216.009 346.335 216.691 346.544 217.489 346.493C218.154 346.449 218.697 346.267 219.117 345.946C219.536 345.612 219.795 345.167 219.893 344.613L221.982 344.999C221.779 345.987 221.289 346.774 220.512 347.359C219.734 347.944 218.754 348.275 217.57 348.351C216.039 348.451 214.789 348.024 213.819 347.071C212.848 346.105 212.316 344.911 212.224 343.487C212.13 342.05 212.483 340.798 213.283 339.731C214.095 338.662 215.267 338.079 216.797 337.98C218.34 337.879 219.582 338.273 220.521 339.161C221.46 340.049 221.973 341.151 222.058 342.469ZM214.385 342.204L219.694 341.86C219.582 341.159 219.279 340.611 218.786 340.216C218.306 339.819 217.68 339.646 216.908 339.696C216.216 339.741 215.651 339.985 215.212 340.427C214.772 340.857 214.497 341.449 214.385 342.204ZM227.643 337.276C228.947 337.192 230.014 337.477 230.845 338.131C231.675 338.772 232.13 339.711 232.21 340.948L232.616 347.215L230.481 347.354L230.381 345.817C230.121 346.342 229.715 346.782 229.164 347.139C228.612 347.482 228.003 347.675 227.338 347.718C226.34 347.783 225.51 347.556 224.848 347.038C224.187 346.519 223.828 345.828 223.772 344.963C223.648 343.047 225.119 341.829 228.185 341.31L230.068 340.987L230.059 340.847C230.019 340.235 229.788 339.763 229.366 339.429C228.956 339.095 228.419 338.95 227.754 338.993C227.142 339.032 226.647 339.238 226.271 339.61C225.893 339.968 225.691 340.449 225.663 341.052L223.684 340.82C223.779 339.825 224.194 339.003 224.927 338.354C225.66 337.706 226.565 337.346 227.643 337.276ZM227.668 346.013C228.506 345.959 229.148 345.656 229.593 345.106C230.039 344.557 230.241 343.862 230.2 343.023L230.173 342.604L228.271 342.948C226.633 343.241 225.844 343.846 225.904 344.765C225.929 345.164 226.104 345.48 226.426 345.713C226.748 345.946 227.162 346.046 227.668 346.013ZM241.005 338.695C240.635 338.558 240.198 338.506 239.692 338.539C238.894 338.591 238.253 339.007 237.769 339.786C237.297 340.552 237.11 341.673 237.205 343.15L237.449 346.902L235.273 347.043L234.621 336.984L236.796 336.843L236.921 338.759C237.148 338.143 237.542 337.623 238.102 337.199C238.662 336.762 239.248 336.524 239.86 336.484C240.299 336.456 240.675 336.491 240.989 336.591L241.005 338.695ZM243.286 346.523L242.634 336.465L244.809 336.324L244.918 338C245.61 336.726 246.675 336.042 248.112 335.949C249.19 335.879 250.083 336.155 250.791 336.777C251.512 337.385 251.907 338.228 251.977 339.306L252.407 345.932L250.232 346.073L249.834 339.946C249.793 339.307 249.573 338.807 249.176 338.445C248.777 338.07 248.265 337.903 247.64 337.944C246.789 337.999 246.145 338.381 245.71 339.091C245.275 339.801 245.097 340.761 245.176 341.972L245.462 346.382L243.286 346.523ZM255.377 333.955C254.978 333.981 254.637 333.869 254.354 333.62C254.069 333.358 253.915 333.034 253.89 332.648C253.864 332.249 253.975 331.908 254.224 331.624C254.472 331.328 254.796 331.167 255.195 331.141C255.607 331.114 255.956 331.232 256.24 331.494C256.537 331.742 256.698 332.065 256.724 332.464C256.749 332.85 256.631 333.192 256.369 333.49C256.121 333.773 255.79 333.928 255.377 333.955ZM255.061 345.76L254.408 335.701L256.584 335.56L257.236 345.619L255.061 345.76ZM259.916 345.445L259.264 335.386L261.439 335.245L261.548 336.922C262.24 335.648 263.305 334.964 264.742 334.871C265.82 334.801 266.713 335.077 267.421 335.699C268.142 336.307 268.537 337.15 268.607 338.228L269.037 344.854L266.861 344.995L266.464 338.868C266.423 338.229 266.203 337.729 265.806 337.367C265.407 336.992 264.895 336.825 264.27 336.865C263.418 336.921 262.775 337.303 262.34 338.013C261.905 338.722 261.727 339.683 261.805 340.893L262.091 345.304L259.916 345.445ZM278.183 334.159L280.339 334.02L280.955 343.52C281.038 344.81 280.654 345.884 279.801 346.741C278.962 347.611 277.817 348.092 276.367 348.186C275.183 348.263 274.153 348.043 273.278 347.525C272.402 347.007 271.855 346.294 271.636 345.387L273.65 344.915C273.735 345.404 274.02 345.787 274.506 346.062C275.005 346.337 275.587 346.453 276.252 346.41C277.064 346.357 277.708 346.095 278.185 345.623C278.662 345.152 278.878 344.57 278.833 343.878L278.755 342.66C278.527 343.063 278.148 343.401 277.618 343.676C277.087 343.938 276.496 344.089 275.844 344.132C274.38 344.227 273.2 343.849 272.303 342.998C271.405 342.135 270.908 340.958 270.811 339.468C270.715 337.977 271.049 336.753 271.816 335.795C272.594 334.822 273.709 334.289 275.159 334.195C275.785 334.155 276.378 334.236 276.939 334.441C277.5 334.645 277.94 334.937 278.258 335.317L278.183 334.159ZM273.91 341.511C274.465 342.037 275.169 342.272 276.02 342.216C276.872 342.161 277.532 341.838 278.001 341.246C278.484 340.654 278.695 339.892 278.635 338.96C278.574 338.029 278.267 337.301 277.712 336.775C277.17 336.249 276.473 336.014 275.621 336.069C274.77 336.124 274.103 336.448 273.62 337.041C273.137 337.633 272.926 338.395 272.987 339.327C273.047 340.258 273.355 340.986 273.91 341.511ZM293.195 343.448C291.679 343.546 290.403 343.141 289.369 342.233C288.334 341.311 287.767 340.098 287.67 338.595C287.572 337.091 287.978 335.823 288.886 334.788C289.794 333.741 291.006 333.168 292.522 333.069C294.026 332.972 295.295 333.384 296.33 334.306C297.378 335.213 297.951 336.418 298.048 337.922C298.146 339.425 297.734 340.701 296.813 341.75C295.905 342.784 294.699 343.35 293.195 343.448ZM290.838 340.775C291.436 341.35 292.181 341.609 293.072 341.552C293.964 341.494 294.663 341.141 295.168 340.494C295.688 339.845 295.916 339.036 295.853 338.064C295.79 337.093 295.459 336.319 294.86 335.744C294.275 335.167 293.537 334.908 292.645 334.965C291.754 335.023 291.049 335.376 290.53 336.024C290.024 336.672 289.802 337.481 289.865 338.453C289.928 339.424 290.252 340.198 290.838 340.775ZM308.953 332.164L309.606 342.223L307.43 342.364L307.321 340.688C307.012 341.269 306.582 341.744 306.031 342.114C305.48 342.484 304.853 342.692 304.147 342.737C303.056 342.808 302.15 342.54 301.43 341.932C300.721 341.309 300.332 340.459 300.262 339.382L299.833 332.756L302.008 332.615L302.405 338.742C302.447 339.38 302.667 339.887 303.065 340.262C303.463 340.624 303.981 340.784 304.619 340.743C305.458 340.688 306.094 340.306 306.529 339.597C306.964 338.887 307.142 337.927 307.064 336.716L306.778 332.305L308.953 332.164ZM317.982 341.6C317.513 341.791 316.986 341.905 316.4 341.943C315.403 342.008 314.579 341.78 313.931 341.261C313.296 340.741 312.943 339.929 312.871 338.825L312.545 333.795L310.789 333.909L310.668 332.053L312.425 331.939L312.231 328.945L314.406 328.804L314.6 331.798L317.195 331.63L317.315 333.486L314.721 333.654L315.039 338.564C315.071 339.056 315.215 339.428 315.472 339.678C315.741 339.915 316.089 340.019 316.514 339.991C316.993 339.96 317.394 339.854 317.716 339.673L317.982 341.6ZM324.228 341.435C322.724 341.533 321.476 341.133 320.482 340.235C319.489 339.338 318.942 338.117 318.842 336.574C318.742 335.03 319.126 333.749 319.996 332.731C320.865 331.713 322.051 331.155 323.555 331.057C324.792 330.977 325.843 331.216 326.708 331.775C327.572 332.333 328.125 333.126 328.365 334.152L326.277 334.709C326.133 334.143 325.831 333.702 325.369 333.385C324.92 333.053 324.376 332.908 323.738 332.949C322.873 333.005 322.2 333.35 321.72 333.982C321.24 334.614 321.032 335.43 321.097 336.427C321.162 337.425 321.473 338.207 322.031 338.772C322.589 339.337 323.3 339.592 324.165 339.535C324.803 339.494 325.325 339.293 325.729 338.933C326.133 338.573 326.376 338.096 326.458 337.503L328.621 337.783C328.476 338.848 328.011 339.707 327.224 340.359C326.451 340.997 325.452 341.356 324.228 341.435ZM335.557 340.701C334.04 340.799 332.765 340.394 331.731 339.486C330.695 338.564 330.129 337.352 330.032 335.848C329.934 334.345 330.34 333.076 331.248 332.041C332.155 330.994 333.367 330.421 334.884 330.322C336.388 330.225 337.657 330.637 338.692 331.559C339.74 332.466 340.312 333.672 340.41 335.175C340.507 336.679 340.096 337.955 339.175 339.003C338.267 340.037 337.061 340.603 335.557 340.701ZM333.199 338.028C333.798 338.603 334.543 338.862 335.434 338.805C336.326 338.747 337.024 338.394 337.53 337.747C338.049 337.099 338.277 336.289 338.214 335.317C338.152 334.346 337.821 333.573 337.222 332.997C336.637 332.42 335.899 332.161 335.007 332.219C334.116 332.276 333.41 332.629 332.891 333.278C332.386 333.925 332.164 334.734 332.227 335.706C332.29 336.677 332.614 337.451 333.199 338.028ZM342.847 340.068L342.194 330.009L344.37 329.868L344.48 331.564C345.012 330.287 345.956 329.605 347.313 329.517C348.125 329.464 348.815 329.593 349.383 329.903C349.964 330.213 350.382 330.68 350.636 331.305C350.877 330.702 351.279 330.195 351.84 329.784C352.401 329.374 353.061 329.144 353.82 329.095C354.897 329.025 355.776 329.288 356.456 329.886C357.149 330.469 357.528 331.273 357.595 332.297L358.035 339.083L355.859 339.224L355.454 332.977C355.413 332.338 355.2 331.844 354.817 331.495C354.446 331.132 353.948 330.97 353.322 331.011C352.591 331.058 352.031 331.395 351.644 332.022C351.27 332.634 351.115 333.432 351.178 334.417L351.508 339.506L349.353 339.646L348.948 333.399C348.906 332.76 348.701 332.266 348.331 331.916C347.96 331.552 347.461 331.391 346.836 331.431C346.104 331.479 345.545 331.816 345.158 332.442C344.784 333.068 344.629 333.866 344.692 334.837L345.022 339.927L342.847 340.068ZM369.652 332.898C369.676 333.257 369.682 333.558 369.671 333.799L361.987 334.297C362.136 335.156 362.486 335.821 363.038 336.293C363.603 336.764 364.285 336.974 365.083 336.922C365.748 336.879 366.291 336.697 366.711 336.376C367.13 336.041 367.389 335.597 367.486 335.043L369.576 335.428C369.373 336.417 368.883 337.204 368.105 337.789C367.328 338.373 366.348 338.704 365.164 338.781C363.633 338.88 362.383 338.454 361.413 337.501C360.442 336.535 359.91 335.34 359.818 333.917C359.724 332.48 360.077 331.228 360.877 330.16C361.689 329.092 362.861 328.508 364.391 328.409C365.934 328.309 367.176 328.703 368.115 329.591C369.054 330.478 369.567 331.581 369.652 332.898ZM361.979 332.634L367.288 332.29C367.176 331.589 366.873 331.041 366.38 330.645C365.9 330.249 365.274 330.076 364.502 330.126C363.81 330.17 363.245 330.414 362.806 330.857C362.366 331.286 362.09 331.879 361.979 332.634ZM375.511 338.11C374.38 338.183 373.424 337.958 372.642 337.434C371.872 336.896 371.328 336.23 371.009 335.436L372.756 334.561C373.254 335.851 374.135 336.456 375.399 336.374C375.904 336.341 376.309 336.188 376.612 335.914C376.928 335.64 377.074 335.316 377.05 334.944C377.024 334.545 376.811 334.244 376.41 334.043C376.01 333.842 375.526 333.7 374.959 333.616C374.405 333.519 373.85 333.401 373.293 333.263C372.735 333.112 372.249 332.83 371.835 332.416C371.421 332.002 371.191 331.442 371.145 330.737C371.093 329.939 371.37 329.259 371.975 328.699C372.593 328.138 373.441 327.822 374.519 327.752C375.464 327.691 376.317 327.87 377.079 328.288C377.84 328.693 378.351 329.254 378.611 329.972L376.864 330.847C376.713 330.376 376.423 330.014 375.992 329.761C375.575 329.508 375.127 329.397 374.648 329.428C374.169 329.459 373.796 329.576 373.528 329.781C373.26 329.972 373.137 330.234 373.158 330.566C373.181 330.912 373.391 331.173 373.79 331.347C374.188 331.508 374.664 331.631 375.217 331.716C375.784 331.799 376.352 331.916 376.923 332.066C377.494 332.216 377.988 332.518 378.405 332.972C378.822 333.426 379.055 334.032 379.104 334.791C379.161 335.669 378.856 336.423 378.189 337.055C377.521 337.686 376.629 338.038 375.511 338.11ZM387.179 337.193L386.648 328.99L384.991 329.098L384.871 327.242L386.527 327.134L386.472 326.276C386.4 325.172 386.65 324.287 387.221 323.622C387.793 322.957 388.571 322.592 389.555 322.529C390.048 322.497 390.532 322.539 391.007 322.655L391.006 324.499C390.651 324.388 390.301 324.344 389.955 324.367C389.529 324.394 389.193 324.57 388.947 324.893C388.713 325.202 388.612 325.603 388.644 326.095L388.703 326.993L391.157 326.834L391.278 328.69L388.823 328.849L389.355 337.052L387.179 337.193ZM397.862 336.661C396.346 336.759 395.07 336.354 394.036 335.446C393.001 334.524 392.434 333.312 392.337 331.808C392.239 330.305 392.645 329.036 393.553 328.001C394.46 326.954 395.673 326.381 397.189 326.282C398.693 326.185 399.962 326.597 400.997 327.519C402.045 328.426 402.617 329.632 402.715 331.135C402.812 332.639 402.401 333.915 401.48 334.963C400.572 335.997 399.366 336.563 397.862 336.661ZM395.504 333.988C396.103 334.563 396.848 334.822 397.739 334.765C398.631 334.707 399.33 334.354 399.835 333.707C400.354 333.059 400.583 332.249 400.52 331.277C400.457 330.306 400.126 329.533 399.527 328.957C398.942 328.38 398.204 328.121 397.312 328.179C396.421 328.236 395.716 328.589 395.196 329.238C394.691 329.885 394.469 330.694 394.532 331.666C394.595 332.637 394.919 333.411 395.504 333.988ZM410.883 327.679C410.514 327.543 410.076 327.491 409.571 327.524C408.772 327.576 408.131 327.991 407.647 328.771C407.176 329.536 406.988 330.658 407.084 332.135L407.327 335.887L405.152 336.028L404.499 325.969L406.675 325.828L406.799 327.744C407.026 327.128 407.42 326.608 407.981 326.184C408.54 325.747 409.126 325.508 409.738 325.469C410.177 325.44 410.554 325.476 410.867 325.576L410.883 327.679ZM427.029 329.178C427.052 329.537 427.058 329.837 427.047 330.078L419.363 330.577C419.512 331.436 419.863 332.101 420.414 332.573C420.979 333.044 421.661 333.254 422.459 333.202C423.125 333.159 423.667 332.977 424.087 332.655C424.507 332.321 424.765 331.877 424.863 331.322L426.952 331.708C426.749 332.697 426.259 333.483 425.482 334.068C424.705 334.653 423.724 334.984 422.54 335.061C421.01 335.16 419.76 334.733 418.789 333.781C417.818 332.815 417.286 331.62 417.194 330.196C417.101 328.759 417.454 327.507 418.253 326.44C419.066 325.372 420.237 324.788 421.767 324.689C423.311 324.589 424.552 324.983 425.491 325.87C426.431 326.758 426.943 327.861 427.029 329.178ZM419.355 328.914L424.664 328.569C424.552 327.869 424.249 327.32 423.756 326.925C423.276 326.528 422.65 326.355 421.878 326.405C421.187 326.45 420.621 326.694 420.182 327.136C419.742 327.566 419.467 328.158 419.355 328.914ZM433.783 334.331C432.28 334.429 431.072 334.033 430.159 333.144C429.245 332.241 428.738 331.011 428.637 329.454C428.537 327.911 428.875 326.633 429.651 325.621C430.441 324.607 431.58 324.052 433.071 323.956C433.709 323.914 434.31 324.009 434.873 324.24C435.448 324.456 435.902 324.768 436.236 325.174L435.89 319.845L438.066 319.704L438.982 333.834L436.807 333.975L436.724 332.698C436.512 333.139 436.135 333.511 435.594 333.813C435.052 334.116 434.449 334.288 433.783 334.331ZM431.766 331.656C432.337 332.221 433.062 332.474 433.94 332.417C434.818 332.36 435.504 332.015 435.997 331.382C436.49 330.735 436.704 329.92 436.64 328.935C436.576 327.937 436.258 327.156 435.687 326.592C435.116 326.028 434.391 325.774 433.513 325.831C432.635 325.888 431.949 326.233 431.456 326.866C430.962 327.5 430.748 328.315 430.813 329.313C430.876 330.298 431.194 331.079 431.766 331.656ZM450.116 323.011L450.768 333.07L448.592 333.211L448.484 331.534C448.174 332.116 447.744 332.591 447.193 332.961C446.643 333.331 446.015 333.538 445.31 333.584C444.219 333.655 443.313 333.386 442.592 332.778C441.883 332.156 441.494 331.306 441.424 330.228L440.995 323.602L443.17 323.461L443.567 329.588C443.609 330.227 443.829 330.734 444.227 331.109C444.625 331.471 445.143 331.631 445.781 331.589C446.62 331.535 447.256 331.153 447.691 330.443C448.126 329.734 448.305 328.774 448.226 327.563L447.94 323.152L450.116 323.011ZM457.962 332.764C456.458 332.861 455.21 332.461 454.216 331.564C453.223 330.666 452.676 329.445 452.576 327.902C452.476 326.359 452.86 325.078 453.73 324.059C454.599 323.041 455.785 322.483 457.289 322.386C458.526 322.305 459.577 322.544 460.442 323.103C461.306 323.662 461.859 324.454 462.099 325.481L460.011 326.037C459.867 325.472 459.565 325.03 459.103 324.713C458.654 324.381 458.11 324.236 457.472 324.278C456.607 324.334 455.934 324.678 455.454 325.31C454.974 325.943 454.766 326.758 454.831 327.756C454.896 328.754 455.207 329.535 455.765 330.1C456.323 330.665 457.034 330.92 457.899 330.864C458.537 330.822 459.059 330.622 459.463 330.261C459.867 329.901 460.11 329.424 460.192 328.831L462.355 329.112C462.21 330.177 461.744 331.035 460.958 331.688C460.185 332.326 459.186 332.684 457.962 332.764ZM467.742 321.708C469.045 321.623 470.113 321.908 470.944 322.562C471.773 323.203 472.228 324.142 472.309 325.38L472.715 331.647L470.58 331.785L470.48 330.248C470.22 330.773 469.814 331.214 469.263 331.57C468.711 331.913 468.102 332.106 467.437 332.149C466.439 332.214 465.609 331.987 464.947 331.469C464.286 330.951 463.927 330.259 463.871 329.394C463.747 327.478 465.218 326.261 468.284 325.741L470.167 325.419L470.158 325.279C470.118 324.667 469.887 324.194 469.464 323.861C469.055 323.527 468.518 323.381 467.853 323.424C467.241 323.464 466.746 323.67 466.37 324.041C465.992 324.4 465.789 324.881 465.762 325.484L463.783 325.251C463.878 324.256 464.293 323.434 465.026 322.786C465.758 322.137 466.664 321.778 467.742 321.708ZM467.767 330.444C468.605 330.39 469.247 330.088 469.692 329.538C470.138 328.988 470.34 328.293 470.299 327.454L470.272 327.035L468.37 327.379C466.732 327.672 465.943 328.278 466.002 329.196C466.028 329.595 466.202 329.911 466.525 330.144C466.847 330.377 467.261 330.477 467.767 330.444ZM480.939 331.033C480.47 331.224 479.943 331.338 479.357 331.376C478.36 331.441 477.536 331.214 476.888 330.695C476.253 330.175 475.9 329.363 475.828 328.258L475.502 323.229L473.746 323.343L473.625 321.487L475.382 321.373L475.188 318.379L477.363 318.238L477.557 321.232L480.152 321.063L480.272 322.919L477.678 323.088L477.996 327.997C478.028 328.49 478.172 328.861 478.429 329.112C478.698 329.348 479.046 329.453 479.471 329.425C479.95 329.394 480.351 329.288 480.673 329.106L480.939 331.033ZM483.195 319.182C482.796 319.208 482.455 319.097 482.171 318.848C481.887 318.586 481.732 318.262 481.707 317.876C481.682 317.477 481.793 317.136 482.042 316.852C482.29 316.556 482.613 316.394 483.013 316.368C483.425 316.342 483.773 316.459 484.058 316.722C484.354 316.97 484.516 317.293 484.541 317.692C484.566 318.078 484.448 318.42 484.187 318.717C483.938 319.001 483.608 319.156 483.195 319.182ZM482.878 330.988L482.226 320.929L484.401 320.788L485.054 330.847L482.878 330.988ZM492.394 330.531C490.877 330.629 489.602 330.224 488.568 329.316C487.533 328.394 486.966 327.182 486.869 325.678C486.771 324.175 487.177 322.906 488.085 321.872C488.992 320.824 490.205 320.251 491.721 320.153C493.225 320.055 494.494 320.467 495.529 321.389C496.577 322.296 497.149 323.502 497.247 325.005C497.344 326.509 496.933 327.785 496.012 328.833C495.104 329.868 493.898 330.434 492.394 330.531ZM490.036 327.858C490.635 328.434 491.38 328.693 492.271 328.635C493.163 328.577 493.861 328.225 494.367 327.577C494.886 326.929 495.115 326.119 495.052 325.148C494.989 324.177 494.658 323.403 494.059 322.827C493.474 322.25 492.736 321.991 491.844 322.049C490.953 322.107 490.248 322.46 489.728 323.108C489.223 323.755 489.001 324.565 489.064 325.536C489.127 326.507 489.451 327.281 490.036 327.858ZM499.684 329.898L499.031 319.839L501.207 319.698L501.315 321.375C502.008 320.1 503.072 319.417 504.509 319.324C505.587 319.254 506.48 319.53 507.189 320.152C507.91 320.76 508.305 321.603 508.375 322.681L508.804 329.307L506.629 329.448L506.232 323.321C506.19 322.682 505.971 322.182 505.573 321.82C505.175 321.445 504.663 321.278 504.038 321.318C503.186 321.374 502.543 321.756 502.108 322.466C501.673 323.175 501.495 324.135 501.573 325.346L501.859 329.757L499.684 329.898Z" fill="white"/>
<path d="M84.5628 360.823L83.9805 351.842L90.9658 351.389" stroke="white" stroke-opacity="0.85" stroke-width="2" stroke-linecap="round" stroke-linejoin="round"/>
<path d="M107.515 359.335L82.5669 360.953" stroke="white" stroke-opacity="0.85" stroke-width="2" stroke-linecap="round" stroke-linejoin="round"/>
<path d="M91.5482 360.37L90.5776 345.402L97.563 344.949" stroke="white" stroke-opacity="0.85" stroke-width="2" stroke-linecap="round" stroke-linejoin="round"/>
<path d="M104.16 338.508L97.1748 338.961L98.5336 359.917L105.519 359.464L104.16 338.508Z" stroke="white" stroke-opacity="0.85" stroke-width="2" stroke-linecap="round" stroke-linejoin="round"/>
</g>
<rect x="28.1987" y="318.382" width="504" height="72" rx="36" transform="rotate(-3.71 28.1987 318.382)" stroke="#43434C" stroke-width="1.2"/>
<rect x="15.1782" y="50.1221" width="504" height="72" rx="36" transform="rotate(2.94 15.1782 50.1221)" fill="#29292E"/>
<path d="M110.219 98.2655L110.937 84.284L113.274 84.404L112.662 96.3283L119.333 96.6709L119.227 98.7282L110.219 98.2655ZM125.515 99.2113C123.997 99.1333 122.777 98.5834 121.855 97.5614C120.933 96.5261 120.511 95.2561 120.588 93.7514C120.666 92.2468 121.215 91.0333 122.237 90.1112C123.26 89.1758 124.53 88.747 126.048 88.825C127.553 88.9023 128.766 89.4586 129.687 90.4938C130.623 91.5165 131.052 92.7802 130.975 94.2849C130.897 95.7895 130.341 97.0093 129.305 97.944C128.283 98.8662 127.02 99.2886 125.515 99.2113ZM123.482 96.2832C124.01 96.9245 124.72 97.268 125.612 97.3138C126.504 97.3596 127.239 97.0903 127.817 96.5058C128.407 95.922 128.728 95.1441 128.778 94.172C128.828 93.2 128.589 92.3933 128.061 91.7521C127.546 91.1115 126.843 90.7683 125.951 90.7225C125.059 90.6767 124.317 90.9457 123.726 91.5295C123.149 92.114 122.835 92.8922 122.786 93.8643C122.736 94.8363 122.968 95.6426 123.482 96.2832ZM132.828 99.4267L133.345 89.36L135.523 89.4718L135.436 91.1496C136.272 89.9642 137.408 89.4084 138.846 89.4823C139.925 89.5377 140.78 89.9154 141.412 90.6153C142.057 91.3027 142.352 92.1857 142.297 93.2642L141.956 99.8955L139.779 99.7837L140.094 93.6518C140.127 93.0126 139.967 92.4904 139.614 92.0851C139.262 91.6664 138.773 91.4411 138.147 91.4089C137.294 91.3652 136.611 91.6705 136.097 92.325C135.583 92.9795 135.294 93.9126 135.232 95.1243L135.006 99.5385L132.828 99.4267ZM152.28 90.3324L154.437 90.4432L153.949 99.9506C153.882 101.242 153.376 102.264 152.429 103.017C151.495 103.783 150.303 104.129 148.851 104.055C147.666 103.994 146.669 103.655 145.859 103.04C145.05 102.424 144.589 101.653 144.476 100.726L146.531 100.491C146.559 100.986 146.798 101.399 147.249 101.729C147.712 102.06 148.277 102.243 148.943 102.277C149.755 102.319 150.425 102.133 150.954 101.719C151.482 101.306 151.765 100.753 151.8 100.061L151.863 98.8422C151.59 99.2154 151.174 99.5078 150.616 99.7194C150.058 99.9177 149.453 100 148.801 99.9666C147.336 99.8914 146.208 99.3795 145.415 98.431C144.624 97.4691 144.266 96.2425 144.343 94.7511C144.419 93.2597 144.894 92.0825 145.766 91.2195C146.652 90.3437 147.82 89.9432 149.272 90.0177C149.898 90.0498 150.477 90.1998 151.011 90.4675C151.545 90.7352 151.948 91.0763 152.22 91.4909L152.28 90.3324ZM147.184 97.14C147.674 97.7259 148.346 98.0408 149.198 98.0845C150.05 98.1283 150.744 97.8835 151.278 97.3503C151.826 96.8177 152.124 96.0853 152.172 95.1532C152.22 94.2211 151.999 93.4621 151.508 92.8762C151.031 92.2909 150.366 91.9764 149.514 91.9326C148.662 91.8889 147.962 92.1333 147.414 92.6659C146.866 93.1985 146.568 93.9308 146.52 94.8629C146.472 95.795 146.693 96.554 147.184 97.14ZM167.186 101.111C166.699 101.246 166.162 101.299 165.576 101.269C164.577 101.217 163.786 100.896 163.202 100.306C162.632 99.7157 162.375 98.8681 162.432 97.7629L162.69 92.7295L160.932 92.6392L161.028 90.7817L162.786 90.8719L162.939 87.8759L165.117 87.9877L164.963 90.9838L167.559 91.1171L167.464 92.9747L164.867 92.8413L164.615 97.7548C164.59 98.2475 164.69 98.6332 164.916 98.9118C165.156 99.1778 165.489 99.3217 165.915 99.3436C166.395 99.3682 166.805 99.3092 167.146 99.1665L167.186 101.111ZM178.509 96.3456C178.491 96.7051 178.462 97.0041 178.423 97.2424L170.733 96.8475C170.782 97.7178 171.053 98.4193 171.546 98.9519C172.053 99.4853 172.706 99.7725 173.505 99.8135C174.171 99.8477 174.731 99.7296 175.185 99.4592C175.64 99.1755 175.948 98.7641 176.11 98.225L178.14 98.85C177.824 99.8084 177.246 100.533 176.407 101.024C175.567 101.515 174.555 101.73 173.369 101.669C171.838 101.59 170.646 101.022 169.792 99.9633C168.939 98.8915 168.55 97.6432 168.623 96.2184C168.697 94.7803 169.192 93.5774 170.11 92.6099C171.041 91.643 172.272 91.1989 173.803 91.2776C175.348 91.3569 176.535 91.8918 177.365 92.8824C178.196 93.873 178.577 95.0274 178.509 96.3456ZM170.918 95.1948L176.231 95.4676C176.201 94.7585 175.964 94.1789 175.52 93.7288C175.089 93.2795 174.487 93.035 173.715 92.9953C173.022 92.9597 172.433 93.1364 171.945 93.5252C171.459 93.9008 171.116 94.4573 170.918 95.1948ZM187.016 94.2391C186.664 94.0609 186.236 93.9588 185.73 93.9328C184.931 93.8918 184.246 94.2304 183.675 94.9487C183.118 95.6544 182.802 96.7463 182.726 98.2244L182.533 101.979L180.356 101.868L180.873 91.8009L183.05 91.9127L182.951 93.8301C183.248 93.2446 183.7 92.7738 184.306 92.4177C184.912 92.0484 185.521 91.8794 186.134 91.9109C186.573 91.9334 186.943 92.0125 187.243 92.1481L187.016 94.2391ZM188.375 102.279L188.892 92.2127L191.069 92.3245L190.982 94.0223C191.658 92.8154 192.675 92.2468 194.033 92.3165C194.845 92.3583 195.516 92.5662 196.044 92.9405C196.585 93.3154 196.946 93.8279 197.126 94.478C197.436 93.9065 197.894 93.4494 198.499 93.1066C199.104 92.7639 199.786 92.612 200.545 92.651C201.623 92.7064 202.466 93.07 203.072 93.742C203.692 94.4014 203.976 95.2437 203.923 96.269L203.575 103.06L201.398 102.948L201.719 96.6965C201.751 96.0573 201.598 95.5421 201.257 95.1508C200.931 94.7469 200.455 94.5288 199.829 94.4967C199.097 94.4591 198.502 94.7289 198.045 95.3063C197.602 95.8709 197.356 96.646 197.305 97.6313L197.043 102.725L194.886 102.614L195.207 96.3621C195.24 95.7229 195.093 95.208 194.766 94.8174C194.44 94.4135 193.963 94.1954 193.338 94.1633C192.605 94.1257 192.011 94.3955 191.554 94.9729C191.11 95.5509 190.863 96.3259 190.813 97.298L190.552 102.391L188.375 102.279ZM215.629 103.839C214.124 103.762 212.93 103.22 212.047 102.214C211.165 101.207 210.763 99.9313 210.842 98.3867C210.921 96.842 211.452 95.6143 212.433 94.7034C213.414 93.7926 214.657 93.3758 216.162 93.453C217.401 93.5166 218.417 93.8759 219.211 94.5308C220.005 95.1858 220.462 96.037 220.582 97.0845L218.443 97.3952C218.366 96.8172 218.116 96.3437 217.695 95.975C217.287 95.5936 216.764 95.3864 216.125 95.3536C215.259 95.3092 214.551 95.5732 214.001 96.1457C213.451 96.7183 213.15 97.5039 213.099 98.5026C213.048 99.5013 213.266 100.314 213.755 100.939C214.244 101.565 214.921 101.9 215.786 101.945C216.425 101.978 216.966 101.839 217.41 101.528C217.853 101.217 218.149 100.771 218.299 100.192L220.415 100.721C220.148 101.762 219.586 102.561 218.73 103.117C217.887 103.662 216.854 103.902 215.629 103.839ZM226.967 104.422C225.449 104.344 224.229 103.794 223.307 102.772C222.385 101.736 221.963 100.466 222.041 98.9618C222.118 97.4571 222.668 96.2437 223.69 95.3216C224.712 94.3861 225.982 93.9574 227.5 94.0354C229.005 94.1126 230.218 94.6689 231.14 95.7042C232.075 96.7269 232.504 97.9905 232.427 99.4952C232.35 101 231.793 102.22 230.757 103.154C229.735 104.077 228.472 104.499 226.967 104.422ZM224.935 101.494C225.462 102.135 226.172 102.478 227.065 102.524C227.957 102.57 228.691 102.301 229.269 101.716C229.86 101.132 230.18 100.354 230.23 99.3824C230.28 98.4103 230.041 97.6037 229.513 96.9624C228.999 96.3219 228.295 95.9787 227.403 95.9329C226.511 95.887 225.769 96.156 225.179 96.7398C224.601 97.3243 224.288 98.1026 224.238 99.0746C224.188 100.047 224.42 100.853 224.935 101.494ZM234.281 104.637L235.007 90.4957L237.184 90.6075L236.458 104.749L234.281 104.637ZM239.14 104.887L239.866 90.7453L242.043 90.8571L241.317 104.998L239.14 104.887ZM248.359 95.1066C249.664 95.1736 250.691 95.5802 251.441 96.3263C252.191 97.059 252.534 98.0446 252.47 99.283L252.148 105.555L250.011 105.445L250.09 103.907C249.771 104.398 249.317 104.788 248.728 105.079C248.14 105.356 247.513 105.477 246.847 105.443C245.848 105.391 245.051 105.07 244.453 104.479C243.856 103.887 243.58 103.159 243.624 102.293C243.723 100.376 245.325 99.3365 248.431 99.1756L250.338 99.0733L250.346 98.9335C250.377 98.321 250.202 97.8247 249.821 97.4447C249.454 97.0653 248.937 96.8585 248.271 96.8243C247.659 96.7929 247.144 96.94 246.726 97.2657C246.31 97.5781 246.053 98.0322 245.955 98.628L244.017 98.1679C244.227 97.1907 244.734 96.4224 245.537 95.8628C246.34 95.3033 247.281 95.0512 248.359 95.1066ZM247.373 103.787C248.212 103.831 248.884 103.605 249.39 103.11C249.896 102.615 250.177 101.949 250.234 101.111L250.255 100.691L248.327 100.812C246.666 100.914 245.812 101.424 245.765 102.343C245.744 102.743 245.881 103.077 246.174 103.345C246.467 103.614 246.867 103.761 247.373 103.787ZM260.032 106.12C259.367 106.086 258.761 105.921 258.215 105.626C257.67 105.331 257.288 104.964 257.07 104.526L257.005 105.804L254.827 105.692L255.554 91.5509L257.731 91.6628L257.457 96.9957C257.785 96.5853 258.229 96.2677 258.788 96.0427C259.361 95.8051 259.967 95.7027 260.606 95.7356C262.097 95.8122 263.238 96.3514 264.027 97.3532C264.83 98.3557 265.192 99.6293 265.113 101.174C265.033 102.732 264.542 103.968 263.641 104.883C262.74 105.785 261.537 106.197 260.032 106.12ZM257.779 103.2C258.281 103.827 258.971 104.163 259.85 104.208C260.729 104.253 261.45 103.99 262.014 103.418C262.578 102.833 262.885 102.047 262.936 101.062C262.987 100.063 262.762 99.2508 262.26 98.6242C261.758 97.9976 261.068 97.6618 260.189 97.6167C259.31 97.5715 258.589 97.8349 258.025 98.4067C257.462 98.9786 257.155 99.7639 257.103 100.763C257.053 101.748 257.278 102.561 257.779 103.2ZM271.607 106.714C270.089 106.636 268.869 106.086 267.947 105.064C267.026 104.029 266.604 102.759 266.681 101.254C266.758 99.7497 267.308 98.5363 268.33 97.6142C269.353 96.6788 270.623 96.25 272.141 96.328C273.646 96.4053 274.859 96.9615 275.78 97.9968C276.716 99.0195 277.145 100.283 277.067 101.788C276.99 103.293 276.433 104.512 275.397 105.447C274.375 106.369 273.112 106.792 271.607 106.714ZM269.575 103.786C270.103 104.427 270.813 104.771 271.705 104.817C272.597 104.863 273.332 104.593 273.909 104.009C274.5 103.425 274.82 102.647 274.87 101.675C274.92 100.703 274.681 99.8963 274.153 99.2551C273.639 98.6145 272.936 98.2713 272.043 98.2255C271.151 98.1797 270.41 98.4487 269.819 99.0325C269.242 99.6169 268.928 100.395 268.878 101.367C268.828 102.339 269.06 103.146 269.575 103.786ZM285.581 99.3012C285.23 99.123 284.801 99.0209 284.295 98.9949C283.496 98.9539 282.811 99.2925 282.24 100.011C281.683 100.717 281.367 101.808 281.291 103.286L281.098 107.042L278.921 106.93L279.438 96.863L281.615 96.9748L281.517 98.8922C281.814 98.3067 282.265 97.8359 282.871 97.4798C283.477 97.1105 284.087 96.9415 284.699 96.973C285.139 96.9955 285.509 97.0746 285.809 97.2102L285.581 99.3012ZM290.988 97.2959C292.293 97.363 293.32 97.7695 294.07 98.5156C294.82 99.2484 295.163 100.234 295.099 101.472L294.777 107.744L292.64 107.634L292.719 106.096C292.4 106.587 291.946 106.978 291.357 107.268C290.769 107.545 290.142 107.666 289.476 107.632C288.477 107.581 287.68 107.259 287.082 106.668C286.485 106.077 286.209 105.348 286.253 104.483C286.352 102.565 287.954 101.526 291.06 101.365L292.967 101.263L292.975 101.123C293.006 100.51 292.831 100.014 292.45 99.634C292.083 99.2546 291.566 99.0479 290.9 99.0137C290.287 98.9822 289.773 99.1293 289.355 99.455C288.939 99.7674 288.682 100.221 288.584 100.817L286.646 100.357C286.856 99.3801 287.363 98.6117 288.166 98.0522C288.969 97.4926 289.91 97.2405 290.988 97.2959ZM290.002 105.977C290.841 106.02 291.513 105.794 292.019 105.299C292.525 104.805 292.806 104.138 292.863 103.3L292.884 102.881L290.956 103.002C289.295 103.103 288.441 103.614 288.394 104.532C288.373 104.932 288.51 105.266 288.803 105.535C289.096 105.803 289.496 105.951 290.002 105.977ZM303.017 108.087C302.529 108.222 301.992 108.275 301.406 108.245C300.408 108.193 299.616 107.872 299.033 107.282C298.462 106.692 298.205 105.844 298.262 104.739L298.52 99.7054L296.763 99.6152L296.858 97.7576L298.616 97.8479L298.77 94.8518L300.947 94.9637L300.793 97.9597L303.39 98.0931L303.294 99.9506L300.698 99.8173L300.445 104.731C300.42 105.223 300.52 105.609 300.746 105.888C300.986 106.154 301.319 106.298 301.745 106.32C302.225 106.344 302.635 106.285 302.976 106.142L303.017 108.087ZM306.63 96.5773C306.231 96.5568 305.905 96.4065 305.652 96.1265C305.4 95.8332 305.284 95.4935 305.304 95.1073C305.324 94.7078 305.475 94.3818 305.755 94.1291C306.035 93.8632 306.375 93.7405 306.775 93.761C307.188 93.7822 307.52 93.9394 307.772 94.2327C308.038 94.5134 308.161 94.8535 308.14 95.253C308.12 95.6391 307.963 95.9648 307.669 96.2301C307.389 96.4828 307.043 96.5985 306.63 96.5773ZM304.948 108.266L305.465 98.1997L307.643 98.3115L307.126 108.378L304.948 108.266ZM314.453 108.915C312.935 108.837 311.715 108.287 310.793 107.265C309.872 106.23 309.45 104.96 309.527 103.455C309.604 101.95 310.154 100.737 311.176 99.8147C312.198 98.8792 313.469 98.4505 314.987 98.5285C316.491 98.6057 317.705 99.162 318.626 100.197C319.561 101.22 319.99 102.484 319.913 103.988C319.836 105.493 319.279 106.713 318.243 107.647C317.221 108.57 315.958 108.992 314.453 108.915ZM312.421 105.987C312.949 106.628 313.659 106.971 314.551 107.017C315.443 107.063 316.178 106.794 316.755 106.209C317.346 105.625 317.666 104.848 317.716 103.875C317.766 102.903 317.527 102.097 316.999 101.456C316.485 100.815 315.781 100.472 314.889 100.426C313.997 100.38 313.256 100.649 312.665 101.233C312.088 101.817 311.774 102.596 311.724 103.568C311.674 104.54 311.906 105.346 312.421 105.987ZM321.767 109.13L322.284 99.0634L324.461 99.1752L324.375 100.853C325.21 99.6676 326.347 99.1119 327.785 99.1857C328.863 99.2411 329.719 99.6188 330.35 100.319C330.996 101.006 331.291 101.889 331.235 102.968L330.895 109.599L328.718 109.487L329.033 103.355C329.066 102.716 328.905 102.194 328.552 101.789C328.2 101.37 327.711 101.145 327.085 101.112C326.233 101.069 325.55 101.374 325.035 102.028C324.521 102.683 324.233 103.616 324.171 104.828L323.944 109.242L321.767 109.13ZM337.018 110.074C335.886 110.015 334.962 109.681 334.246 109.07C333.543 108.447 333.08 107.722 332.855 106.896L334.692 106.229C335.037 107.569 335.842 108.271 337.107 108.336C337.613 108.362 338.032 108.257 338.365 108.02C338.711 107.784 338.893 107.48 338.912 107.107C338.933 106.707 338.756 106.385 338.381 106.138C338.007 105.892 337.543 105.695 336.99 105.546C336.451 105.385 335.913 105.204 335.376 105.003C334.839 104.788 334.389 104.451 334.026 103.992C333.662 103.533 333.499 102.95 333.535 102.245C333.576 101.446 333.929 100.803 334.595 100.317C335.274 99.8307 336.153 99.6155 337.232 99.6709C338.177 99.7195 339.004 99.9956 339.712 100.499C340.422 100.99 340.864 101.606 341.039 102.35L339.203 103.016C339.107 102.531 338.861 102.138 338.462 101.837C338.077 101.537 337.645 101.374 337.165 101.35C336.686 101.325 336.302 101.399 336.013 101.571C335.724 101.73 335.571 101.975 335.554 102.308C335.536 102.655 335.715 102.937 336.091 103.157C336.468 103.363 336.926 103.54 337.466 103.688C338.019 103.837 338.57 104.019 339.12 104.234C339.67 104.449 340.125 104.806 340.487 105.305C340.848 105.804 341.01 106.434 340.971 107.193C340.926 108.071 340.535 108.786 339.799 109.335C339.064 109.885 338.136 110.131 337.018 110.074ZM350.092 110.585L347.493 100.358L349.71 100.472L351.246 107.6L353.785 100.681L355.802 100.785L357.598 107.926L359.857 100.993L362.074 101.107L358.461 111.015L356.443 110.911L354.626 103.788L352.089 110.687L350.092 110.585ZM365.102 99.5803C364.703 99.5598 364.377 99.4095 364.124 99.1295C363.872 98.8362 363.756 98.4965 363.776 98.1103C363.797 97.7108 363.947 97.3848 364.227 97.1321C364.507 96.8662 364.848 96.7435 365.247 96.764C365.66 96.7852 365.992 96.9424 366.244 97.2357C366.51 97.5164 366.633 97.8565 366.612 98.256C366.592 98.6421 366.436 98.9678 366.142 99.2331C365.862 99.4858 365.515 99.6015 365.102 99.5803ZM363.421 111.269L363.938 101.203L366.115 101.314L365.598 111.381L363.421 111.269ZM373.996 111.732C373.509 111.868 372.972 111.92 372.386 111.89C371.388 111.839 370.596 111.518 370.012 110.927C369.442 110.337 369.185 109.489 369.242 108.384L369.5 103.351L367.743 103.261L367.838 101.403L369.596 101.493L369.75 98.4972L371.927 98.609L371.773 101.605L374.37 101.738L374.274 103.596L371.678 103.463L371.425 108.376C371.4 108.869 371.5 109.254 371.726 109.533C371.966 109.799 372.299 109.943 372.725 109.965C373.205 109.99 373.615 109.931 373.956 109.788L373.996 111.732ZM376.279 111.93L377.006 97.7884L379.183 97.9003L378.884 103.713C379.655 102.484 380.786 101.908 382.277 101.984C383.423 102.043 384.318 102.423 384.963 103.124C385.621 103.812 385.923 104.702 385.867 105.793L385.527 112.405L383.35 112.293L383.664 106.181C383.698 105.515 383.525 104.979 383.146 104.572C382.78 104.166 382.257 103.946 381.578 103.911C380.739 103.868 380.062 104.18 379.547 104.848C379.032 105.516 378.743 106.462 378.68 107.687L378.457 112.042L376.279 111.93ZM402.723 103.195L402.206 113.261L400.029 113.15L400.115 111.472C399.74 112.013 399.258 112.436 398.669 112.739C398.079 113.043 397.431 113.176 396.725 113.14C395.633 113.084 394.765 112.712 394.119 112.025C393.488 111.325 393.199 110.436 393.255 109.357L393.595 102.726L395.773 102.838L395.458 108.97C395.425 109.609 395.585 110.138 395.937 110.556C396.29 110.962 396.786 111.181 397.425 111.213C398.264 111.257 398.941 110.951 399.455 110.296C399.969 109.642 400.257 108.709 400.32 107.497L400.546 103.083L402.723 103.195ZM408.349 113.737C407.217 113.679 406.293 113.344 405.577 112.734C404.874 112.11 404.411 111.385 404.186 110.559L406.023 109.893C406.368 111.232 407.173 111.934 408.438 111.999C408.944 112.025 409.363 111.92 409.696 111.683C410.042 111.448 410.224 111.143 410.243 110.77C410.264 110.371 410.087 110.048 409.712 109.802C409.338 109.556 408.874 109.358 408.321 109.21C407.782 109.048 407.244 108.867 406.707 108.666C406.17 108.452 405.72 108.115 405.357 107.656C404.993 107.196 404.83 106.614 404.866 105.908C404.907 105.109 405.26 104.466 405.926 103.98C406.605 103.494 407.484 103.279 408.563 103.334C409.508 103.383 410.335 103.659 411.043 104.163C411.753 104.653 412.195 105.27 412.37 106.013L410.534 106.68C410.438 106.194 410.192 105.801 409.793 105.5C409.408 105.2 408.976 105.038 408.496 105.013C408.017 104.988 407.633 105.062 407.344 105.234C407.055 105.393 406.902 105.639 406.885 105.972C406.867 106.318 407.046 106.601 407.422 106.82C407.799 107.027 408.257 107.204 408.797 107.352C409.35 107.5 409.901 107.682 410.451 107.897C411.001 108.112 411.456 108.469 411.818 108.969C412.179 109.468 412.341 110.097 412.302 110.856C412.257 111.735 411.866 112.449 411.13 112.999C410.395 113.548 409.467 113.794 408.349 113.737Z" fill="white"/>
<g clip-path="url(#clip1_2935_2843)">
<path d="M91.3562 89.3054L88.1939 90.6825L84.5916 82.8374L87.7926 81.4373C88.0306 81.331 88.301 81.3231 88.5448 81.4153C88.7886 81.5076 88.986 81.6925 89.0941 81.9297L91.863 87.9671C91.9193 88.088 91.9508 88.219 91.9556 88.3522C91.9605 88.4855 91.9387 88.6183 91.8915 88.743C91.8443 88.8677 91.7726 88.9817 91.6807 89.0783C91.5888 89.1749 91.4784 89.2521 91.3562 89.3054V89.3054Z" stroke="white" stroke-opacity="0.85" stroke-width="1.99921" stroke-linecap="round" stroke-linejoin="round"/>
<path d="M66.2291 89.4296L63.2251 87.7233C63.1094 87.659 63.0078 87.5721 62.9263 87.4678C62.8448 87.3634 62.7851 87.2437 62.7508 87.1159C62.7165 86.988 62.7083 86.8545 62.7266 86.7234C62.7449 86.5923 62.7894 86.4662 62.8574 86.3526L66.2304 80.6306C66.3624 80.4059 66.5769 80.2415 66.8282 80.1726C67.0796 80.1037 67.3479 80.1356 67.5761 80.2616L70.6168 81.9824L66.2291 89.4296Z" stroke="white" stroke-opacity="0.85" stroke-width="1.99921" stroke-linecap="round" stroke-linejoin="round"/>
<path d="M88.1941 90.6829L86.0762 92.9272L81.2463 97.2852C81.1151 97.3959 80.9591 97.4731 80.7915 97.5103C80.6239 97.5474 80.4498 97.5435 80.2841 97.4987L73.1366 95.3167C73.0063 95.273 72.8863 95.203 72.7842 95.1109L66.2295 89.4297" stroke="white" stroke-opacity="0.85" stroke-width="1.99921" stroke-linecap="round" stroke-linejoin="round"/>
<path d="M86.0761 92.9272L80.7885 88.6504L79.129 89.7667C78.4102 90.2479 77.5552 90.4839 76.6913 90.4395C75.8275 90.3951 75.0011 90.0728 74.3354 89.5206L73.6875 88.9741C73.578 88.8816 73.4894 88.7669 73.4275 88.6375C73.3656 88.5082 73.3319 88.3671 73.3286 88.2238C73.3253 88.0805 73.3525 87.938 73.4084 87.806C73.4643 87.6739 73.5476 87.5553 73.6528 87.4578L78.797 82.8281C78.8936 82.7413 79.0064 82.6745 79.1289 82.6314C79.2514 82.5883 79.3812 82.5698 79.5108 82.5769L84.5916 82.8378" stroke="white" stroke-opacity="0.85" stroke-width="1.99921" stroke-linecap="round" stroke-linejoin="round"/>
<path d="M70.6924 81.9864L77.1926 80.4428C77.4235 80.3892 77.6659 80.4194 77.8766 80.528L82.0953 82.7097" stroke="white" stroke-opacity="0.85" stroke-width="1.99921" stroke-linecap="round" stroke-linejoin="round"/>
<path d="M74.7059 99.853L70.9971 98.7113C70.8457 98.6688 70.7077 98.5885 70.596 98.4779L67.9004 95.8862" stroke="white" stroke-opacity="0.85" stroke-width="1.99921" stroke-linecap="round" stroke-linejoin="round"/>
</g>
<rect x="15.1782" y="50.1221" width="504" height="72" rx="36" transform="rotate(2.94 15.1782 50.1221)" stroke="#43434C" stroke-width="1.2"/>
<path opacity="0.9" d="M364 396.5L492.5 377.5C492.5 377.5 522.564 370.797 530.5 365C548.91 351.552 552.451 338.36 548 316C544.751 299.677 528.477 298.375 525.5 282C522.5 265.5 535.492 258.974 530.5 241.5C525.5 224 502.5 216 502.5 216" stroke="white" stroke-width="1.4" stroke-dasharray="5 7"/>
<path d="M274.084 70.4011C274.305 70.907 274.895 71.1376 275.401 70.916L283.645 67.306C284.151 67.0845 284.382 66.4948 284.16 65.9889C283.939 65.483 283.349 65.2524 282.843 65.474L275.515 68.6829L272.306 61.3546C272.084 60.8487 271.495 60.6182 270.989 60.8397C270.483 61.0612 270.252 61.6509 270.474 62.1569L274.084 70.4011ZM385 12C384.946 11.0015 384.945 11.0015 384.945 11.0015C384.944 11.0015 384.944 11.0016 384.943 11.0016C384.941 11.0017 384.939 11.0018 384.936 11.002C384.931 11.0023 384.922 11.0028 384.911 11.0034C384.889 11.0047 384.857 11.0066 384.814 11.0091C384.729 11.0143 384.603 11.0222 384.438 11.0331C384.108 11.0551 383.622 11.0895 382.994 11.1396C381.738 11.2397 379.915 11.4024 377.636 11.6533C373.078 12.155 366.697 13.0095 359.395 14.4212C344.812 17.241 326.472 22.2994 311.665 31.2671L312.701 32.9778C327.211 24.1904 345.28 19.1876 359.775 16.3849C367.013 14.9854 373.339 14.1384 377.854 13.6413C380.112 13.3928 381.915 13.2319 383.153 13.1332C383.772 13.0839 384.249 13.0501 384.571 13.0287C384.731 13.018 384.853 13.0104 384.935 13.0055C384.975 13.0031 385.006 13.0013 385.026 13.0001C385.036 12.9996 385.043 12.9992 385.048 12.9989C385.05 12.9987 385.052 12.9987 385.053 12.9986C385.054 12.9986 385.054 12.9985 385.054 12.9985C385.054 12.9985 385.054 12.9985 385 12ZM311.665 31.2671C296.895 40.2124 287.509 49.7663 281.808 57.106C278.958 60.775 277.031 63.889 275.812 66.0948C275.203 67.1978 274.77 68.0737 274.489 68.6786C274.348 68.981 274.245 69.2156 274.176 69.377C274.141 69.4577 274.115 69.5201 274.098 69.5635C274.089 69.5852 274.082 69.6021 274.077 69.6142C274.075 69.6203 274.073 69.6251 274.071 69.6287C274.071 69.6305 274.07 69.632 274.07 69.6332C274.069 69.6338 274.069 69.6345 274.069 69.6348C274.069 69.6354 274.069 69.6359 275 70C275.931 70.3641 275.931 70.3645 275.931 70.3647C275.931 70.3647 275.931 70.365 275.931 70.3649C275.931 70.3649 275.931 70.3646 275.931 70.3639C275.932 70.3627 275.933 70.3602 275.934 70.3565C275.937 70.3491 275.942 70.3369 275.949 70.32C275.963 70.2861 275.985 70.2334 276.015 70.1623C276.076 70.0203 276.17 69.8053 276.302 69.5228C276.565 68.9579 276.976 68.123 277.563 67.062C278.735 64.9401 280.606 61.9138 283.388 58.3328C288.949 51.1724 298.155 41.7876 312.701 32.9778L311.665 31.2671Z" fill="#E36654"/>
<path d="M391.753 17.6015L391.543 3.60304L396.862 3.52303C398.182 3.50317 399.24 3.8073 400.036 4.43539C400.846 5.04996 401.259 5.92384 401.276 7.05705C401.285 7.67031 401.12 8.23285 400.781 8.74468C400.442 9.24317 400.034 9.60268 399.557 9.82321C400.294 10.0788 400.888 10.5033 401.337 11.0966C401.785 11.6766 402.017 12.4198 402.03 13.3264C402.049 14.6063 401.631 15.6193 400.776 16.3656C399.934 17.1117 398.779 17.4958 397.313 17.5178L391.753 17.6015ZM393.966 9.14722L396.806 9.1045C398.313 9.08184 399.057 8.46391 399.038 7.25072C399.02 6.02419 398.251 5.42236 396.731 5.44522L393.911 5.48763L393.966 9.14722ZM394.062 15.5065L397.002 15.4623C398.855 15.4344 399.771 14.7005 399.749 13.2607C399.727 11.8075 398.79 11.0949 396.936 11.1228L393.997 11.167L394.062 15.5065ZM413.47 11.8542C413.476 12.2141 413.467 12.5143 413.444 12.7547L405.745 12.8705C405.851 13.7357 406.168 14.4176 406.696 14.9164C407.236 15.415 407.907 15.6583 408.707 15.6463C409.373 15.6362 409.924 15.4813 410.36 15.1813C410.795 14.8681 411.075 14.4372 411.201 13.8885L413.268 14.3775C413.016 15.3547 412.488 16.1161 411.682 16.6616C410.877 17.2071 409.881 17.4888 408.695 17.5066C407.162 17.5297 405.934 17.0414 405.012 16.0419C404.09 15.029 403.619 13.8092 403.597 12.3827C403.575 10.9429 403.99 9.70985 404.842 8.6836C405.706 7.65715 406.905 7.13239 408.438 7.10933C409.985 7.08606 411.205 7.5411 412.099 8.47442C412.993 9.40774 413.45 10.5343 413.47 11.8542ZM405.82 11.2092L411.139 11.1292C411.062 10.4236 410.787 9.86099 410.314 9.44139C409.854 9.02159 409.237 8.8175 408.464 8.82913C407.771 8.83956 407.194 9.05493 406.734 9.47523C406.273 9.88221 405.968 10.4602 405.82 11.2092ZM415.679 17.2416L415.527 7.16272L417.707 7.12993L417.732 8.80974C418.487 7.57158 419.584 6.94167 421.024 6.92001C422.104 6.90377 422.982 7.22393 423.659 7.8805C424.349 8.52353 424.702 9.38498 424.718 10.4649L424.818 17.1041L422.638 17.1369L422.546 10.9976C422.536 10.3577 422.342 9.8472 421.962 9.46619C421.583 9.07185 421.08 8.87939 420.454 8.88882C419.6 8.90165 418.939 9.25164 418.469 9.93878C417.999 10.6259 417.774 11.5761 417.792 12.7893L417.858 17.2088L415.679 17.2416ZM436.734 11.5043C436.739 11.8642 436.731 12.1644 436.708 12.4048L429.008 12.5206C429.115 13.3857 429.432 14.0677 429.959 14.5665C430.5 15.0651 431.171 15.3084 431.971 15.2963C432.637 15.2863 433.188 15.1313 433.624 14.8314C434.059 14.5182 434.339 14.0872 434.464 13.5386L436.532 14.0276C436.28 15.0048 435.751 15.7662 434.946 16.3117C434.141 16.8572 433.145 17.1389 431.959 17.1567C430.425 17.1798 429.198 16.6915 428.276 15.6919C427.354 14.679 426.882 13.4593 426.861 12.0328C426.839 10.593 427.254 9.35992 428.105 8.33367C428.97 7.30722 430.169 6.78246 431.702 6.7594C433.249 6.73614 434.469 7.19117 435.363 8.12449C436.257 9.05782 436.714 10.1844 436.734 11.5043ZM429.083 10.8592L434.403 10.7792C434.326 10.0736 434.05 9.51106 433.577 9.09146C433.118 8.67166 432.501 8.46757 431.728 8.4792C431.035 8.48963 430.458 8.705 429.997 9.1253C429.537 9.53228 429.232 10.1103 429.083 10.8592ZM439.629 16.8813L439.505 8.66226L437.845 8.68722L437.817 6.82744L439.477 6.80247L439.464 5.94256C439.447 4.83602 439.741 3.96484 440.345 3.32902C440.949 2.6932 441.744 2.36787 442.73 2.35303C443.224 2.34561 443.705 2.41172 444.174 2.55135L444.081 4.39295C443.733 4.26484 443.385 4.2034 443.038 4.20861C442.612 4.21503 442.267 4.37356 442.005 4.6842C441.756 4.98131 441.636 5.3765 441.643 5.86978L441.657 6.76968L444.116 6.73268L444.144 8.59247L441.685 8.62947L441.808 16.8485L439.629 16.8813ZM447.191 5.00625C446.791 5.01226 446.456 4.88396 446.185 4.62133C445.914 4.34538 445.776 4.01409 445.77 3.62746C445.764 3.22751 445.892 2.89221 446.155 2.62156C446.417 2.33758 446.748 2.19258 447.148 2.18657C447.562 2.18035 447.904 2.31522 448.175 2.59118C448.459 2.8536 448.604 3.18479 448.61 3.58475C448.615 3.97137 448.48 4.30677 448.205 4.59095C447.942 4.8616 447.604 5.00003 447.191 5.00625ZM446.288 16.7812L446.136 6.7023L448.316 6.66951L448.468 16.7484L446.288 16.7812ZM456.871 16.542C456.393 16.7092 455.861 16.7972 455.275 16.806C454.275 16.821 453.464 16.5532 452.842 16.0025C452.234 15.4516 451.922 14.6229 451.905 13.5163L451.829 8.47688L450.069 8.50335L450.041 6.64356L451.801 6.61709L451.756 3.61743L453.936 3.58464L453.981 6.5843L456.581 6.5452L456.609 8.40499L454.009 8.44409L454.083 13.3635C454.09 13.8568 454.216 14.235 454.46 14.498C454.717 14.7475 455.059 14.869 455.486 14.8626C455.966 14.8554 456.371 14.7693 456.702 14.6043L456.871 16.542ZM462.566 16.6963C461.433 16.7134 460.489 16.4409 459.733 15.8788C458.991 15.3033 458.481 14.6109 458.202 13.8016L459.99 13.0146C460.423 14.3283 461.273 14.9756 462.54 14.9565C463.046 14.9489 463.458 14.816 463.774 14.5579C464.103 14.2996 464.265 13.9838 464.26 13.6105C464.254 13.2105 464.056 12.9002 463.666 12.6793C463.276 12.4585 462.8 12.2923 462.238 12.1807C461.689 12.0557 461.141 11.9106 460.591 11.7455C460.042 11.567 459.571 11.2608 459.177 10.8266C458.784 10.3925 458.582 9.82213 458.572 9.11555C458.559 8.31564 458.87 7.6509 459.502 7.12133C460.147 6.59156 461.01 6.31856 462.09 6.30231C463.036 6.28808 463.88 6.50875 464.62 6.96433C465.36 7.40659 465.842 7.99273 466.066 8.72278L464.278 9.50976C464.151 9.03162 463.879 8.65568 463.461 8.38192C463.057 8.10797 462.615 7.9746 462.135 7.98182C461.655 7.98904 461.276 8.08808 460.999 8.27894C460.722 8.45646 460.586 8.71187 460.591 9.04517C460.596 9.3918 460.793 9.66219 461.183 9.85635C461.572 10.0372 462.041 10.1835 462.59 10.2952C463.151 10.4068 463.714 10.5517 464.276 10.7299C464.839 10.9081 465.317 11.2343 465.711 11.7085C466.105 12.1826 466.308 12.7996 466.319 13.5595C466.332 14.4394 465.99 15.178 465.292 15.7752C464.595 16.3724 463.686 16.6795 462.566 16.6963Z" fill="#E36654"/>
<defs>
<clipPath id="clip0_2935_2843">
<rect x="28.1987" y="318.382" width="504" height="72" rx="36" transform="rotate(-3.71 28.1987 318.382)" fill="white"/>
</clipPath>
<clipPath id="clip1_2935_2843">
<rect width="32" height="32" fill="white" transform="translate(62.0894 72.5576) rotate(2.94)"/>
</clipPath>
</defs>
</svg>
