<svg xmlns="http://www.w3.org/2000/svg" width="208" height="48" viewBox="0 0 208 48" fill="none">
    <path fill-rule="evenodd" clip-rule="evenodd" d="M134.303 17.5271C134.672 17.4374 135.02 17.5614 135.342 17.593C135.376 17.6643 135.482 17.6722 135.513 17.7486C135.875 17.7856 135.922 18.1363 136.183 18.2787C136.231 18.4871 136.333 18.6374 136.42 18.8062C136.536 19.2545 136.489 19.6659 136.357 20.0404C136.054 20.9001 135.157 21.5331 134.068 21.1849C134.021 21.1718 133.931 21.1797 133.894 21.1665C133.849 21.1401 133.802 21.0346 133.744 21.0109C133.683 20.9845 133.628 21.0109 133.591 20.9872C133.227 20.7445 132.905 20.2039 132.834 19.84C132.768 19.505 132.786 19.0172 132.918 18.6743C133.111 18.1732 133.483 17.899 133.936 17.593C134.102 17.6141 134.192 17.5614 134.303 17.5271Z" fill="#D32B28"/>
    <path fill-rule="evenodd" clip-rule="evenodd" d="M200.544 23.0846C200.834 22.9976 201.05 22.8367 201.258 22.6653C201.651 22.5624 202.049 22.3251 202.553 22.267C203.049 22.2117 203.605 22.3013 204.046 22.3541C206.675 23.1742 208.395 25.6453 207.891 29.2557C207.841 29.6223 207.696 29.9414 207.632 30.337C207.126 31.7716 206.061 33.1931 204.457 33.7126C204.407 33.7258 204.336 33.7126 204.286 33.7311C203.882 33.8788 203.152 33.9394 202.516 33.8656C201.606 33.7627 201.024 33.2485 200.507 32.6973C200.169 33.1034 199.953 33.6124 199.383 33.7996C199.101 33.7733 198.866 33.8366 198.605 33.7996C197.912 33.6994 197.397 33.0243 197.31 32.3861C197.242 31.885 197.31 31.2837 197.31 30.7114C197.31 27.4044 197.31 24.0313 197.31 20.6794C197.31 20.1124 197.236 19.5138 197.31 19.0259C197.331 18.8835 197.447 18.7332 197.397 18.5644C197.587 18.1688 197.838 17.8391 198.196 17.615C198.339 17.5886 198.489 17.5754 198.587 17.5042C198.814 17.5253 199.009 17.4805 199.191 17.5042C199.853 17.6044 200.159 18.0396 200.422 18.5433C200.638 19.883 200.404 21.6763 200.551 23.0846M202.843 25.2656C202.524 25.2234 202.039 25.3552 201.87 25.4423C201.427 25.6691 200.944 26.2176 200.747 26.6976C200.654 26.9138 200.652 27.1697 200.594 27.3833C200.573 27.4597 200.52 27.5072 200.507 27.5784C200.414 28.1955 200.541 28.868 200.681 29.2109C200.813 29.53 200.96 29.7911 201.134 30.0469C201.332 30.3396 201.596 30.4978 201.846 30.7114C202.247 30.7958 202.577 30.9224 202.946 30.8644C203.16 30.8354 203.476 30.6904 203.619 30.6007C203.853 30.4504 204.083 30.2473 204.267 29.9862C204.373 29.8253 204.41 29.7198 204.46 29.5432C204.515 29.3665 204.644 29.2346 204.697 29.0157C204.813 28.5436 204.818 28.0057 204.784 27.4492C204.51 26.5077 204.138 25.6638 203.249 25.3526C203.091 25.3974 202.978 25.284 202.841 25.2656" fill="#D32B28"/>
    <path fill-rule="evenodd" clip-rule="evenodd" d="M88.3714 18.8958C88.9569 19.1727 89.7665 19.4522 90.1436 20.0403C90.2227 20.1643 90.3203 20.3779 90.3388 20.5045C90.4311 21.0662 90.2728 21.591 90.0803 21.9813C89.8772 22.1818 89.748 22.3163 89.3894 22.4007C89.1837 22.4455 89.1546 22.5193 88.8909 22.4666C88.7881 22.4455 88.6615 22.4244 88.5665 22.4007C88.2712 22.3242 88.1472 22.2266 87.8334 22.1554C87.5591 22.0974 87.2347 21.8864 86.9262 21.8231C86.346 21.7203 85.7843 21.7414 85.2858 21.8231C84.223 22.0024 83.5505 22.7857 83.0389 23.5004C82.9783 23.8722 82.704 24.2045 82.6301 24.6502C82.617 24.7161 82.6433 24.7821 82.6301 24.8454C82.6117 24.9245 82.5616 24.9851 82.5431 25.0669C82.406 25.6814 82.4244 26.5675 82.522 27.1582C82.5616 27.4088 82.4983 27.6593 82.6301 27.8202C82.8016 29.0122 83.416 29.7506 84.1624 30.3545C84.8428 30.6947 85.6128 30.9927 86.6493 30.8635C87.4906 30.7607 88.1261 30.2385 88.8303 30.046C89.1204 30.0196 89.3762 30.0539 89.5872 30.1356C89.6557 30.162 89.7823 30.1778 89.8245 30.1989C90.1963 30.4231 90.613 31.1905 90.4944 31.8973C90.4759 32.0081 90.3572 32.1004 90.4073 32.2507C90.2702 32.5091 90.0592 32.6911 89.9115 32.9337C89.5872 33.1315 89.2549 33.3188 88.9384 33.5298C88.4611 33.6827 87.9679 33.8199 87.4695 33.9491C85.2647 34.2392 83.3422 33.8172 82.0473 32.8916C81.9787 32.8414 81.9207 32.7834 81.8522 32.736C81.7783 32.6858 81.6755 32.67 81.6148 32.6252C81.4909 32.5329 81.388 32.3667 81.2693 32.2507C81.148 32.1294 80.9924 32.0476 80.879 31.9422C80.821 31.8868 80.7814 31.7681 80.7076 31.6784C80.6417 31.5967 80.5441 31.5492 80.4914 31.478C80.465 31.4411 80.4914 31.3883 80.4703 31.3461C80.4201 31.2591 80.2988 31.1774 80.2329 31.0824C80.1643 30.9848 80.1195 30.8873 80.0615 30.7712C79.8663 30.4099 79.5868 30.0091 79.4549 29.5607C79.4338 29.4922 79.4523 29.4078 79.4338 29.3392C79.3864 29.1599 79.3178 29.028 79.2598 28.8118C79.0092 27.8571 78.9011 26.6677 78.9591 25.3702C78.9644 25.1988 78.938 25.0247 78.9591 24.8612C79.0119 24.4366 79.1411 24.0436 79.1965 23.5821C79.4971 22.7303 79.8848 21.9655 80.341 21.2693C80.5968 20.9897 80.8342 20.7049 81.119 20.4517C81.3959 20.2065 81.6834 19.9718 81.9629 19.7265C82.406 19.5234 82.8095 19.2808 83.2393 19.0646C83.4661 19.0725 83.6033 18.9802 83.7351 18.8905C84.5158 18.7323 85.3307 18.5529 86.3302 18.5582C86.5148 18.5582 86.7152 18.6321 86.913 18.6452C87.0159 18.6532 87.124 18.6321 87.2163 18.6452C87.298 18.6584 87.3745 18.7191 87.4536 18.7349C87.538 18.7481 87.633 18.7217 87.7147 18.7349C87.9468 18.7718 88.1499 18.9222 88.3819 18.8905" fill="#D32B28"/>
    <path fill-rule="evenodd" clip-rule="evenodd" d="M52.8539 18.6091C52.8513 18.5906 52.8618 18.588 52.8618 18.588C53.7743 18.5722 54.4784 18.5959 55.2538 18.7409C55.383 18.7647 55.5254 18.8623 55.6836 18.8965C55.8471 18.9282 55.9685 18.9308 56.1161 18.9862C56.2796 19.0416 56.3878 19.0838 56.5275 19.1603C57.2422 19.5585 58.0862 19.9725 57.8857 21.278C57.8594 21.4599 57.7565 21.8054 57.6273 21.9821C57.5983 22.0216 57.4928 22.077 57.4321 22.1351C57.2976 22.2669 57.2633 22.3302 57.0655 22.4014C56.7491 22.5122 56.459 22.5122 56.1372 22.4014C56.0871 22.383 56.0423 22.3302 55.9869 22.3117C55.768 22.2458 55.5254 22.2247 55.3382 22.1561C55.2379 22.1219 55.1562 22.0348 55.0586 22.0006C54.8529 21.9346 54.6446 21.9425 54.4521 21.8239C53.7532 21.6946 53.0939 21.7316 52.5532 21.9135C52.2447 22.0164 52.0311 22.0955 51.7753 22.2669C51.5986 22.383 51.4984 22.4331 51.319 22.5966C51.0817 22.8234 50.7441 23.1952 50.5859 23.5011C50.5384 23.5961 50.4857 23.7886 50.4356 23.8967C50.338 24.1051 50.2457 24.316 50.1745 24.5587C50.1613 24.6061 50.1903 24.68 50.1745 24.7354C50.1613 24.7855 50.1165 24.8066 50.1112 24.8435C50.0321 25.2575 50.0241 25.7428 50.0241 26.323C50.0241 26.6526 49.9872 27.0086 50.0241 27.3146C50.0716 27.6653 50.2378 27.9871 50.2641 28.3958C50.3301 28.5277 50.4329 28.62 50.4356 28.8151C50.781 29.4824 51.2294 30.0889 51.8623 30.445C51.9493 30.4951 52.0785 30.503 52.1867 30.5557C52.2816 30.5979 52.3555 30.6797 52.4478 30.7113C52.5928 30.7588 52.7906 30.7562 52.9647 30.7957C53.827 31.0093 54.816 30.7614 55.4067 30.4687C55.4489 30.4476 55.4647 30.4001 55.5122 30.3817C55.7153 30.292 55.8735 30.2313 56.1188 30.139C56.1873 30.1127 56.2744 30.0599 56.335 30.0494C57.2792 29.8859 57.7407 30.5083 57.978 31.0621C58.0229 31.4893 58.0993 31.8427 57.9569 32.2119C57.7407 32.7736 57.1842 33.1455 56.6199 33.4461C56.4036 33.5595 56.2084 33.5938 55.95 33.6887C55.7232 33.7705 55.3144 33.9129 55.0402 33.9525C54.8925 33.9762 54.7369 33.9366 54.5865 33.9525C54.4573 33.9657 54.3492 34.0289 54.2173 34.0421C53.7954 34.0896 53.318 34.0764 52.875 34.0421C52.751 34.0316 52.6192 33.9683 52.49 33.9525C52.3713 33.9393 52.2394 33.9709 52.1234 33.9525C51.9203 33.9182 51.675 33.8312 51.4509 33.7784C51.2557 33.7283 50.9762 33.6175 50.781 33.5358C50.0373 33.2246 49.2831 32.7789 48.7293 32.2356C48.4365 31.9482 48.1649 31.6423 47.9091 31.3073C47.8273 31.2018 47.772 31.0858 47.6928 30.9539C47.3315 30.3632 46.9597 29.5799 46.7645 28.7941C46.7171 28.6147 46.7171 28.3985 46.6775 28.1532C46.6459 27.9475 46.5325 27.602 46.5034 27.3594C46.4823 27.1959 46.5193 27.0271 46.5034 26.853C46.4217 25.9036 46.398 24.8646 46.6775 24.0734V23.8756C47.0757 22.3355 47.8511 21.1751 48.8374 20.2362C48.8638 20.2099 48.9139 20.2125 48.9666 20.2125C49.2303 19.8407 49.7235 19.7062 50.0479 19.4002C50.4883 19.2631 50.8549 19.0469 51.2795 18.8939C51.5406 18.9335 51.7041 18.7752 51.9045 18.7383C51.9757 18.7251 52.0522 18.7515 52.1234 18.7383C52.2183 18.7198 52.2974 18.6645 52.4029 18.6486C52.5506 18.6302 52.7405 18.6908 52.8565 18.6064" fill="#D32B28"/>
    <path fill-rule="evenodd" clip-rule="evenodd" d="M128.753 22.467C129.46 22.5673 130.04 22.4301 130.501 22.6886C130.992 22.9655 131.359 23.5008 131.192 24.3843C131.145 24.6454 130.937 24.9355 130.739 25.0911C130.541 25.2467 130.267 25.3126 130.027 25.4234C129.602 25.4445 129.085 25.3733 128.729 25.4656C128.69 27.0822 128.708 28.9441 128.708 30.6688C128.708 31.2595 128.779 31.8767 128.708 32.3883C128.65 32.8182 128.426 33.1425 128.212 33.4485C128.001 33.5803 127.796 33.7148 127.543 33.7992C127.041 33.8256 126.59 33.7992 126.29 33.6225C125.897 33.2981 125.604 32.863 125.533 32.2327C125.472 31.7079 125.533 31.104 125.533 30.5159C125.533 28.8729 125.549 27.0242 125.512 25.4418C124.895 25.4049 124.27 25.3495 123.932 25.0014C123.463 24.5162 123.463 23.3162 123.998 22.8626C124.351 22.5963 124.853 22.4855 125.467 22.4881C125.636 21.6891 125.467 20.8952 125.533 20.2386C125.573 19.8272 125.739 19.3999 125.965 19.1362C126.163 18.9068 126.538 18.7037 126.939 18.651C127.635 18.5666 128.207 18.949 128.45 19.3366C128.922 20.0883 128.59 21.3647 128.753 22.467Z" fill="#D32B28"/>
    <path fill-rule="evenodd" clip-rule="evenodd" d="M172.955 24.582C174.849 24.6559 177.048 24.6559 178.96 24.582C179.103 23.1342 178.884 21.3119 179.09 19.9299C179.324 19.3603 179.675 18.912 180.3 18.7406C181.35 18.6166 181.83 19.0755 182.178 19.6662C182.41 20.2306 182.349 20.9954 182.349 21.8472V30.8639C182.349 31.365 182.415 31.9162 182.349 32.3645C182.315 32.6097 182.199 32.884 182.093 33.0713C181.909 33.3904 181.656 33.6198 181.337 33.7991C181.228 33.7912 181.144 33.807 181.099 33.8651C180.788 33.8651 180.561 33.9046 180.321 33.8651C178.267 33.5301 179.248 29.8802 178.984 27.6702C177.022 27.6333 174.915 27.6333 172.955 27.6702C172.871 28.0157 172.911 28.4297 172.911 28.8596C172.911 30.0147 173.008 31.5707 172.845 32.5412C172.766 33.0132 172.526 33.3297 172.217 33.5776C172.135 33.6383 172.038 33.7438 171.959 33.778C171.289 34.0576 170.326 33.815 169.949 33.2954C169.83 33.0053 169.646 32.739 169.603 32.412C169.543 31.961 169.609 31.4283 169.603 30.8903C169.58 27.9629 169.603 24.6137 169.603 21.6521C169.603 21.1352 169.543 20.6024 169.603 20.1541C169.667 19.6979 169.965 19.2074 170.294 18.9858C170.466 18.8671 170.687 18.8355 170.856 18.7406C171.117 18.7643 171.378 18.7063 171.589 18.7406C171.653 18.7511 171.679 18.8012 171.761 18.8302C171.816 18.8461 171.903 18.8302 171.956 18.8513C172.336 18.9964 172.555 19.3524 172.713 19.7348C172.763 19.8535 172.842 19.9537 172.866 20.0644C172.929 20.3915 172.882 20.7976 172.887 21.2116C172.895 21.9501 172.908 22.7571 172.908 23.5245C172.908 23.9043 172.868 24.2656 172.953 24.5847" fill="#D32B28"/>
    <path fill-rule="evenodd" clip-rule="evenodd" d="M69.7716 29.9408C69.732 30.0305 69.6582 30.0885 69.6872 30.2467C69.6107 30.2968 69.6345 30.4419 69.5369 30.4683C69.4709 30.935 69.1993 31.1961 69.0384 31.5706C68.9936 31.6576 68.8591 31.6497 68.8881 31.8132C68.7378 31.9108 68.627 32.0479 68.5426 32.2115C67.973 32.7125 67.3796 33.24 66.5964 33.5327C66.3406 33.6276 66.0584 33.6646 65.7946 33.7991C65.3463 33.8386 64.6 33.9283 64.091 33.865C62.4243 33.6672 61.2507 32.6967 60.4173 31.7262C60.2776 31.4177 60.093 31.1566 59.9215 30.8876C59.9084 30.6291 59.7739 30.4946 59.6842 30.3127C59.7264 30.1201 59.5708 29.9645 59.5339 29.7826C59.5128 29.6797 59.5339 29.5584 59.5101 29.4529C59.3994 28.9624 59.2781 28.187 59.3598 27.4908C59.4126 27.0346 59.5418 26.6205 59.5998 26.2118C59.6947 26.0324 59.7 25.861 59.7712 25.6843C59.9031 25.3415 60.1088 24.9591 60.3092 24.6479C60.7549 23.9464 61.4063 23.3135 62.1685 22.9258C62.3715 22.8229 62.5007 22.7438 62.7513 22.6621C62.899 22.6146 62.957 22.5592 63.1601 22.5091C63.2972 22.4748 63.4264 22.3799 63.5504 22.3535C64.2018 22.2243 64.956 22.1953 65.6892 22.3324C65.8289 22.3614 65.9634 22.4405 66.119 22.488C66.272 22.5328 66.4487 22.546 66.5964 22.5961C66.7757 22.6594 66.9972 22.8282 67.2003 22.9284C67.3954 23.0234 67.4798 23.0682 67.6539 23.1948C68.3739 23.7117 68.9962 24.3868 69.4024 25.265C69.4762 25.4259 69.5263 25.5182 69.5975 25.7081C69.6424 25.832 69.645 25.89 69.6819 26.0588C69.7294 26.2909 69.8744 26.5757 69.9193 26.8552C70.0881 27.8917 69.9588 28.9413 69.769 29.9408M63.7851 25.4417C62.9253 26.0456 62.3531 27.2245 62.5535 28.7488C62.5772 28.9387 62.6722 29.1206 62.7249 29.2789C62.8673 29.6876 63.0361 29.9408 63.2444 30.1808C63.4317 30.3997 63.6031 30.5131 63.8062 30.6871C64.1938 30.7953 64.5341 30.9271 64.9085 30.8665C65.1644 30.8216 65.4808 30.666 65.6443 30.5579C66.1744 30.2019 66.6227 29.5426 66.7467 28.8595C66.7599 28.7804 66.8232 28.7092 66.8337 28.638C66.8917 28.2292 66.8073 27.889 66.8337 27.4908C66.839 27.3959 66.752 27.3959 66.7467 27.3141V27.1163C66.3722 26.1089 65.8078 25.2966 64.4787 25.2624C64.4655 25.2624 64.4523 25.265 64.4549 25.2861C64.2176 25.3257 64.033 25.4127 63.7851 25.4391" fill="#D32B28"/>
    <path fill-rule="evenodd" clip-rule="evenodd" d="M95.048 23.3929C95.3909 23.1951 95.6467 22.876 96.0001 22.6439C96.1821 22.52 96.4089 22.4883 96.5829 22.3327C97.1077 22.2035 97.7644 22.2747 98.1389 22.5331C98.1784 22.5622 98.218 22.6281 98.2681 22.6676C98.6953 22.9815 99.0408 23.7384 98.7428 24.4741C98.6637 24.6719 98.5002 24.759 98.4184 24.9357C98.1283 25.0148 97.9648 25.2258 97.6404 25.2679C97.44 25.4288 97.0787 25.4288 96.8862 25.5976C96.306 25.7426 95.8788 26.0407 95.4384 26.3281C95.3882 26.4547 95.3276 26.5655 95.2221 26.6367C94.9637 27.3434 95.0507 28.5276 95.0507 29.6563C95.0507 31.0408 95.2326 32.5309 94.663 33.2693C94.4626 33.5277 94.1857 33.657 93.885 33.802C92.8591 33.9391 92.2157 33.5014 91.9598 32.7207C91.7779 32.1564 91.8755 31.112 91.8755 30.2497V25.9273C91.8755 24.8829 91.7911 23.8227 92.0469 23.1054C92.2473 22.8364 92.4398 22.6808 92.78 22.5094C92.9013 22.4487 93.0121 22.3485 93.1255 22.3301C93.6582 22.2562 94.2173 22.4567 94.5311 22.7309C94.7553 22.9235 94.8265 23.232 95.0507 23.3902" fill="#D32B28"/>
    <path fill-rule="evenodd" clip-rule="evenodd" d="M103.605 30.6867C103.932 30.7896 104.169 30.9742 104.512 31.019C105.933 31.2142 106.943 30.4652 107.885 30.0459C108.721 29.8349 109.515 30.4546 109.612 31.106C109.705 31.7179 109.32 32.3244 108.942 32.6066C108.9 32.6356 108.834 32.6383 108.792 32.6725C108.755 32.7016 108.747 32.7543 108.705 32.7833C108.615 32.844 108.484 32.8967 108.381 32.96C107.922 33.2395 107.423 33.4347 106.912 33.6193C106.139 33.8013 105.118 33.9569 104.103 33.8619C103.483 33.8039 102.771 33.5824 102.265 33.3556C101.653 33.0787 101.107 32.6857 100.646 32.2321C100.324 31.9157 100.1 31.5834 99.8466 31.1746C99.6857 30.9188 99.5908 30.6762 99.4352 30.3808C99.2084 29.5923 99.1108 29.0859 99.1108 28.0653C99.1108 27.7541 99.0818 27.4324 99.1108 27.1607C99.1556 26.7704 99.3218 26.2694 99.4589 25.8843C99.6092 25.4545 99.8149 25.1116 100.042 24.7582C100.097 24.6738 100.105 24.5604 100.15 24.4919C100.2 24.418 100.311 24.36 100.387 24.273C100.588 24.0435 100.78 23.793 101.015 23.5873C101.242 23.3921 101.505 23.1891 101.772 23.015C102.001 22.8673 102.252 22.7777 102.55 22.6616C102.719 22.5931 102.874 22.4823 103.024 22.4401C103.671 22.2555 104.665 22.2054 105.424 22.3293C105.849 22.4032 106.144 22.4849 106.503 22.6194C106.883 22.7618 107.265 23.0071 107.582 23.2365C108.077 23.5899 108.536 24.0224 108.9 24.6237C109.114 24.9771 109.375 25.3516 109.507 25.8131C109.523 25.8738 109.509 25.9529 109.528 26.0109C109.586 26.2351 109.736 26.417 109.678 26.6518C109.765 26.8416 109.81 27.2768 109.81 27.6433C109.81 28.4081 109.565 29.0094 108.882 29.1202C108.578 29.1677 108.336 29.1598 107.996 29.1439C106.69 29.0806 105.277 29.1439 103.847 29.1439C103.497 29.1439 102.647 29.0806 102.571 29.231C102.5 29.3734 102.885 29.9193 102.982 30.0459C103.169 30.2911 103.394 30.4546 103.607 30.6841M105.271 25.0219C104.765 24.8426 103.95 24.927 103.586 25.1538C103.489 25.2145 103.388 25.349 103.286 25.4413C103.061 25.6364 102.988 25.6971 102.853 25.9265C102.684 26.2087 102.523 26.5463 102.463 26.897C103.433 26.9761 104.62 26.9392 105.641 26.9392C105.989 26.9392 106.353 26.992 106.656 26.8759C106.445 26.1058 106.018 25.2857 105.274 25.0246" fill="#D32B28"/>
    <path fill-rule="evenodd" clip-rule="evenodd" d="M118.79 23.4134C118.988 23.2841 119.062 23.031 119.199 22.8411C119.566 22.4982 120.032 22.2319 120.692 22.3558C121.346 22.4798 121.791 23.0125 121.965 23.59V31.2881C121.965 31.66 122.013 32.0397 121.965 32.3667C121.894 32.852 121.496 33.4691 121.058 33.6906C120.824 33.8093 120.322 33.87 119.935 33.8014C119.518 33.7276 119.299 33.3874 119.028 33.1184C118.993 32.9047 118.883 32.765 118.766 32.6305C118.64 32.6647 118.614 32.7992 118.553 32.8968C118.073 33.2423 117.738 33.6089 117.171 33.7803C116.68 33.9253 116.034 33.9227 115.528 33.8673C114.737 33.7856 114.012 33.3979 113.455 33.0287C113.35 32.9601 113.231 32.8388 113.11 32.7412C112.471 32.227 111.904 31.4305 111.575 30.584C111.467 30.3071 111.374 30.0855 111.316 29.7664C111.298 29.6662 111.324 29.5607 111.295 29.4579C111.058 28.6166 111.142 27.2716 111.316 26.4172C111.467 25.6735 111.944 24.6977 112.376 24.2098C112.746 23.7958 113.091 23.4107 113.542 23.0863C113.983 22.7725 114.521 22.5483 115.077 22.3347C115.449 22.3084 116.098 22.2292 116.588 22.2714C117.577 22.3611 118.184 22.9677 118.793 23.416M117.108 25.357C116.744 25.2779 116.222 25.2357 115.897 25.357C115.589 25.473 115.364 25.597 115.185 25.779C115.051 25.9134 114.974 26.0189 114.882 26.1745C114.739 26.4092 114.618 26.6677 114.492 26.9024C114.439 27.3824 114.27 27.8307 114.341 28.4241C114.368 28.6509 114.47 28.9278 114.492 29.0887C114.536 29.3893 114.671 29.6267 114.774 29.8113C114.808 29.8746 114.811 29.9642 114.837 30.0117C115.043 30.3704 115.502 30.6578 115.873 30.7791C116.327 30.9295 116.799 30.8398 117.279 30.7158C117.738 30.46 118.076 30.0855 118.381 29.6794C118.432 29.3471 118.653 29.0122 118.706 28.6192C118.777 28.105 118.661 27.6171 118.619 27.1424C118.527 26.7574 118.321 26.4884 118.207 26.1271C117.865 25.8211 117.601 25.4651 117.105 25.357" fill="#D32B28"/>
    <path fill-rule="evenodd" clip-rule="evenodd" d="M143.14 22.2913C144.171 22.1516 145.113 22.3705 145.82 22.7107C146.447 23.0113 146.98 23.304 147.439 23.7919C147.755 24.1269 147.959 24.4064 148.196 24.8046C148.28 24.947 148.341 25.0446 148.433 25.2213C148.562 25.4613 148.684 25.7804 148.781 26.1048C148.868 26.4001 148.979 26.8696 149.019 27.2282C149.137 28.2805 148.977 29.433 148.694 30.3138C148.663 30.4114 148.573 30.4984 148.541 30.6012C148.52 30.6672 148.547 30.7357 148.52 30.7964C148.481 30.8993 148.388 30.9942 148.325 31.1076C147.837 31.9911 147.204 32.7268 146.294 33.2016C146.057 33.3281 145.886 33.4178 145.625 33.5338C145.506 33.5866 145.469 33.5892 145.3 33.6209C145.142 33.6525 144.984 33.7712 144.847 33.7976C144.422 33.8793 143.647 33.9268 143.119 33.8635C143.053 33.8529 142.995 33.8081 142.924 33.7976C142.681 33.7554 142.55 33.7501 142.362 33.6868C142.114 33.605 141.888 33.5602 141.648 33.4468C140.635 32.9563 139.773 32.2627 139.208 31.2632C139.037 30.9573 138.823 30.5881 138.712 30.203C138.62 29.8971 138.578 29.6624 138.538 29.2985C138.525 29.1851 138.465 29.0822 138.451 28.9662C138.375 28.2884 138.438 27.5658 138.538 26.9381C138.763 25.5483 139.25 24.5541 140.073 23.7629C140.432 23.4174 140.88 23.0772 141.371 22.8372C141.524 22.7608 141.698 22.6632 141.869 22.592C142.204 22.4575 142.716 22.3441 143.146 22.2861M145.909 28.6128C146.06 27.7583 145.775 26.954 145.519 26.4502C145.422 26.2604 145.329 26.1311 145.216 26.0098C144.994 25.7698 144.586 25.4349 144.245 25.3505C143.71 25.2187 143.346 25.2978 142.861 25.4376C142.605 25.6459 142.365 25.8727 142.128 26.0995C141.859 26.7008 141.453 27.4814 141.566 28.415C141.592 28.6339 141.703 28.8871 141.716 29.1429C141.872 29.3644 141.89 29.7283 142.104 29.8892C142.13 29.9156 142.13 29.9683 142.128 30.0237C142.383 30.2426 142.592 30.5195 142.906 30.6804C143.256 30.7753 143.573 30.9309 143.984 30.8597C144.369 30.7911 144.636 30.5696 144.913 30.3744C144.973 30.3322 145.05 30.3217 145.087 30.2848C145.189 30.1872 145.192 30.0079 145.345 30C145.559 29.5253 145.814 29.1323 145.907 28.6101" fill="#D32B28"/>
    <path fill-rule="evenodd" clip-rule="evenodd" d="M154.137 23.392C154.809 22.8356 155.498 22.3925 156.558 22.2686C157.399 22.171 158.167 22.3582 158.76 22.5956C159.272 22.8039 159.646 23.0756 160.015 23.458C160.683 24.1516 160.949 25.1221 160.967 26.5462C160.978 27.3637 160.967 28.2656 160.967 29.1676C160.967 30.0695 161.02 30.9846 160.967 31.8364C160.917 32.6698 160.759 33.3634 160.081 33.6878C160.036 33.7089 159.952 33.6878 159.889 33.7089C159.823 33.7326 159.81 33.788 159.757 33.7959C159.525 33.8407 159.206 33.7643 158.958 33.7959C158.246 33.5638 157.837 33.0179 157.75 32.0975C157.674 31.3327 157.75 30.3174 157.75 29.3416C157.75 28.3658 157.858 27.311 157.726 26.6068C157.608 25.966 157.244 25.5994 156.864 25.2618C156.711 25.246 156.619 25.1643 156.495 25.1062C156.112 25.13 155.798 25.0509 155.5 25.1062C155.292 25.1458 155.039 25.3199 154.896 25.4359C154.585 25.6943 154.377 26.1005 154.248 26.4723C154.187 27.3347 154.206 28.3922 154.206 29.4471C154.206 30.6681 154.335 31.9894 154.053 32.8201C153.889 33.3001 153.496 33.5796 153.082 33.7906C151.99 33.9225 151.46 33.4873 151.136 32.8439C151.17 32.683 151.083 32.6487 151.049 32.5564C150.922 31.3248 151.001 29.6423 151.007 28.0151C151.007 26.6727 150.883 25.2856 150.983 24.1595C151.041 23.5345 151.252 23.065 151.587 22.6826C152.043 22.2659 153.032 22.2106 153.575 22.6589C153.831 22.8699 153.926 23.2048 154.134 23.3868" fill="#D32B28"/>
    <path fill-rule="evenodd" clip-rule="evenodd" d="M136.182 23.7032C136.222 25.7629 136.203 28.1021 136.203 30.2699C136.203 31.425 136.314 32.6144 135.837 33.2684C135.739 33.2842 135.702 33.3554 135.684 33.4477C135.283 33.817 134.384 33.9488 133.851 33.6429C133.571 33.4847 133.329 33.279 133.181 32.8939C133.16 32.8438 133.181 32.7673 133.16 32.6935C133.147 32.6566 133.084 32.6223 133.07 32.5854C132.907 31.9603 133.01 30.9556 133.01 30.138C133.01 28.8062 133.007 27.3004 133.01 25.9501C133.01 25.093 132.925 24.1304 133.118 23.5001C133.215 23.1731 133.392 22.8804 133.571 22.6852C133.856 22.527 134.088 22.3608 134.458 22.3292C135.425 22.2527 135.995 22.9252 136.185 23.7005" fill="#D32B28"/>
    <path fill-rule="evenodd" clip-rule="evenodd" d="M188.379 30.0086C188.616 30.2618 188.859 30.5176 189.178 30.689C189.56 30.8235 190.135 30.8367 190.518 30.689C190.974 30.4648 191.319 30.1299 191.533 29.6552C191.48 29.5339 191.578 29.4363 191.599 29.3256C191.667 28.93 191.62 28.4342 191.62 27.9595V25.1825C191.62 24.6972 191.567 24.1962 191.62 23.7953C191.681 23.3048 191.979 22.9276 192.248 22.627C192.448 22.5452 192.63 22.4398 192.83 22.3606C193.83 22.2472 194.46 22.6666 194.708 23.4182C194.856 23.8639 194.795 24.5654 194.795 25.2932V26.8597C194.795 28.2707 194.848 29.5365 194.708 30.5624C194.582 30.929 194.468 31.3008 194.297 31.6199C194.102 31.9048 193.864 32.15 193.672 32.4375C192.912 33.0862 191.855 33.7218 190.56 33.8695C189.647 33.9697 188.806 33.7957 188.054 33.6269C187.778 33.495 187.503 33.3579 187.232 33.2313C186.955 33.0994 186.731 32.9122 186.454 32.7909C186.084 32.3584 185.644 32.0023 185.372 31.467C185.322 31.3114 185.283 31.1479 185.177 31.0503C185.153 30.7127 184.985 30.2961 184.94 29.9268C184.885 29.4838 184.94 28.9247 184.94 28.3814V25.3381C184.94 24.597 184.866 23.8981 185.048 23.3971C185.066 23.3443 185.109 23.2837 185.135 23.223C185.238 22.9988 185.383 22.7562 185.586 22.6033C186.092 22.2314 187.1 22.3026 187.553 22.6718C187.611 22.7193 187.667 22.8512 187.746 22.9593C187.896 23.1624 188.068 23.4683 188.112 23.7979C188.165 24.1988 188.112 24.6893 188.112 25.1851V26.5749C188.112 27.5428 188.018 28.5476 188.134 29.3071C188.17 29.5655 188.342 29.7792 188.374 30.0139" fill="#D32B28"/>
    <path fill-rule="evenodd" clip-rule="evenodd" d="M71.9296 28.3771C71.3969 27.2589 71.9481 26.2937 73.2034 26.1935C73.8469 26.1408 74.8648 26.1302 75.6217 26.1935C75.8485 26.2093 76.1755 26.2779 76.3549 26.3702C76.8085 26.597 77.1961 27.0928 77.0696 27.913C76.9931 28.4009 76.5289 28.8677 75.925 28.9468C75.5189 29.0022 74.9255 28.9468 74.369 28.9468C73.8126 28.9468 73.2192 29.0048 72.8342 28.9468C72.3858 28.8808 72.2118 28.567 71.927 28.3745" fill="#D32B28"/>
    <path fill-rule="evenodd" clip-rule="evenodd" d="M23.8598 18.0868C24.1789 17.3246 24.4901 16.5625 24.8145 15.803C25.3367 14.5793 25.6083 13.3134 25.603 11.9684C25.6004 10.8054 25.698 9.64504 25.7323 8.47939C25.7586 7.59856 25.7903 6.71772 25.7586 5.83425C25.7323 5.06682 25.3947 4.39432 24.9358 3.79303C24.3873 3.07571 23.7253 2.51134 22.8471 2.27135C22.3592 2.13685 21.8529 2.06301 21.4125 2.38476C21.1408 2.58255 20.8692 2.8199 20.6899 3.09944C20.3233 3.68227 19.9989 4.29674 19.6904 4.91386C19.2631 5.7815 19.2526 6.72036 19.3634 7.65394C19.511 8.91189 19.6614 10.1699 19.904 11.412C20.2046 12.9548 20.5633 14.4949 20.9694 16.014C21.1778 16.7972 21.5523 17.5277 21.8371 18.2925C21.99 18.6986 22.1193 19.1127 22.23 19.5267C22.259 19.6349 22.2116 19.8116 22.1351 19.8775C22.0797 19.925 21.8872 19.8933 21.8107 19.83C21.6498 19.6929 21.4995 19.5267 21.3887 19.35C20.9984 18.7092 20.6767 18.0182 20.2389 17.417C19.4662 16.3647 18.9229 15.2492 18.7251 13.9226C18.443 12.0159 18.0553 10.1224 17.694 8.22358C17.4646 7.03683 17.2852 5.85534 17.3512 4.63958C17.4276 3.20493 18.0764 2.0762 19.1366 1.18482C20.173 0.317168 21.3782 -0.073141 22.7232 0.0112503C24.1341 0.0930044 25.2206 0.712753 25.9406 1.98917C26.9454 3.7693 27.3146 5.71821 27.4966 7.72778C27.5836 8.71938 27.6073 9.71097 27.4676 10.6999C27.2882 11.9553 26.8584 13.1235 26.207 14.2074C25.4554 15.4654 24.7248 16.7286 23.9864 17.9892C23.96 18.0341 23.931 18.071 23.902 18.1132C23.8862 18.1026 23.8704 18.0947 23.8546 18.0842" fill="#DB7A28"/>
    <path fill-rule="evenodd" clip-rule="evenodd" d="M27.5971 25.855C27.5443 25.5412 27.4784 25.2537 27.452 24.9531C27.4441 24.8924 27.5707 24.779 27.6525 24.7579C28.317 24.5681 28.9895 24.4045 29.6568 24.2173C30.3424 24.0274 31.0228 23.8164 31.7085 23.6239C32.9005 23.2916 34.082 22.9171 35.2846 22.6429C36.1997 22.4319 37.1386 22.3264 38.0721 22.2156C38.6418 22.1471 39.2246 22.1075 39.7943 22.1471C40.3876 22.1919 40.9916 22.2974 41.5612 22.4767C42.2126 22.6877 42.5264 23.26 42.6715 23.9114C42.922 25.0507 42.9721 26.1899 42.6372 27.3266C42.3049 28.458 41.6113 29.2992 40.6303 29.8979C39.309 30.7022 37.8664 30.8816 36.3579 30.7339C35.7698 30.6759 35.245 30.4781 34.7229 30.2223C33.8631 29.8056 33.0166 29.3704 32.2201 28.8272C31.4263 28.276 30.5851 27.7881 29.7253 27.3451C29.219 27.0866 28.6388 26.9732 28.0902 26.7912C27.9584 26.749 27.8292 26.7095 27.6973 26.6646C27.6973 26.6383 27.7026 26.6066 27.7052 26.5776C28.1667 26.6198 28.6309 26.6304 29.0818 26.7095C30.295 26.9231 31.3894 27.4954 32.5287 27.9305C33.9343 28.4606 35.3373 29.0039 36.8669 28.9485C38.0616 28.9063 39.1376 28.487 40.029 27.6642C40.8412 26.9125 41.0206 25.5491 40.4272 24.7342C40.0422 24.2068 39.4567 24.0353 38.866 23.8797C38.3992 23.7584 37.9667 23.9193 37.5262 23.9984C36.3263 24.2147 35.1316 24.4467 33.937 24.6762C32.8979 24.8766 31.8588 25.077 30.8198 25.2775C29.7913 25.4753 28.7601 25.6678 27.7263 25.8629C27.6815 25.8708 27.6314 25.8577 27.5944 25.855" fill="#D12A29"/>
    <path fill-rule="evenodd" clip-rule="evenodd" d="M21.3993 31.4459C21.1963 32.87 21.0169 34.2967 20.7769 35.7129C20.5923 36.8153 20.3312 37.9098 20.1097 39.0042C19.8697 40.1804 19.6403 41.3592 19.4056 42.5328C19.3502 42.7992 19.308 43.0682 19.2368 43.3293C18.9256 44.4211 19.8302 46.0377 21.3202 46.1221C22.0692 46.1695 22.805 46.1485 23.5144 45.8373C24.3293 45.4812 24.8488 44.8615 25.1125 44.0044C25.4633 42.8572 25.3868 41.7021 25.1574 40.5496C24.9095 39.2864 24.5482 38.0601 24.0629 36.8707C23.6542 35.8791 23.2375 34.8849 22.7839 33.9091C22.5993 33.5135 22.3197 33.1575 22.056 32.8041C21.8872 32.5826 21.8608 32.3716 21.9874 32.1342C22.1008 31.9206 22.2169 31.7096 22.3382 31.5013C22.4252 31.3536 22.5597 31.3272 22.6441 31.4749C22.8551 31.8362 23.1373 32.1896 23.219 32.5826C23.5117 34.0251 24.1183 35.3042 24.9148 36.5173C25.4686 37.3533 26.0303 38.1867 26.381 39.1493C26.8979 40.5654 26.985 42.0001 26.7529 43.4796C26.592 44.5134 26.2861 45.4839 25.7349 46.3647C25.0413 47.4803 24.0471 48.0578 22.7469 47.9972C21.7369 47.9497 20.7242 47.8943 19.722 47.7677C19.0416 47.678 18.3481 47.5145 17.8206 47.0029C17.1165 46.3225 17.0163 45.439 17.0743 44.5134C17.1349 43.5086 17.5147 42.6093 17.9973 41.7548C18.7199 40.4731 19.2052 39.0965 19.606 37.6882C20.1836 35.6602 20.7479 33.6243 21.3202 31.5936C21.336 31.5356 21.365 31.4802 21.3835 31.4248C21.3888 31.4301 21.3967 31.438 21.402 31.4433" fill="#197EB8"/>
    <path fill-rule="evenodd" clip-rule="evenodd" d="M24.2966 20.7967C24.4575 20.9549 24.6315 21.1026 24.7792 21.274C25.1774 21.7329 25.5836 22.1944 25.9528 22.6823C26.4749 23.3627 26.6912 24.1618 26.7123 25.0268C26.736 25.992 26.6226 26.9203 26.1479 27.7801C25.7866 28.4368 25.2776 28.9194 24.6632 29.3097C23.5292 30.0244 22.2791 30.3382 20.9684 30.441C20.4726 30.478 19.9768 30.5017 19.481 30.4727C18.3127 30.4173 17.6297 29.6736 17.2183 28.6477C16.6143 27.1392 16.4693 25.5464 16.6038 23.9324C16.6776 23.0331 17.1893 22.3659 17.9303 21.8859C19.2331 21.0393 20.6783 20.7044 22.1974 20.6464C22.4083 20.6411 22.6589 20.7888 22.825 20.9391C23.0861 21.1765 23.2971 21.4771 23.5186 21.7619C23.6584 21.9413 23.6188 22.0705 23.3788 22.1232C22.4321 22.3395 21.48 22.5452 20.5412 22.7878C19.5786 23.041 18.6978 23.4946 18.2653 24.4624C17.8459 25.3934 17.8618 26.2742 18.6898 27.1076C19.2437 27.6667 19.8581 28.1203 20.6018 28.3893C21.6831 28.7822 22.614 28.4948 23.4184 27.7326C23.9775 27.2025 24.497 26.6223 24.7212 25.8575C24.8082 25.5569 24.8425 25.2114 24.7977 24.9029C24.6684 24.0115 24.4786 23.1333 24.3335 22.2419C24.2597 21.7804 24.2386 21.3083 24.1937 20.8415C24.228 20.8284 24.2623 20.8152 24.2992 20.7967" fill="#0B8947"/>
    <path fill-rule="evenodd" clip-rule="evenodd" d="M6.70867 13.1387C6.64538 12.5269 6.84054 11.9731 7.12799 11.4773C7.27304 11.2267 7.59214 11.0553 7.86378 10.9129C8.57319 10.5437 9.3459 10.4329 10.1318 10.4276C10.6935 10.4224 11.221 10.5569 11.7009 10.8681C12.2073 11.1951 12.7637 11.4588 13.2253 11.8359C14.1061 12.5585 14.8261 13.4394 15.3377 14.4784C15.9838 15.7891 16.593 17.1183 17.2444 18.4237C17.5081 18.9512 17.8483 19.439 18.1463 19.9533C18.1885 20.0245 18.1727 20.1274 18.1806 20.217C18.1147 20.1748 18.0303 20.1485 17.9855 20.0904C17.4 19.3441 16.8119 18.5951 16.237 17.8409C15.575 16.968 14.9421 16.0687 14.0903 15.3645C13.6921 15.0401 13.2754 14.7342 12.8666 14.423C12.3708 14.0433 11.8671 13.6688 11.3687 13.289C10.7647 12.8275 10.0131 13.1176 9.59116 13.471C8.99515 13.9668 8.93449 14.6261 9.22459 15.383C9.66237 16.5249 10.4694 17.3688 11.2974 18.1837C11.9383 18.814 12.7295 19.2571 13.5707 19.5735C14.7918 20.0298 16.0286 20.4544 17.2549 20.9027C17.3683 20.9449 17.4554 21.0662 17.5582 21.1427C17.458 21.2587 17.3842 21.4222 17.2629 21.4776C16.7591 21.715 16.2185 21.6886 15.728 21.4829C14.5993 21.0082 13.4811 20.4992 12.3734 19.9691C11.6772 19.6342 10.9942 19.2623 10.3349 18.8589C9.92082 18.603 9.55688 18.2655 9.18503 17.9464C8.87384 17.6853 8.59957 17.3846 8.28574 17.1288C7.45765 16.4563 7.10426 15.5175 6.88273 14.5153C6.78252 14.0644 6.76669 13.5923 6.71395 13.1334" fill="#EEBD1C"/>
    <path fill-rule="evenodd" clip-rule="evenodd" d="M15.0951 24.9096C15.0107 24.9202 14.9184 24.9571 14.8367 24.9439C13.8134 24.8041 12.7823 24.7065 11.7749 24.5035C10.0554 24.1606 8.3491 23.765 6.58479 23.7123C5.39541 23.6754 4.3115 24.0129 3.24343 24.4586C2.67115 24.6986 2.11733 24.9861 1.5556 25.2551C1.48703 25.2894 1.42901 25.3527 1.36836 25.4028C0.885745 25.7852 0.925304 26.157 1.54242 26.4919C2.01184 26.753 2.55247 26.9324 3.07992 27.0194C4.98927 27.349 6.91972 27.5099 8.85545 27.5758C9.88924 27.6101 10.9283 27.6075 11.9331 27.3385C12.7928 27.109 13.6288 26.7873 14.3699 26.2519C14.6099 26.0779 14.871 25.9302 15.14 25.8115C15.3641 25.7113 15.6437 25.888 15.7861 26.1676C15.8889 26.3733 15.8336 26.5579 15.6674 26.6818C15.3958 26.8902 15.111 27.0748 14.8209 27.2594C14.4332 27.4994 14.0376 27.7314 13.6473 27.9714C12.8377 28.462 11.9489 28.6835 11.0232 28.7995C10.0976 28.9103 9.17455 29.0421 8.24889 29.1714C7.25465 29.3111 6.29206 29.0685 5.32156 28.9208C4.50666 28.7995 3.69967 28.6439 2.88476 28.5068C1.92218 28.3406 1.14156 27.8607 0.569278 27.0537C0.382035 26.7926 0.21589 26.4946 0.113038 26.186C-0.187606 25.2814 0.118312 24.6432 0.949039 24.0367C1.80878 23.409 2.76081 22.9686 3.7656 22.631C4.9207 22.246 6.09691 22.1669 7.29157 22.362C7.89813 22.4623 8.50997 22.5493 9.09807 22.7233C10.2374 23.0583 11.3608 23.438 12.4869 23.8178C13.2095 24.0631 13.9242 24.332 14.6389 24.5958C14.8024 24.6564 14.958 24.7435 15.1162 24.8147C15.1083 24.8437 15.1004 24.8753 15.0951 24.9043" fill="#85BA41"/>
    <path fill-rule="evenodd" clip-rule="evenodd" d="M27.6567 22.2355C28.0153 22.0693 28.374 21.9111 28.7326 21.7423C29.6056 21.3283 30.4679 20.8931 31.3488 20.4975C31.9843 20.218 32.6489 20.0149 33.2898 19.7486C34.8906 19.084 36.3094 18.2031 36.9423 16.4257C37.0953 15.9984 37.2825 15.587 37.4487 15.1651C37.8865 14.0574 37.5621 13.1344 36.5019 12.6175C36.0325 12.3907 35.5261 12.2298 35.0224 12.09C34.6268 11.9819 34.2655 12.185 33.9359 12.3881C32.9733 12.9814 32.1769 13.7884 31.3382 14.5427C30.0618 15.6899 29.4157 17.2379 28.7247 18.757C28.2922 19.7064 27.8017 20.6109 27.1028 21.3863C26.7626 21.7634 26.3301 21.7449 26.0321 21.3335C25.982 21.265 26.0084 21.1015 26.0532 21.0092C26.5437 20.007 27.0184 18.9969 27.5512 18.0185C28.2368 16.7448 28.9463 15.4789 29.6926 14.242C30.2596 13.3032 30.9321 12.4434 31.9131 11.8949C32.8072 11.3938 33.7539 11.08 34.7666 11.0378C35.4655 11.0061 36.1749 11.0299 36.8738 11.1064C37.7836 11.1987 38.3111 11.7947 38.4983 12.6729C38.7726 13.9704 38.7383 15.2626 38.3849 16.5496C38.05 17.768 37.3142 18.6726 36.3516 19.4215C35.5789 20.0202 34.677 20.3235 33.7539 20.5793C31.8367 21.1094 29.9273 21.6553 28.0153 22.1933C27.9019 22.2249 27.7885 22.2513 27.6778 22.2856C27.6725 22.2724 27.6672 22.2539 27.6619 22.2407" fill="#CC1A70"/>
    <path fill-rule="evenodd" clip-rule="evenodd" d="M25.8538 30.947C26.099 31.1422 26.3522 31.3294 26.5843 31.5378C27.7341 32.5689 28.6809 33.7821 29.6224 34.9978C30.5058 36.1318 31.4025 37.2553 32.3466 38.3339C32.9162 38.9879 33.6679 39.3466 34.5672 39.2939C35.026 39.2701 35.4216 39.075 35.746 38.7796C36.0967 38.4579 36.4132 38.0887 36.6954 37.6983C37.0198 37.2553 36.9591 36.8228 36.5635 36.3534C35.9833 35.6545 35.2502 35.1534 34.517 34.6523C32.9532 33.5843 31.2073 32.8775 29.5696 31.9518C28.6466 31.4297 27.7235 30.9154 27.0326 30.0794C26.7557 29.7418 26.5183 29.3779 26.2441 28.9955C26.3786 28.9269 26.4366 28.8953 26.4972 28.8715C27.1012 28.6263 27.1223 28.6184 27.3622 29.2223C27.5996 29.8183 28.011 30.1981 28.5886 30.4117C29.8122 30.8653 31.0385 31.3163 32.2649 31.7567C33.7101 32.2788 35.1658 32.772 36.4844 33.5922C37.3653 34.1407 37.9876 34.9055 38.3674 35.8734C38.5942 36.4457 38.523 37.0232 38.3041 37.5797C37.869 38.6847 37.1859 39.6051 36.2339 40.2987C35.6774 40.7021 35.0709 40.7575 34.4327 40.4991C32.6077 39.758 30.9858 38.7084 29.6672 37.2184C29.3692 36.8782 29.1503 36.4536 28.9525 36.0369C28.6228 35.3459 28.3486 34.626 28.0427 33.9245C27.6471 33.0067 27.0458 32.2472 26.3601 31.5483C26.1781 31.3637 25.9909 31.1844 25.8089 31.0024C25.8247 30.984 25.8406 30.9629 25.859 30.9444" fill="#2C2C6B"/>
    <path fill-rule="evenodd" clip-rule="evenodd" d="M18.1657 31.0137C18.0444 31.375 17.9469 31.7469 17.7965 32.095C17.4036 33.0048 17.1188 33.9463 16.8524 34.8984C16.586 35.8451 16.1878 36.755 15.8344 37.678C15.7184 37.9786 15.5865 38.2714 15.4204 38.5483C15.038 39.1839 14.3708 39.3869 13.7378 39.6058C12.435 40.0568 11.156 39.9065 9.97715 39.2234C9.14642 38.7434 8.69546 37.9391 8.66645 36.9501C8.64535 36.2302 8.6348 35.5049 8.74029 34.7981C8.89325 33.7644 9.26774 32.807 10.1327 32.1425C10.6417 31.7521 11.2193 31.528 11.8417 31.4172C12.9177 31.2326 13.991 31.0559 15.067 30.8634C15.2595 30.8265 15.4468 30.7474 15.6261 30.6682C15.9505 30.5258 16.2669 30.365 16.5887 30.2173C16.6019 30.2489 16.6177 30.2753 16.6335 30.3043C15.547 30.9452 14.4631 31.5966 13.366 32.2189C12.8412 32.5196 12.2715 32.7437 11.7546 33.0576C11.0874 33.4584 10.4703 33.9305 10.0536 34.6241C9.74244 35.1436 9.77145 35.6737 10.0273 36.2143C10.4017 36.9976 10.9793 37.6015 11.6597 38.0921C11.876 38.2476 12.2241 38.2767 12.5063 38.2661C13.5321 38.2213 14.2257 37.6437 14.7664 36.7734C15.278 35.9401 15.5417 35.0039 15.9531 34.1336C16.354 33.2923 16.7997 32.4668 17.277 31.6625C17.4537 31.3671 17.7754 31.1614 18.0312 30.9161C18.0761 30.9478 18.1209 30.9821 18.1684 31.0111" fill="#0B8947"/>
</svg>
