<svg width="1425" height="308" viewBox="0 0 1425 308" fill="none" xmlns="http://www.w3.org/2000/svg">
<path d="M1392.51 109.677C1399.32 109.677 1404.9 110.621 1409.25 112.51C1413.64 114.399 1416.89 117.123 1419 120.682C1421.11 124.196 1422.16 128.348 1422.16 133.137C1422.16 137.925 1421.22 142.011 1419.33 145.394C1417.44 148.733 1415.04 151.325 1412.15 153.17C1409.25 154.971 1406.3 155.982 1403.31 156.202C1406.43 156.289 1409.64 157.102 1412.94 158.64C1416.23 160.134 1419 162.572 1421.24 165.955C1423.48 169.294 1424.6 173.753 1424.6 179.332C1424.6 184.604 1423.52 189.327 1421.37 193.501C1419.26 197.63 1415.86 200.903 1411.16 203.32C1406.46 205.692 1400.17 206.878 1392.31 206.878H1354.09V109.677H1392.51ZM1373.66 154.686L1366.87 148.953H1386.25C1391.43 148.953 1395.32 147.854 1397.91 145.658C1400.5 143.417 1401.8 140.408 1401.8 136.629C1401.8 134.081 1401.25 131.994 1400.15 130.369C1399.05 128.7 1397.43 127.469 1395.28 126.679C1393.12 125.888 1390.46 125.492 1387.3 125.492H1364.43L1373.66 115.739V154.686ZM1388.36 190.997C1393.36 190.997 1397.16 189.854 1399.76 187.57C1402.39 185.241 1403.71 182.1 1403.71 178.146C1403.71 175.906 1403.31 173.951 1402.52 172.281C1401.78 170.612 1400.7 169.228 1399.29 168.129C1397.89 166.987 1396.18 166.13 1394.15 165.559C1392.18 164.944 1389.98 164.637 1387.56 164.637H1366.87L1373.66 158.969V200.75L1364.43 190.997H1388.36Z" fill="#D12310"/>
<path d="M1337.91 171.754C1337.91 184.055 1334.66 193.259 1328.15 199.366C1321.65 205.429 1312.75 208.46 1301.46 208.46C1290.13 208.46 1281.21 205.429 1274.71 199.366C1268.25 193.259 1265.02 184.055 1265.02 171.754C1265.02 170.084 1265.02 168.305 1265.02 166.416C1265.02 164.527 1265.02 162.55 1265.02 160.485V109.677H1285.52V163.385C1285.52 165.054 1285.52 166.614 1285.52 168.063C1285.52 169.513 1285.52 170.853 1285.52 172.083C1285.52 178.937 1286.77 183.989 1289.27 187.24C1291.78 190.447 1295.84 192.051 1301.46 192.051C1307.04 192.051 1311.11 190.447 1313.66 187.24C1316.2 183.989 1317.48 178.937 1317.48 172.083V109.677H1337.91V171.754Z" fill="#D12310"/>
<path d="M1248.92 109.677V206.878H1228.42V160.221L1237.65 166.416H1184.01L1193.23 160.485V206.878H1172.74V109.677H1193.23V156.663L1184.01 150.534H1237.65L1228.42 156.663V109.677H1248.92Z" fill="#D12310"/>
<path d="M1104.06 206.878V177.157C1104.06 175.488 1104.06 173.972 1104.06 172.61C1104.06 171.248 1104.06 170.018 1104.06 168.92C1104.06 166.02 1103.69 163.384 1102.94 161.012C1102.2 158.596 1100.86 156.663 1098.92 155.213C1096.99 153.763 1094.2 153.038 1090.55 153.038C1087.39 153.038 1084.65 153.763 1082.32 155.213C1080.03 156.663 1078.28 158.683 1077.05 161.276C1075.82 163.868 1075.2 166.855 1075.2 170.238L1069.53 166.152C1069.53 160.089 1070.85 154.773 1073.49 150.204C1076.12 145.635 1079.68 142.055 1084.16 139.463C1088.69 136.871 1093.7 135.575 1099.19 135.575C1104.94 135.575 1109.67 136.739 1113.36 139.067C1117.09 141.352 1119.86 144.559 1121.66 148.689C1123.5 152.774 1124.43 157.563 1124.43 163.055C1124.43 165.295 1124.43 167.8 1124.43 170.567C1124.43 173.335 1124.43 176.169 1124.43 179.068V206.878H1104.06ZM1054.77 206.878V136.893H1075.2V206.878H1054.77Z" fill="#D12310"/>
<path d="M1003.72 208.394C996.167 208.394 989.511 206.834 983.756 203.715C978 200.596 973.497 196.312 970.246 190.864C967.039 185.373 965.436 179.046 965.436 171.885C965.436 164.768 967.039 158.486 970.246 153.038C973.497 147.546 978 143.285 983.756 140.254C989.511 137.178 996.167 135.641 1003.72 135.641C1011.28 135.641 1017.94 137.178 1023.69 140.254C1029.45 143.285 1033.93 147.546 1037.13 153.038C1040.39 158.486 1042.01 164.768 1042.01 171.885C1042.01 179.046 1040.39 185.373 1037.13 190.864C1033.93 196.312 1029.45 200.596 1023.69 203.715C1017.94 206.834 1011.28 208.394 1003.72 208.394ZM1003.72 192.182C1007.28 192.182 1010.38 191.348 1013.02 189.678C1015.65 188.009 1017.69 185.658 1019.14 182.627C1020.59 179.552 1021.32 175.971 1021.32 171.885C1021.32 167.8 1020.59 164.263 1019.14 161.276C1017.69 158.244 1015.65 155.916 1013.02 154.29C1010.38 152.665 1007.28 151.852 1003.72 151.852C1000.21 151.852 997.111 152.665 994.431 154.29C991.795 155.916 989.752 158.244 988.303 161.276C986.853 164.263 986.128 167.8 986.128 171.885C986.128 175.971 986.853 179.552 988.303 182.627C989.752 185.658 991.795 188.009 994.431 189.678C997.111 191.348 1000.21 192.182 1003.72 192.182Z" fill="#D12310"/>
<path d="M933.379 206.878V136.893H953.611V206.878H933.379ZM943.462 125.492C940.299 125.492 937.531 124.658 935.159 122.988C932.83 121.319 931.666 118.968 931.666 115.937C931.666 112.862 932.83 110.489 935.159 108.82C937.531 107.15 940.299 106.316 943.462 106.316C946.669 106.316 949.437 107.15 951.765 108.82C954.138 110.489 955.324 112.862 955.324 115.937C955.324 119.012 954.138 121.385 951.765 123.054C949.437 124.68 946.669 125.492 943.462 125.492Z" fill="#D12310"/>
<path d="M905.244 208.328C902.564 208.328 899.796 208.087 896.94 207.603C894.128 207.164 891.493 206.263 889.032 204.902C886.616 203.496 884.661 201.453 883.167 198.773C881.674 196.093 880.927 192.556 880.927 188.163C880.927 187.197 880.927 186.208 880.927 185.198C880.927 184.187 880.927 183.177 880.927 182.166V152.709H864.781V136.893H869.328C871.964 136.893 874.051 136.783 875.589 136.564C877.17 136.344 878.335 135.795 879.081 134.916C879.872 133.994 880.377 132.566 880.597 130.633C880.817 128.7 880.927 126.042 880.927 122.659V113.828H901.421V136.893H921.784V152.709H901.421V177.883C901.421 178.674 901.421 179.442 901.421 180.189C901.421 180.936 901.421 181.661 901.421 182.364C901.421 185.395 901.773 187.856 902.476 189.745C903.223 191.634 905.046 192.578 907.945 192.578C909.395 192.578 910.757 192.447 912.031 192.183C913.349 191.919 914.338 191.656 914.997 191.392V206.747C914.074 207.142 912.778 207.494 911.109 207.801C909.439 208.153 907.484 208.328 905.244 208.328Z" fill="#D12310"/>
<path d="M813.352 208.328C808.256 208.328 803.709 207.515 799.711 205.89C795.757 204.264 792.66 201.914 790.419 198.838C788.179 195.763 787.059 192.029 787.059 187.635C787.059 182.671 788.421 178.629 791.144 175.51C793.868 172.391 797.471 170.018 801.952 168.393C806.477 166.723 811.376 165.625 816.647 165.098C824.336 164.351 829.63 163.67 832.529 163.055C835.473 162.44 836.945 161.363 836.945 159.826C836.945 159.782 836.945 159.738 836.945 159.694C836.945 157.102 835.692 155.059 833.188 153.565C830.728 152.072 827.279 151.325 822.842 151.325C818.141 151.325 814.539 152.181 812.035 153.895C809.574 155.564 808.344 158.134 808.344 161.605H788.245C788.245 155.982 789.76 151.237 792.792 147.371C795.867 143.505 800.019 140.583 805.247 138.606C810.475 136.585 816.384 135.575 822.974 135.575C829.124 135.575 834.814 136.519 840.042 138.408C845.27 140.254 849.465 143.043 852.629 146.778C855.836 150.512 857.439 155.257 857.439 161.012C857.439 161.935 857.439 162.857 857.439 163.78C857.439 164.658 857.439 165.559 857.439 166.482V191.26C857.439 193.061 857.483 194.796 857.571 196.466C857.703 198.091 857.966 199.585 858.362 200.947C858.801 202.485 859.35 203.759 860.009 204.769C860.668 205.78 861.218 206.483 861.657 206.878H841.558C841.25 206.57 840.767 205.933 840.108 204.967C839.493 204 838.965 202.88 838.526 201.606C837.999 200.068 837.604 198.531 837.34 196.993C837.12 195.411 837.01 193.566 837.01 191.458L841.228 194.357C839.998 197.257 837.999 199.761 835.231 201.87C832.507 203.934 829.256 205.538 825.478 206.68C821.744 207.779 817.702 208.328 813.352 208.328ZM818.822 193.039C822.029 193.039 825.017 192.468 827.785 191.326C830.596 190.14 832.881 188.294 834.638 185.79C836.395 183.286 837.274 180.013 837.274 175.971V168.92L842.348 173.862C839.449 174.917 836.088 175.795 832.266 176.498C828.487 177.157 824.709 177.685 820.931 178.08C816.45 178.519 813.089 179.288 810.848 180.386C808.652 181.441 807.553 183.242 807.553 185.79C807.553 188.206 808.498 190.03 810.387 191.26C812.276 192.446 815.088 193.039 818.822 193.039Z" fill="#D12310"/>
<path d="M711.622 178.014V164.505H758.015L756.038 167.931C756.038 167.58 756.038 167.25 756.038 166.943C756.038 166.591 756.038 166.262 756.038 165.954C756.038 163.45 755.445 161.056 754.259 158.771C753.073 156.443 751.228 154.554 748.723 153.104C746.263 151.61 743.1 150.863 739.234 150.863C735.368 150.863 732.029 151.698 729.217 153.368C726.449 154.993 724.319 157.344 722.825 160.419C721.375 163.494 720.65 167.206 720.65 171.556C720.65 176.037 721.353 179.881 722.759 183.088C724.209 186.251 726.339 188.69 729.151 190.403C732.007 192.117 735.543 192.973 739.761 192.973C742.485 192.973 744.835 192.732 746.812 192.248C748.789 191.721 750.393 191.062 751.623 190.271C752.897 189.481 753.864 188.602 754.523 187.635C755.182 186.669 755.577 185.724 755.709 184.802H775.874C775.61 187.745 774.6 190.645 772.843 193.5C771.085 196.312 768.647 198.86 765.528 201.145C762.408 203.385 758.608 205.165 754.127 206.483C749.69 207.801 744.616 208.46 738.904 208.46C731.172 208.46 724.428 206.922 718.673 203.847C712.918 200.727 708.459 196.444 705.296 190.996C702.132 185.505 700.551 179.178 700.551 172.017C700.551 164.768 702.154 158.42 705.361 152.972C708.612 147.481 713.116 143.219 718.871 140.188C724.67 137.112 731.37 135.575 738.97 135.575C746.746 135.575 753.468 137.134 759.135 140.254C764.803 143.329 769.174 147.656 772.249 153.236C775.325 158.771 776.862 165.229 776.862 172.61C776.862 173.709 776.84 174.763 776.797 175.773C776.753 176.784 776.687 177.531 776.599 178.014H711.622Z" fill="#D12310"/>
<path d="M644.443 206.878V136.893H664.938V161.012L660.721 158.376C661.204 155.081 662.082 152.05 663.357 149.282C664.631 146.514 666.278 144.12 668.299 142.099C670.32 140.034 672.714 138.43 675.482 137.288C678.294 136.146 681.501 135.575 685.103 135.575C687.915 135.575 690.112 135.794 691.693 136.234C693.319 136.629 694.329 136.937 694.725 137.156L691.364 155.476C690.968 155.257 690.09 154.905 688.728 154.422C687.366 153.939 685.609 153.697 683.456 153.697C679.941 153.697 676.998 154.29 674.625 155.476C672.253 156.663 670.342 158.244 668.892 160.221C667.486 162.154 666.476 164.307 665.861 166.679C665.246 169.052 664.938 171.446 664.938 173.862V206.878H644.443Z" fill="#D12310"/>
<path d="M596.167 208.46C588.479 208.46 581.735 206.922 575.936 203.847C570.137 200.727 565.634 196.4 562.426 190.864C559.263 185.329 557.682 178.937 557.682 171.688C557.682 164.351 559.263 158.003 562.426 152.643C565.634 147.239 570.137 143.043 575.936 140.056C581.735 137.068 588.479 135.575 596.167 135.575C601.922 135.575 607.018 136.431 611.456 138.145C615.893 139.814 619.605 142.033 622.593 144.801C625.58 147.568 627.843 150.6 629.38 153.895C630.918 157.19 631.687 160.463 631.687 163.714C631.687 163.758 631.687 163.846 631.687 163.977C631.687 164.065 631.687 164.153 631.687 164.241H611.456C611.456 163.977 611.434 163.736 611.39 163.516C611.39 163.253 611.346 162.989 611.258 162.725C610.907 160.88 610.138 159.145 608.951 157.519C607.765 155.894 606.096 154.576 603.943 153.565C601.834 152.511 599.198 151.984 596.035 151.984C592.652 151.984 589.621 152.731 586.941 154.224C584.305 155.718 582.218 157.937 580.681 160.88C579.143 163.78 578.374 167.382 578.374 171.688C578.374 175.905 579.143 179.552 580.681 182.627C582.218 185.658 584.305 187.987 586.941 189.612C589.621 191.238 592.652 192.051 596.035 192.051C599.506 192.051 602.34 191.523 604.536 190.469C606.733 189.371 608.38 187.921 609.479 186.12C610.577 184.274 611.236 182.254 611.456 180.057H631.687C631.687 183.308 630.918 186.625 629.38 190.008C627.887 193.347 625.646 196.4 622.659 199.168C619.715 201.936 616.025 204.176 611.587 205.89C607.15 207.603 602.01 208.46 596.167 208.46Z" fill="#D12310"/>
<path d="M497 175.84V163.319H545.041V175.84H497Z" fill="#D12310"/>
<path d="M448.983 208.394C441.426 208.394 434.771 206.834 429.015 203.715C423.26 200.596 418.757 196.312 415.506 190.864C412.299 185.373 410.695 179.046 410.695 171.885C410.695 164.768 412.299 158.486 415.506 153.038C418.757 147.546 423.26 143.285 429.015 140.254C434.771 137.178 441.426 135.641 448.983 135.641C456.539 135.641 463.195 137.178 468.95 140.254C474.706 143.285 479.187 147.546 482.394 153.038C485.645 158.486 487.271 164.768 487.271 171.885C487.271 179.046 485.645 185.373 482.394 190.864C479.187 196.312 474.706 200.596 468.95 203.715C463.195 206.834 456.539 208.394 448.983 208.394ZM448.983 192.182C452.542 192.182 455.639 191.348 458.275 189.678C460.911 188.009 462.954 185.658 464.403 182.627C465.853 179.552 466.578 175.971 466.578 171.885C466.578 167.8 465.853 164.263 464.403 161.276C462.954 158.244 460.911 155.916 458.275 154.29C455.639 152.665 452.542 151.852 448.983 151.852C445.468 151.852 442.371 152.665 439.691 154.29C437.055 155.916 435.012 158.244 433.562 161.276C432.113 164.263 431.388 167.8 431.388 171.885C431.388 175.971 432.113 179.552 433.562 182.627C435.012 185.658 437.055 188.009 439.691 189.678C442.371 191.348 445.468 192.182 448.983 192.182Z" fill="#D12310"/>
<path d="M400.603 171.359C400.603 175.576 399.79 179.86 398.164 184.209C396.583 188.559 394.166 192.556 390.915 196.203C387.708 199.849 383.622 202.815 378.658 205.099C373.737 207.34 367.894 208.46 361.129 208.46C352.122 208.46 344.434 206.329 338.064 202.068C331.694 197.763 326.817 191.832 323.434 184.275C320.095 176.719 318.426 168.042 318.426 158.245C318.426 148.448 320.095 139.793 323.434 132.28C326.817 124.768 331.694 118.881 338.064 114.619C344.434 110.358 352.122 108.227 361.129 108.227C368.641 108.227 375.033 109.589 380.305 112.313C385.621 115.037 389.861 118.573 393.024 122.923C396.231 127.272 398.406 131.863 399.548 136.696C400.251 139.639 400.603 142.473 400.603 145.197H380.108C380.108 143.879 379.998 142.605 379.778 141.375C379.339 138.167 378.328 135.312 376.747 132.808C375.165 130.303 373.056 128.326 370.421 126.877C367.828 125.383 364.731 124.636 361.129 124.636C356.911 124.636 353.155 125.844 349.86 128.261C346.565 130.677 343.973 134.367 342.084 139.332C340.195 144.296 339.25 150.6 339.25 158.245C339.25 165.933 340.195 172.281 342.084 177.29C343.973 182.254 346.565 185.967 349.86 188.427C353.155 190.843 356.911 192.051 361.129 192.051C364.16 192.051 366.84 191.502 369.168 190.404C371.541 189.305 373.518 187.79 375.099 185.857C376.725 183.924 377.955 181.705 378.79 179.201C379.668 176.697 380.108 174.083 380.108 171.359H400.603Z" fill="#D12310"/>
<path fill-rule="evenodd" clip-rule="evenodd" d="M155.869 116.296C157.95 111.416 159.995 106.516 162.113 101.673C165.538 93.8449 167.306 85.7409 167.27 77.1397C167.251 69.6988 167.877 62.2763 168.098 54.8354C168.264 49.1995 168.467 43.5451 168.264 37.9092C168.098 32.9916 165.888 28.6818 162.905 24.8324C159.331 20.2463 155.003 16.6363 149.257 15.0892C146.07 14.242 142.774 13.7631 139.9 15.8259C138.132 17.0968 136.346 18.6071 135.185 20.412C132.791 24.1325 130.655 28.074 128.665 32.0338C125.866 37.5777 125.811 43.582 126.529 49.5494C127.487 57.5797 128.481 65.6468 130.065 73.585C132.036 83.4755 134.357 93.3291 137.027 103.054C138.39 108.045 140.84 112.742 142.7 117.623C143.676 120.22 144.542 122.853 145.26 125.524C145.444 126.205 145.131 127.329 144.634 127.771C144.265 128.084 143.013 127.881 142.516 127.476C141.466 126.611 140.49 125.561 139.771 124.4C137.23 120.312 135.13 115.891 132.257 112.042C127.229 105.301 123.656 98.1731 122.385 89.6824C120.543 77.4712 118.001 65.3337 115.625 53.1962C114.134 45.6264 112.973 38.0381 113.397 30.2473C113.894 21.0751 118.149 13.8368 125.055 8.16403C131.815 2.6202 139.698 0.152178 148.483 0.631047C157.711 1.16517 164.783 5.14347 169.498 13.3027C176.073 24.7035 178.486 37.1725 179.647 50.0283C180.218 56.3825 180.383 62.7183 179.462 69.0357C178.284 77.0844 175.484 84.5437 171.23 91.5058C166.312 99.5176 161.542 107.622 156.716 115.67C156.55 115.947 156.366 116.204 156.182 116.481C156.071 116.425 155.979 116.333 155.869 116.296Z" fill="#E18905"/>
<path fill-rule="evenodd" clip-rule="evenodd" d="M180.273 165.988C179.905 163.999 179.5 162.102 179.316 160.205C179.279 159.818 180.089 159.119 180.623 158.971C184.97 157.756 189.354 156.687 193.7 155.49C198.176 154.275 202.615 152.93 207.09 151.696C214.863 149.56 222.58 147.184 230.444 145.415C236.412 144.071 242.545 143.39 248.641 142.69C252.362 142.266 256.174 141.971 259.895 142.266C263.781 142.542 267.722 143.205 271.443 144.384C275.679 145.71 277.76 149.375 278.681 153.538C280.32 160.831 280.633 168.125 278.46 175.4C276.287 182.62 271.756 188.035 265.365 191.847C256.745 196.986 247.334 198.128 237.48 197.189C233.631 196.82 230.223 195.549 226.797 193.929C221.18 191.258 215.654 188.477 210.461 184.996C205.267 181.478 199.778 178.329 194.179 175.511C190.864 173.853 187.07 173.135 183.515 171.993C182.649 171.716 181.802 171.459 180.936 171.164C180.936 170.98 180.973 170.796 180.992 170.63C183.994 170.906 187.014 170.961 189.98 171.459C197.899 172.822 205.046 176.487 212.487 179.268C221.659 182.675 230.831 186.138 240.814 185.769C248.604 185.493 255.622 182.823 261.46 177.537C266.765 172.748 267.925 163.999 264.057 158.805C261.534 155.416 257.721 154.33 253.854 153.335C250.815 152.562 247.978 153.575 245.105 154.09C237.277 155.472 229.486 156.945 221.677 158.419C214.881 159.689 208.103 160.997 201.325 162.268C194.584 163.539 187.862 164.773 181.121 166.007C180.826 166.062 180.513 165.97 180.273 165.952" fill="#D12310"/>
<path fill-rule="evenodd" clip-rule="evenodd" d="M139.81 201.756C138.484 210.873 137.305 219.99 135.758 229.052C134.542 236.106 132.848 243.105 131.393 250.122C129.846 257.655 128.335 265.17 126.788 272.703C126.438 274.416 126.162 276.128 125.683 277.823C123.675 284.822 129.569 295.136 139.276 295.707C144.156 295.983 148.982 295.854 153.586 293.865C158.909 291.581 162.317 287.621 164.029 282.133C166.332 274.784 165.816 267.417 164.343 260.031C162.703 251.964 160.364 244.099 157.178 236.53C154.507 230.157 151.8 223.803 148.835 217.559C147.619 215.036 145.796 212.752 144.083 210.523C142.978 209.068 142.812 207.742 143.641 206.232C144.377 204.851 145.151 203.506 145.943 202.18C146.514 201.222 147.38 201.075 147.95 202.014C149.313 204.316 151.155 206.582 151.689 209.105C153.605 218.333 157.546 226.529 162.777 234.283C166.369 239.642 170.052 244.947 172.336 251.117C175.688 260.178 176.277 269.387 174.767 278.836C173.717 285.43 171.71 291.655 168.118 297.309C163.587 304.437 157.104 308.121 148.595 307.734C142.001 307.439 135.389 307.089 128.851 306.279C124.394 305.708 119.863 304.658 116.419 301.361C111.833 296.996 111.17 291.36 111.556 285.43C111.962 278.983 114.43 273.218 117.579 267.785C122.294 259.571 125.462 250.785 128.096 241.76C131.872 228.757 135.555 215.736 139.294 202.751C139.405 202.383 139.57 202.033 139.718 201.683C139.754 201.738 139.791 201.756 139.828 201.793" fill="#2E6EAF"/>
<path fill-rule="evenodd" clip-rule="evenodd" d="M158.705 133.647C159.773 134.66 160.915 135.581 161.873 136.686C164.47 139.633 167.103 142.579 169.516 145.674C172.942 150.057 174.323 155.159 174.489 160.684C174.655 166.873 173.9 172.803 170.787 178.329C168.429 182.51 165.114 185.622 161.099 188.09C153.695 192.677 145.517 194.684 136.971 195.347C133.748 195.587 130.488 195.716 127.265 195.568C119.622 195.181 115.164 190.43 112.494 183.891C108.552 174.222 107.595 164.036 108.46 153.722C108.939 147.958 112.273 143.703 117.117 140.627C125.626 135.212 135.074 133.076 144.983 132.707C146.346 132.652 147.985 133.61 149.072 134.568C150.785 136.096 152.166 138.012 153.603 139.817C154.524 140.977 154.266 141.787 152.7 142.137C146.512 143.519 140.305 144.826 134.172 146.392C127.873 148.013 122.145 150.904 119.29 157.111C116.564 163.06 116.675 168.696 122.053 174.037C125.663 177.611 129.678 180.502 134.54 182.252C141.594 184.757 147.672 182.915 152.94 178.034C156.587 174.645 159.994 170.925 161.449 166.026C162.02 164.092 162.241 161.9 161.946 159.929C161.117 154.238 159.847 148.602 158.926 142.911C158.447 139.964 158.3 136.944 158.005 133.941C158.226 133.849 158.447 133.757 158.686 133.665" fill="#CF1B69"/>
<path fill-rule="evenodd" clip-rule="evenodd" d="M43.8504 84.6355C43.4268 80.7125 44.716 77.1762 46.5947 74.0083C47.5524 72.4059 49.6152 71.3008 51.4018 70.3983C56.0247 68.0224 61.0713 67.3225 66.2099 67.3041C69.8751 67.2673 73.3193 68.1329 76.4688 70.1221C79.784 72.2033 83.3939 73.8978 86.4145 76.329C92.1609 80.9335 96.876 86.5694 100.21 93.1999C104.409 101.599 108.406 110.089 112.66 118.451C114.373 121.822 116.62 124.953 118.536 128.231C118.793 128.691 118.701 129.373 118.757 129.944C118.315 129.668 117.78 129.483 117.467 129.115C113.636 124.345 109.805 119.575 106.048 114.749C101.72 109.168 97.5943 103.403 92.032 98.9095C89.4351 96.8098 86.7092 94.8759 84.0386 92.8684C80.7786 90.4556 77.5002 88.0613 74.2586 85.6117C70.3355 82.6832 65.4179 84.525 62.6552 86.7904C58.769 89.9583 58.3638 94.1761 60.2609 99.0016C63.1157 106.314 68.3832 111.71 73.7981 116.922C77.979 120.956 83.1545 123.811 88.6247 125.818C96.5997 128.747 104.667 131.454 112.679 134.327C113.434 134.604 114.005 135.359 114.668 135.893C114.042 136.611 113.526 137.643 112.734 138.029C109.437 139.558 105.919 139.411 102.714 138.085C95.3473 135.046 88.0353 131.786 80.8154 128.397C76.2662 126.242 71.809 123.884 67.4992 121.287C64.8101 119.667 62.4342 117.493 59.9846 115.486C57.9586 113.81 56.1536 111.876 54.1092 110.237C48.7127 105.927 46.4105 99.9225 44.9555 93.513C44.2924 90.6398 44.2003 87.6192 43.8504 84.6723" fill="#82CB42"/>
<path fill-rule="evenodd" clip-rule="evenodd" d="M98.6253 159.947C98.0543 160.021 97.4834 160.223 96.9308 160.168C90.2635 159.265 83.5225 158.658 76.9288 157.35C65.6938 155.14 54.5693 152.617 43.0212 152.267C35.2672 152.046 28.1946 154.201 21.2142 157.055C17.4569 158.602 13.847 160.426 10.1818 162.176C9.72132 162.378 9.35296 162.783 8.94776 163.115C5.79827 165.564 6.07454 167.922 10.0897 170.095C13.1655 171.753 16.6833 172.895 20.1459 173.466C32.615 175.565 45.2129 176.578 57.8661 177.02C64.6256 177.26 71.4034 177.242 77.9602 175.51C83.5777 174.037 89.0295 171.974 93.855 168.567C95.4206 167.462 97.1334 166.504 98.8831 165.749C100.357 165.122 102.18 166.246 103.082 168.032C103.746 169.34 103.414 170.519 102.327 171.329C100.541 172.637 98.6805 173.853 96.7835 175.013C94.2602 176.578 91.6633 178.052 89.1216 179.562C83.8356 182.712 78.0339 184.148 71.9928 184.848C65.9332 185.566 59.9105 186.414 53.8694 187.224C47.3678 188.127 41.0873 186.579 34.7515 185.64C29.4286 184.867 24.1427 183.872 18.8383 182.97C12.5393 181.92 7.4559 178.844 3.71703 173.705C2.48302 172.011 1.41477 170.114 0.733307 168.125C-1.21901 162.36 0.770142 158.271 6.18505 154.403C11.8026 150.388 18.0094 147.552 24.5663 145.397C32.1177 142.929 39.798 142.431 47.6073 143.684C51.5672 144.292 55.5639 144.881 59.4132 145.986C66.8541 148.141 74.2029 150.572 81.5518 153.003C86.2668 154.569 90.9266 156.282 95.6047 157.976C96.673 158.363 97.686 158.897 98.7174 159.358C98.6621 159.56 98.6253 159.744 98.5885 159.947" fill="#197342"/>
<path fill-rule="evenodd" clip-rule="evenodd" d="M180.641 142.819C182.98 141.769 185.337 140.756 187.658 139.669C193.349 137.017 198.985 134.217 204.75 131.712C208.894 129.926 213.24 128.6 217.421 126.905C227.864 122.651 237.129 117.015 241.273 105.633C242.267 102.925 243.501 100.273 244.588 97.5838C247.443 90.4744 245.325 84.5991 238.418 81.2838C235.342 79.8104 232.045 78.779 228.748 77.8949C226.17 77.195 223.794 78.5027 221.639 79.8104C215.359 83.6229 210.165 88.78 204.676 93.5871C196.333 100.936 192.133 110.845 187.603 120.57C184.785 126.629 181.58 132.431 177.012 137.385C174.784 139.798 171.966 139.687 169.995 137.035C169.682 136.612 169.848 135.58 170.142 134.991C173.347 128.581 176.46 122.117 179.904 115.818C184.398 107.677 189.002 99.5914 193.883 91.6716C197.585 85.6489 201.987 80.1603 208.397 76.6425C214.235 73.4377 220.424 71.4118 227.036 71.1539C231.622 70.9697 236.245 71.1539 240.794 71.5959C246.743 72.2037 250.187 75.9979 251.403 81.6338C253.208 89.9219 252.968 98.1732 250.666 106.424C248.474 114.215 243.667 120.017 237.405 124.806C232.34 128.655 226.465 130.571 220.442 132.21C207.936 135.599 195.449 139.098 182.961 142.542C182.224 142.745 181.488 142.929 180.751 143.132C180.714 143.04 180.677 142.947 180.641 142.837" fill="#F5C51B"/>
<path fill-rule="evenodd" clip-rule="evenodd" d="M168.872 198.551C170.474 199.804 172.113 201.001 173.642 202.327C181.138 208.92 187.308 216.693 193.478 224.484C199.225 231.74 205.1 238.923 211.252 245.83C214.972 250.011 219.871 252.295 225.747 251.963C228.749 251.798 231.327 250.582 233.427 248.685C235.729 246.641 237.792 244.246 239.634 241.778C241.734 238.942 241.328 236.198 238.768 233.159C234.993 228.701 230.204 225.478 225.415 222.274C215.212 215.459 203.792 210.928 193.091 205.016C187.069 201.682 181.046 198.385 176.534 193.026C174.729 190.889 173.182 188.532 171.395 186.1C172.279 185.677 172.647 185.474 173.053 185.309C176.994 183.725 177.123 183.706 178.689 187.556C180.236 191.368 182.925 193.799 186.7 195.181C194.694 198.072 202.706 200.945 210.718 203.763C220.148 207.097 229.651 210.265 238.271 215.514C244.017 219.014 248.069 223.913 250.574 230.101C252.048 233.785 251.587 237.487 250.151 241.06C247.314 248.114 242.857 253.989 236.632 258.428C233.003 261.025 229.043 261.375 224.863 259.717C212.965 254.984 202.374 248.261 193.754 238.721C191.802 236.566 190.366 233.84 189.076 231.169C186.94 226.749 185.135 222.163 183.146 217.651C180.567 211.812 176.644 206.913 172.15 202.456C170.971 201.277 169.756 200.098 168.559 198.956C168.669 198.827 168.78 198.698 168.89 198.57" fill="#521F79"/>
<path fill-rule="evenodd" clip-rule="evenodd" d="M118.664 199.012C117.872 201.333 117.246 203.709 116.269 205.937C113.709 211.739 111.849 217.762 110.099 223.858C108.368 229.918 105.753 235.738 103.432 241.632C102.677 243.565 101.811 245.444 100.743 247.212C98.2381 251.264 93.873 252.572 89.7474 253.99C81.2383 256.863 72.8949 255.924 65.1777 251.541C59.7628 248.465 56.8159 243.308 56.6133 236.99C56.4844 232.404 56.4107 227.763 57.0738 223.214C58.0868 216.601 60.5179 210.468 66.1723 206.232C69.4875 203.746 73.2817 202.309 77.3336 201.609C84.3509 200.394 91.3682 199.27 98.3855 198.054C99.6379 197.833 100.872 197.318 102.051 196.802C104.169 195.881 106.232 194.868 108.331 193.91C108.423 194.095 108.534 194.297 108.626 194.463C101.517 198.552 94.444 202.714 87.2978 206.729C83.8536 208.663 80.1516 210.1 76.7627 212.089C72.416 214.668 68.3825 217.67 65.675 222.09C63.6306 225.442 63.8148 228.813 65.5092 232.275C67.9404 237.285 71.7345 241.153 76.1733 244.284C77.5915 245.278 79.8569 245.481 81.6987 245.407C88.4213 245.113 92.9337 241.429 96.4516 235.848C99.8037 230.507 101.517 224.521 104.206 218.959C106.821 213.562 109.731 208.295 112.844 203.156C114.004 201.259 116.104 199.97 117.761 198.386C118.056 198.57 118.351 198.773 118.645 198.994" fill="#26B0E6"/>
</svg>
