<svg width="44" height="37" viewBox="0 0 44 37" fill="none" xmlns="http://www.w3.org/2000/svg">
<path d="M41.06 15.9208C39.8342 14.7167 38.3188 13.8488 36.66 13.4008C37.3241 12.5084 37.7947 11.4873 38.0419 10.4027C38.2891 9.31813 38.3074 8.19393 38.0956 7.10189C37.8838 6.00985 37.4466 4.97398 36.8119 4.06044C36.1772 3.14689 35.359 2.37575 34.4095 1.79626C33.4599 1.21678 32.4 0.841678 31.2973 0.694925C30.1947 0.548171 29.0735 0.632989 28.0055 0.943961C26.9375 1.25493 25.946 1.78522 25.0945 2.50097C24.2429 3.21671 23.55 4.10217 23.06 5.10081C22.7088 5.04768 22.3549 5.0143 22 5.00081C21.6469 4.98108 21.2931 4.98108 20.94 5.00081C20.4129 4.05846 19.7005 3.23256 18.8457 2.57287C17.991 1.91318 17.0115 1.43335 15.9663 1.16228C14.9212 0.891216 13.832 0.834528 12.7643 0.995633C11.6967 1.15674 10.6727 1.5323 9.75402 2.0997C8.83538 2.66709 8.04111 3.41458 7.41905 4.29712C6.79699 5.17966 6.36002 6.17899 6.13446 7.23491C5.90891 8.29083 5.89944 9.38148 6.10662 10.4412C6.31381 11.5008 6.73336 12.5076 7.34 13.4008C5.67475 13.8581 4.15353 14.7323 2.92 15.9408C1.05062 17.8149 0.000562379 20.3538 0 23.0008C0 24.5921 0.632141 26.1182 1.75736 27.2434C2.88258 28.3687 4.4087 29.0008 6 29.0008H8.14C8.05289 29.664 8.00613 30.3319 8 31.0008C8 32.5921 8.63214 34.1182 9.75736 35.2434C10.8826 36.3687 12.4087 37.0008 14 37.0008H30C31.5913 37.0008 33.1174 36.3687 34.2426 35.2434C35.3679 34.1182 36 32.5921 36 31.0008C35.9939 30.3319 35.9471 29.664 35.86 29.0008H38C39.5913 29.0008 41.1174 28.3687 42.2426 27.2434C43.3679 26.1182 44 24.5921 44 23.0008C43.9997 21.6853 43.7399 20.3828 43.2354 19.1679C42.7309 17.953 41.9916 16.8495 41.06 15.9208ZM30 5.00081C31.0609 5.00081 32.0783 5.42223 32.8284 6.17238C33.5786 6.92252 34 7.93994 34 9.00081C34 10.0617 33.5786 11.0791 32.8284 11.8292C32.0783 12.5794 31.0609 13.0008 30 13.0008C29.9938 11.7656 29.7017 10.5486 29.1465 9.44521C28.5913 8.34179 27.7882 7.38192 26.8 6.64081C27.1684 6.13666 27.6497 5.72574 28.2053 5.44096C28.761 5.15618 29.3756 5.00544 30 5.00081ZM26 13.0008C26 13.7919 25.7654 14.5653 25.3259 15.2231C24.8864 15.8809 24.2616 16.3936 23.5307 16.6963C22.7998 16.9991 21.9956 17.0783 21.2196 16.9239C20.4437 16.7696 19.731 16.3886 19.1716 15.8292C18.6122 15.2698 18.2312 14.5571 18.0769 13.7812C17.9225 13.0052 18.0017 12.201 18.3045 11.4701C18.6072 10.7392 19.1199 10.1145 19.7777 9.67493C20.4355 9.2354 21.2089 9.00081 22 9.00081C23.0609 9.00081 24.0783 9.42223 24.8284 10.1724C25.5786 10.9225 26 11.9399 26 13.0008ZM14 5.00081C14.6244 5.00544 15.239 5.15618 15.7947 5.44096C16.3503 5.72574 16.8316 6.13666 17.2 6.64081C16.2118 7.38192 15.4087 8.34179 14.8535 9.44521C14.2983 10.5486 14.0062 11.7656 14 13.0008C12.9391 13.0008 11.9217 12.5794 11.1716 11.8292C10.4214 11.0791 10 10.0617 10 9.00081C10 7.93994 10.4214 6.92252 11.1716 6.17238C11.9217 5.42223 12.9391 5.00081 14 5.00081ZM6 25.0008C5.46957 25.0008 4.96086 24.7901 4.58579 24.415C4.21071 24.0399 4 23.5312 4 23.0008C4 21.4095 4.63214 19.8834 5.75736 18.7582C6.88258 17.6329 8.4087 17.0008 10 17.0008H15.12C15.3987 17.4757 15.72 17.9242 16.08 18.3408C13.1398 19.7206 10.7661 22.0731 9.36 25.0008H6ZM30 33.0008H14C13.4696 33.0008 12.9609 32.7901 12.5858 32.415C12.2107 32.0399 12 31.5312 12 31.0008C12 28.3486 13.0536 25.8051 14.9289 23.9297C16.8043 22.0544 19.3478 21.0008 22 21.0008C24.6522 21.0008 27.1957 22.0544 29.0711 23.9297C30.9464 25.8051 32 28.3486 32 31.0008C32 31.5312 31.7893 32.0399 31.4142 32.415C31.0391 32.7901 30.5304 33.0008 30 33.0008ZM38 25.0008H34.64C33.2541 22.0863 30.9103 19.7355 28 18.3408C28.36 17.9242 28.6813 17.4757 28.96 17.0008H34C35.5913 17.0008 37.1174 17.6329 38.2426 18.7582C39.3679 19.8834 40 21.4095 40 23.0008C40 23.5312 39.7893 24.0399 39.4142 24.415C39.0391 24.7901 38.5304 25.0008 38 25.0008Z" fill="#E24028"/>
</svg>
