<svg width="48" height="48" viewBox="0 0 48 48" fill="none" xmlns="http://www.w3.org/2000/svg">
<g opacity="0.7">
<path d="M16 46H12C10.6868 46 9.38642 45.7413 8.17317 45.2388C6.95991 44.7362 5.85752 43.9997 4.92893 43.0711C4.00035 42.1425 3.26375 41.0401 2.7612 39.8268C2.25866 38.6136 2 37.3132 2 36V12C2 9.34784 3.05357 6.8043 4.92893 4.92893C6.8043 3.05357 9.34784 2 12 2H28C29.3132 2 30.6136 2.25866 31.8268 2.7612C33.0401 3.26375 34.1425 4.00035 35.0711 4.92893C35.9997 5.85752 36.7362 6.95991 37.2388 8.17317C37.7413 9.38642 38 10.6868 38 12V16C38 16.5304 37.7893 17.0391 37.4142 17.4142C37.0391 17.7893 36.5304 18 36 18C35.4696 18 34.9609 17.7893 34.5858 17.4142C34.2107 17.0391 34 16.5304 34 16V12C34 10.4087 33.3679 8.88258 32.2426 7.75736C31.1174 6.63214 29.5913 6 28 6H12C10.4087 6 8.88258 6.63214 7.75736 7.75736C6.63214 8.88258 6 10.4087 6 12V36C6 37.5913 6.63214 39.1174 7.75736 40.2426C8.88258 41.3679 10.4087 42 12 42H16C16.5304 42 17.0391 42.2107 17.4142 42.5858C17.7893 42.9609 18 43.4696 18 44C18 44.5304 17.7893 45.0391 17.4142 45.4142C17.0391 45.7893 16.5304 46 16 46Z" fill="#0E0E10"/>
<path d="M24 26H12C11.4696 26 10.9609 25.7893 10.5858 25.4142C10.2107 25.0391 10 24.5304 10 24C10 23.4696 10.2107 22.9609 10.5858 22.5858C10.9609 22.2107 11.4696 22 12 22H24C24.5304 22 25.0391 22.2107 25.4142 22.5858C25.7893 22.9609 26 23.4696 26 24C26 24.5304 25.7893 25.0391 25.4142 25.4142C25.0391 25.7893 24.5304 26 24 26Z" fill="#0E0E10"/>
<path d="M16 34H12C11.4696 34 10.9609 33.7893 10.5858 33.4142C10.2107 33.0391 10 32.5304 10 32C10 31.4696 10.2107 30.9609 10.5858 30.5858C10.9609 30.2107 11.4696 30 12 30H16C16.5304 30 17.0391 30.2107 17.4142 30.5858C17.7893 30.9609 18 31.4696 18 32C18 32.5304 17.7893 33.0391 17.4142 33.4142C17.0391 33.7893 16.5304 34 16 34Z" fill="#0E0E10"/>
<path d="M28 18H12C11.4696 18 10.9609 17.7893 10.5858 17.4142C10.2107 17.0391 10 16.5304 10 16C10 15.4696 10.2107 14.9609 10.5858 14.5858C10.9609 14.2107 11.4696 14 12 14H28C28.5304 14 29.0391 14.2107 29.4142 14.5858C29.7893 14.9609 30 15.4696 30 16C30 16.5304 29.7893 17.0391 29.4142 17.4142C29.0391 17.7893 28.5304 18 28 18Z" fill="#0E0E10"/>
<path d="M23.9994 46.0018C23.7134 46.0042 23.4302 45.9452 23.1689 45.8289C22.9075 45.7125 22.6742 45.5415 22.4847 45.3273C22.2951 45.1131 22.1537 44.8607 22.07 44.5872C21.9863 44.3137 21.9622 44.0254 21.9994 43.7418L22.6594 38.6218C22.8153 37.3026 23.4147 36.0756 24.3594 35.1418L35.7394 23.7618C36.884 22.6757 38.4016 22.0703 39.9794 22.0703C41.5572 22.0703 43.0748 22.6757 44.2194 23.7618C45.343 24.8868 45.9741 26.4117 45.9741 28.0018C45.9741 29.5918 45.343 31.1168 44.2194 32.2418L32.8394 43.6218C31.9056 44.5665 30.6786 45.1659 29.3594 45.3218L24.2594 46.0018H23.9994ZM39.9994 26.0018C39.7362 26.0002 39.4753 26.0507 39.2316 26.1502C38.9879 26.2497 38.7663 26.3964 38.5794 26.5818L27.2194 38.0018C26.9026 38.3133 26.6985 38.7214 26.6394 39.1618L26.3194 41.7218L28.8794 41.4018C29.3053 41.321 29.6962 41.1116 29.9994 40.8018L41.3794 29.4218C41.5669 29.2358 41.7156 29.0146 41.8172 28.7709C41.9187 28.5272 41.971 28.2658 41.971 28.0018C41.971 27.7377 41.9187 27.4763 41.8172 27.2326C41.7156 26.9889 41.5669 26.7677 41.3794 26.5818C41.0118 26.2171 40.5171 26.0092 39.9994 26.0018Z" fill="#0E0E10"/>
</g>
</svg>
