<svg width="30" height="30" viewBox="0 0 30 30" fill="none" xmlns="http://www.w3.org/2000/svg">
<circle cx="15" cy="15" r="14" fill="#EFEEF1" stroke="#E2E1E5"/>
<g clip-path="url(#clip0_4277_676)">
<path d="M17.3499 17.7173L15.5741 22.6007C15.5306 22.7179 15.4523 22.819 15.3496 22.8904C15.247 22.9617 15.125 23 15 23C14.875 23 14.753 22.9617 14.6504 22.8904C14.5477 22.819 14.4694 22.7179 14.4259 22.6007L12.6501 17.7173C12.6191 17.6331 12.5702 17.5567 12.5068 17.4932C12.4433 17.4298 12.3669 17.3809 12.2827 17.3499L7.39926 15.5741C7.28207 15.5306 7.181 15.4523 7.10963 15.3496C7.03826 15.247 7 15.125 7 15C7 14.875 7.03826 14.753 7.10963 14.6504C7.181 14.5477 7.28207 14.4694 7.39926 14.4259L12.2827 12.6501C12.3669 12.6191 12.4433 12.5702 12.5068 12.5068C12.5702 12.4433 12.6191 12.3669 12.6501 12.2827L14.4259 7.39926C14.4694 7.28207 14.5477 7.181 14.6504 7.10963C14.753 7.03826 14.875 7 15 7C15.125 7 15.247 7.03826 15.3496 7.10963C15.4523 7.181 15.5306 7.28207 15.5741 7.39926L17.3499 12.2827C17.3809 12.3669 17.4298 12.4433 17.4932 12.5068C17.5567 12.5702 17.6331 12.6191 17.7173 12.6501L22.6007 14.4259C22.7179 14.4694 22.819 14.5477 22.8904 14.6504C22.9617 14.753 23 14.875 23 15C23 15.125 22.9617 15.247 22.8904 15.3496C22.819 15.4523 22.7179 15.5306 22.6007 15.5741L17.7173 17.3499C17.6331 17.3809 17.5567 17.4298 17.4932 17.4932C17.4298 17.5567 17.3809 17.6331 17.3499 17.7173Z" stroke="#0E0E10" stroke-width="1.67" stroke-linecap="round" stroke-linejoin="round"/>
</g>
<defs>
<clipPath id="clip0_4277_676">
<rect width="20" height="20" fill="white" transform="translate(5 5)"/>
</clipPath>
</defs>
</svg>
