<svg width="30" height="30" viewBox="0 0 30 30" fill="none" xmlns="http://www.w3.org/2000/svg">
<circle cx="15" cy="15" r="14" fill="#EFEEF1" stroke="#E2E1E5"/>
<path d="M19.1665 18.5229C21.1085 18.9805 22.4998 20.2153 22.4998 21.6666" stroke="#0E0E10" stroke-width="1.66667" stroke-linecap="round" stroke-linejoin="round"/>
<path d="M7.5 21.6668C7.5 19.8259 9.73858 18.3335 12.5 18.3335C15.2614 18.3335 17.5 19.8259 17.5 21.6668" stroke="#0E0E10" stroke-width="1.66667" stroke-linecap="round" stroke-linejoin="round"/>
<path d="M17.5 15.8337C19.3409 15.8337 20.8333 14.3413 20.8333 12.5003C20.8333 10.6594 19.3409 9.16699 17.5 9.16699" stroke="#0E0E10" stroke-width="1.66667" stroke-linecap="round" stroke-linejoin="round"/>
<path d="M12.4998 15.8337C14.3408 15.8337 15.8332 14.3413 15.8332 12.5003C15.8332 10.6594 14.3408 9.16699 12.4998 9.16699C10.6589 9.16699 9.1665 10.6594 9.1665 12.5003C9.1665 14.3413 10.6589 15.8337 12.4998 15.8337Z" stroke="#0E0E10" stroke-width="1.66667" stroke-linecap="round" stroke-linejoin="round"/>
</svg>
