<svg width="32" height="32" viewBox="0 0 32 32" fill="none" xmlns="http://www.w3.org/2000/svg">
<path opacity="0.1" fill-rule="evenodd" clip-rule="evenodd" d="M0 16C0 7.16344 7.16344 0 16 0C24.8366 0 32 7.16344 32 16C32 24.8366 24.8366 32 16 32C7.16344 32 0 24.8366 0 16Z" fill="#111111"/>
<path d="M16.8945 8.04649C15.9383 8.1959 15.2676 8.52129 14.7164 9.10234C14.2516 9.59375 13.9627 10.1682 13.8 10.9219C13.7369 11.2074 13.7303 11.3801 13.717 12.7215L13.7037 14.209H12.3922H11.084V15.7197V17.2305L12.3889 17.2371L13.6904 17.2471L13.7004 21.1219L13.707 25H15.2676H16.8281V21.1152V17.2305H18.123C18.8369 17.2305 19.418 17.2271 19.418 17.2205C19.5076 16.6162 19.8031 14.2521 19.7932 14.2322C19.7865 14.2189 19.1158 14.209 18.3023 14.209H16.8248L16.8348 12.9705C16.8447 11.7619 16.848 11.732 16.9244 11.5395C17.0805 11.151 17.4059 10.9186 17.8973 10.8555C18.0301 10.8389 18.5381 10.8223 19.0295 10.8223H19.916L19.9094 9.46758L19.8994 8.11621L19.4678 8.07637C18.7605 8.01328 17.2266 7.99336 16.8945 8.04649Z" fill="#111111"/>
</svg>
