<svg width="1475" height="898" viewBox="0 0 1170 655" fill="none" xmlns="http://www.w3.org/2000/svg">
<path d="M1237 519.999C1237 519.999 998 698 913 619C831.021 542.807 1060.91 448.575 970.831 382.158C885.36 319.14 831.693 578.864 736.901 531C620.448 472.199 985.498 322.604 881.5 243.843C776.645 164.432 715 495.001 650 436C602.135 392.553 747.772 280.647 702 235C674 207.077 521.607 369 505 327C492.403 295.141 600.095 232.135 603 197.998C611.272 100.791 394.292 410.754 293 333C254.165 303.189 274.957 75.2566 226 75C185.649 74.7885 184.211 252.393 147 268C37.7952 313.804 15 -5 15 -5" stroke="#F1F2F3" stroke-width="30"/>
</svg>
