<svg width="876" height="262" viewBox="0 0 876 262" fill="none" xmlns="http://www.w3.org/2000/svg">
<path fill-rule="evenodd" clip-rule="evenodd" d="M107.581 61.61C108.671 59.15 109.751 56.68 110.871 54.2299C112.681 50.2799 113.611 46.1899 113.591 41.8499C113.571 38.0999 113.911 34.3499 114.031 30.5899C114.121 27.7399 114.231 24.89 114.121 22.05C114.031 19.57 112.871 17.39 111.291 15.45C109.401 13.13 107.121 11.3199 104.101 10.5399C102.421 10.1099 100.681 9.86994 99.1614 10.9099C98.2314 11.5499 97.2914 12.3199 96.6814 13.2199C95.4214 15.0999 94.2914 17.08 93.2414 19.08C91.7614 21.88 91.7314 24.91 92.1114 27.93C92.6214 31.99 93.1414 36.0599 93.9814 40.0599C95.0214 45.0499 96.2514 50.02 97.6514 54.93C98.3714 57.46 99.6614 59.8299 100.641 62.2899C101.161 63.5999 101.611 64.9299 102.001 66.2799C102.091 66.6199 101.931 67.1799 101.671 67.3999C101.481 67.5599 100.811 67.4599 100.551 67.2499C100.001 66.8099 99.4814 66.28 99.1014 65.7C97.7614 63.63 96.6514 61.4 95.1414 59.46C92.4814 56.05 90.6014 52.46 89.9314 48.17C88.9614 42 87.6214 35.8899 86.3714 29.76C85.5914 25.93 84.9714 22.11 85.1914 18.18C85.4514 13.54 87.6914 9.89994 91.3414 7.02994C94.9114 4.22994 99.0614 2.97995 103.691 3.22995C108.561 3.49995 112.291 5.50995 114.771 9.62995C118.231 15.3799 119.511 21.68 120.121 28.17C120.421 31.37 120.511 34.5799 120.021 37.7599C119.401 41.82 117.921 45.5899 115.681 49.0999C113.091 53.1399 110.581 57.23 108.031 61.3C107.941 61.44 107.841 61.57 107.751 61.7C107.701 61.67 107.641 61.6399 107.591 61.5999" fill="#BAD531"/>
<path fill-rule="evenodd" clip-rule="evenodd" d="M120.452 86.68C120.262 85.67 120.042 84.72 119.952 83.76C119.932 83.57 120.362 83.21 120.642 83.13C122.932 82.52 125.242 81.99 127.542 81.39C129.902 80.78 132.252 80.1 134.602 79.48C138.702 78.4 142.772 77.2 146.922 76.31C150.072 75.63 153.302 75.29 156.512 74.94C158.482 74.72 160.482 74.58 162.442 74.72C164.492 74.86 166.572 75.2 168.532 75.79C170.762 76.46 171.862 78.31 172.352 80.41C173.212 84.09 173.382 87.77 172.232 91.44C171.082 95.09 168.702 97.82 165.322 99.75C160.772 102.35 155.812 102.93 150.612 102.45C148.582 102.26 146.782 101.62 144.982 100.8C142.022 99.45 139.112 98.05 136.372 96.28C133.632 94.51 130.742 92.92 127.782 91.5C126.032 90.66 124.032 90.29 122.152 89.72C121.702 89.58 121.242 89.45 120.792 89.31C120.802 89.22 120.812 89.13 120.822 89.04C122.402 89.17 124.002 89.21 125.562 89.46C129.732 90.14 133.512 91.99 137.432 93.39C142.272 95.12 147.102 96.86 152.362 96.68C156.472 96.54 160.172 95.19 163.252 92.53C166.052 90.11 166.672 85.69 164.622 83.07C163.292 81.36 161.282 80.81 159.242 80.31C157.642 79.92 156.152 80.44 154.632 80.69C150.512 81.39 146.392 82.14 142.282 82.88C138.702 83.52 135.122 84.18 131.552 84.82C128.002 85.46 124.452 86.08 120.902 86.71C120.742 86.74 120.572 86.69 120.452 86.68Z" fill="#BAD531"/>
<path fill-rule="evenodd" clip-rule="evenodd" d="M99.1113 104.74C98.4113 109.33 97.7913 113.94 96.9713 118.52C96.3313 122.09 95.4413 125.61 94.6713 129.15C93.8513 132.95 93.0613 136.74 92.2513 140.54C92.0713 141.4 91.9213 142.27 91.6613 143.12C90.6013 146.65 93.7113 151.86 98.8313 152.15C101.401 152.29 103.951 152.22 106.381 151.22C109.191 150.06 110.981 148.07 111.891 145.3C113.101 141.6 112.831 137.87 112.051 134.14C111.191 130.07 109.951 126.1 108.271 122.28C106.871 119.07 105.431 115.86 103.871 112.71C103.231 111.43 102.271 110.29 101.361 109.15C100.781 108.43 100.691 107.75 101.131 106.98C101.521 106.29 101.921 105.61 102.341 104.93C102.641 104.45 103.101 104.37 103.401 104.85C104.131 106.01 105.101 107.15 105.381 108.42C106.391 113.07 108.471 117.22 111.231 121.13C113.131 123.83 115.061 126.51 116.271 129.63C118.041 134.2 118.341 138.85 117.551 143.62C116.991 146.95 115.941 150.09 114.051 152.94C111.661 156.54 108.241 158.41 103.761 158.21C100.281 158.05 96.8013 157.88 93.3513 157.47C91.0013 157.19 88.6113 156.65 86.8013 155C84.3813 152.8 84.0313 149.95 84.2313 146.95C84.4513 143.7 85.7513 140.8 87.4113 138.04C89.9013 133.9 91.5613 129.46 92.9513 124.91C94.9513 118.35 96.8813 111.78 98.8513 105.23C98.9113 105.04 99.0013 104.87 99.0713 104.69C99.0913 104.71 99.1113 104.73 99.1313 104.75" fill="#BAD531"/>
<path fill-rule="evenodd" clip-rule="evenodd" d="M109.07 70.36C109.63 70.87 110.23 71.34 110.74 71.89C112.11 73.38 113.5 74.86 114.78 76.42C116.58 78.64 117.32 81.21 117.4 84C117.49 87.12 117.09 90.12 115.45 92.9C114.21 95.01 112.46 96.58 110.34 97.83C106.44 100.14 102.13 101.15 97.6101 101.49C95.9101 101.61 94.2001 101.68 92.5001 101.6C88.4701 101.41 86.1301 99.01 84.7101 95.7C82.6301 90.82 82.1301 85.68 82.5801 80.47C82.8401 77.56 84.5901 75.41 87.1501 73.86C91.6301 71.13 96.6201 70.05 101.85 69.86C102.57 69.84 103.43 70.31 104.01 70.8C104.91 71.57 105.64 72.53 106.39 73.45C106.87 74.04 106.74 74.45 105.91 74.62C102.65 75.32 99.3801 75.98 96.1401 76.77C92.8201 77.59 89.8001 79.05 88.3001 82.18C86.8701 85.19 86.9201 88.02 89.7601 90.72C91.6601 92.53 93.7801 93.99 96.3401 94.86C100.06 96.13 103.26 95.2 106.04 92.74C107.96 91.03 109.76 89.16 110.53 86.68C110.83 85.71 110.94 84.6 110.79 83.6C110.35 80.73 109.69 77.88 109.2 75.01C108.95 73.51 108.87 71.99 108.72 70.48C108.84 70.44 108.96 70.39 109.08 70.35" fill="#BAD531"/>
<path fill-rule="evenodd" clip-rule="evenodd" d="M48.5107 45.6199C48.2907 43.6499 48.9607 41.8499 49.9507 40.2599C50.4607 39.4499 51.5507 38.8999 52.4807 38.4399C54.9207 37.2399 57.5807 36.8899 60.2907 36.8699C62.2207 36.8699 64.0407 37.2999 65.7007 38.2999C67.4407 39.3599 69.3507 40.1999 70.9507 41.4299C73.9807 43.7599 76.4707 46.5999 78.2207 49.9599C80.4407 54.1899 82.5407 58.4799 84.7907 62.6999C85.7007 64.4099 86.8707 65.9799 87.8907 67.6299C88.0307 67.8599 87.9707 68.1999 88.0107 68.4799C87.7807 68.3499 87.4907 68.2599 87.3307 68.0599C85.3107 65.6499 83.2907 63.2399 81.3107 60.7999C79.0307 57.9799 76.8507 55.0699 73.9207 52.8099C72.5507 51.7499 71.1107 50.7699 69.7007 49.7599C67.9807 48.5299 66.2507 47.3299 64.5407 46.0999C62.4707 44.6099 59.8707 45.5499 58.4207 46.6899C56.3707 48.2899 56.1607 50.4299 57.1507 52.8699C58.6607 56.5599 61.4307 59.2799 64.2907 61.9099C66.5007 63.9499 69.2207 65.3799 72.1107 66.3999C76.3207 67.8799 80.5707 69.2399 84.7907 70.6899C85.1807 70.8199 85.4907 71.2099 85.8307 71.4799C85.4907 71.8499 85.2307 72.3699 84.8107 72.5599C83.0807 73.3299 81.2207 73.2499 79.5307 72.5799C75.6407 71.0399 71.8007 69.3999 67.9907 67.6899C65.5907 66.6099 63.2407 65.4099 60.9707 64.0999C59.5507 63.2899 58.2907 62.1899 57.0107 61.1699C55.9407 60.3199 54.9907 59.3499 53.9107 58.5199C51.0607 56.3499 49.8507 53.3099 49.0807 50.0799C48.7307 48.6299 48.6807 47.1099 48.5007 45.6199" fill="#BAD531"/>
<path fill-rule="evenodd" clip-rule="evenodd" d="M77.391 83.64C77.101 83.68 76.791 83.79 76.501 83.75C72.981 83.3 69.431 82.99 65.961 82.33C60.041 81.21 54.1709 79.94 48.0809 79.77C43.9909 79.66 40.261 80.75 36.581 82.18C34.601 82.95 32.701 83.89 30.771 84.76C30.531 84.87 30.341 85.07 30.121 85.23C28.461 86.46 28.601 87.66 30.721 88.75C32.341 89.59 34.201 90.16 36.021 90.45C42.601 91.51 49.241 92.03 55.911 92.25C59.481 92.37 63.051 92.36 66.511 91.49C69.471 90.74 72.351 89.7 74.891 87.98C75.721 87.42 76.611 86.93 77.551 86.55C78.321 86.23 79.281 86.8 79.771 87.71C80.121 88.37 79.941 88.97 79.371 89.37C78.431 90.04 77.451 90.64 76.451 91.23C75.121 92.02 73.751 92.76 72.411 93.52C69.631 95.11 66.571 95.83 63.381 96.2C60.191 96.56 57.011 96.98 53.821 97.4C50.391 97.86 47.081 97.07 43.741 96.6C40.941 96.21 38.151 95.7 35.351 95.26C32.031 94.73 29.351 93.17 27.371 90.58C26.721 89.73 26.151 88.77 25.801 87.78C24.771 84.87 25.821 82.8 28.671 80.85C31.631 78.83 34.911 77.39 38.371 76.31C42.351 75.06 46.401 74.8 50.521 75.43C52.611 75.75 54.721 76.04 56.741 76.6C60.661 77.68 64.531 78.92 68.411 80.14C70.901 80.93 73.351 81.8 75.821 82.65C76.381 82.84 76.911 83.12 77.461 83.35C77.441 83.45 77.411 83.55 77.391 83.64Z" fill="#BAD531"/>
<path fill-rule="evenodd" clip-rule="evenodd" d="M120.642 75C121.872 74.47 123.112 73.95 124.342 73.41C127.352 72.08 130.322 70.66 133.352 69.4C135.532 68.49 137.822 67.83 140.032 66.97C145.542 64.82 150.422 61.98 152.602 56.23C153.122 54.86 153.772 53.52 154.342 52.16C155.852 48.58 154.732 45.61 151.082 43.94C149.462 43.2 147.722 42.67 145.982 42.23C144.622 41.88 143.372 42.54 142.232 43.19C138.912 45.11 136.182 47.71 133.292 50.14C128.892 53.85 126.672 58.85 124.292 63.75C122.802 66.81 121.112 69.74 118.712 72.24C117.542 73.46 116.052 73.4 115.022 72.07C114.852 71.85 114.942 71.33 115.092 71.03C116.782 67.79 118.422 64.53 120.242 61.36C122.602 57.24 125.042 53.16 127.612 49.17C129.572 46.14 131.882 43.36 135.262 41.59C138.342 39.97 141.602 38.96 145.092 38.82C147.502 38.72 149.942 38.81 152.342 39.04C155.482 39.35 157.292 41.26 157.932 44.11C158.882 48.29 158.762 52.47 157.542 56.62C156.392 60.56 153.862 63.48 150.542 65.89C147.872 67.83 144.782 68.8 141.592 69.63C135.002 71.34 128.422 73.1 121.832 74.84C121.452 74.94 121.062 75.04 120.672 75.14C120.652 75.09 120.632 75.04 120.612 74.99" fill="#BAD531"/>
<path fill-rule="evenodd" clip-rule="evenodd" d="M114.44 103.12C115.28 103.75 116.15 104.35 116.95 105.03C120.9 108.35 124.16 112.27 127.41 116.2C130.44 119.86 133.54 123.49 136.78 126.97C138.74 129.08 141.33 130.24 144.43 130.07C146.01 129.99 147.37 129.36 148.48 128.41C149.69 127.37 150.78 126.17 151.75 124.92C152.86 123.48 152.65 122.1 151.3 120.57C149.31 118.32 146.78 116.7 144.25 115.08C138.88 111.63 132.85 109.35 127.21 106.36C124.03 104.68 120.85 103.02 118.48 100.31C117.53 99.2299 116.71 98.0399 115.77 96.8099C116.23 96.5999 116.43 96.4899 116.64 96.4099C118.72 95.6199 118.79 95.5999 119.61 97.5399C120.42 99.4599 121.85 100.7 123.83 101.39C128.04 102.85 132.27 104.3 136.49 105.73C141.46 107.41 146.47 109.01 151.02 111.66C154.05 113.43 156.19 115.9 157.5 119.03C158.28 120.88 158.04 122.75 157.28 124.55C155.78 128.12 153.43 131.09 150.15 133.33C148.24 134.63 146.15 134.82 143.95 133.98C137.67 131.59 132.09 128.2 127.54 123.39C126.51 122.3 125.75 120.92 125.07 119.58C123.94 117.35 122.99 115.03 121.94 112.76C120.58 109.8 118.51 107.34 116.15 105.09C115.52 104.5 114.88 103.91 114.25 103.33C114.31 103.27 114.36 103.2 114.42 103.14" fill="#BAD531"/>
<path fill-rule="evenodd" clip-rule="evenodd" d="M87.9615 103.35C87.5415 104.52 87.2115 105.72 86.6915 106.84C85.3415 109.77 84.3615 112.81 83.4415 115.89C82.5215 118.95 81.1515 121.89 79.9315 124.87C79.5415 125.83 79.0815 126.79 78.5115 127.68C77.1915 129.73 74.8915 130.39 72.7215 131.1C68.2415 132.55 63.8315 132.07 59.7715 129.87C56.9115 128.32 55.3615 125.71 55.2615 122.52C55.1915 120.21 55.1515 117.85 55.5115 115.58C56.0415 112.24 57.3215 109.15 60.3015 107C62.0515 105.74 64.0515 105.01 66.1915 104.66C69.8915 104.05 73.5915 103.49 77.2915 102.86C77.9515 102.75 78.6015 102.5 79.2215 102.24C80.3315 101.78 81.4315 101.27 82.5315 100.78L82.6915 101.06C78.9415 103.13 75.2215 105.23 71.4515 107.25C69.6415 108.22 67.6815 108.94 65.8915 109.95C63.6015 111.25 61.4715 112.78 60.0415 115.01C58.9615 116.69 59.0615 118.4 59.9515 120.14C61.2415 122.67 63.2315 124.62 65.5815 126.2C66.3315 126.7 67.5115 126.81 68.4915 126.76C72.0315 126.62 74.4115 124.76 76.2715 121.94C78.0415 119.25 78.9415 116.22 80.3615 113.41C81.7415 110.69 83.2815 108.03 84.9215 105.44C85.5215 104.49 86.6315 103.82 87.5115 103.03C87.6615 103.13 87.8215 103.23 87.9815 103.33" fill="#BAD531"/>
<path d="M228.391 198.45V55.6899H270.641V198.45H228.391Z" fill="#242423"/>
<path d="M433.99 198.45V115.14H340.27V198.45H298.02V0H340.27V77.95H433.99V0H476.54V198.45H433.99Z" fill="#242423"/>
<path d="M503.619 0H546.459V117.82C546.459 145.49 561.639 164.53 592.579 164.53C623.519 164.53 638.099 145.49 638.099 117.82V0H680.939V119.01C680.939 168.4 652.679 202.02 592.579 202.02C532.479 202.02 503.619 168.1 503.619 119.31V0Z" fill="#242423"/>
<path d="M708.331 198.45V0H812.761C850.551 0 869.881 24.1 869.881 50.58C869.881 75.57 854.411 92.23 835.661 96.1C856.791 99.37 873.741 119.9 873.741 144.89C873.741 174.64 853.811 198.45 816.021 198.45H708.311H708.331ZM750.591 79.74H803.551C817.831 79.74 826.761 70.52 826.761 57.72C826.761 44.92 817.831 36 803.551 36H750.591V79.74ZM750.591 162.45H805.041C821.111 162.45 830.621 153.22 830.621 138.94C830.621 126.44 821.701 115.73 805.041 115.73H750.591V162.44V162.45Z" fill="#242423"/>
<path d="M0 164.81H198.45V200.61H0V164.81Z" fill="#BAD531"/>
<path d="M490.63 251.75V249.12C488.72 251.22 486.09 252.32 482.99 252.32C479.08 252.32 474.92 249.69 474.92 244.68C474.92 239.67 479.08 237.09 482.99 237.09C486.15 237.09 488.77 238.09 490.63 240.24V236.09C490.63 232.98 488.14 231.21 484.8 231.21C482.03 231.21 479.79 232.22 477.73 234.41L476.06 231.93C478.54 229.35 481.5 228.11 485.28 228.11C490.15 228.11 494.22 230.3 494.22 235.9V251.76H490.63V251.75ZM490.63 242.53C489.24 240.62 486.81 239.67 484.28 239.67C480.94 239.67 478.59 241.77 478.59 244.73C478.59 247.69 480.93 249.74 484.28 249.74C486.81 249.74 489.25 248.78 490.63 246.88V242.53Z" fill="#242423"/>
<path d="M512.529 235.84C512.529 226.05 519.739 219.36 528.769 219.36C534.549 219.36 538.459 222.08 540.999 225.67L537.659 227.53C535.849 224.86 532.549 222.9 528.769 222.9C521.939 222.9 516.629 228.25 516.629 235.84C516.629 243.43 521.929 248.78 528.769 248.78C532.539 248.78 535.839 246.87 537.659 244.15L541.049 246.01C538.369 249.64 534.549 252.32 528.769 252.32C519.739 252.32 512.529 245.63 512.529 235.84Z" fill="#242423"/>
<path d="M556.11 228.11C560.32 228.11 562.8 229.83 564.57 232.12L562.18 234.32C560.65 232.22 558.69 231.31 556.31 231.31C551.39 231.31 548.33 235.08 548.33 240.2C548.33 245.32 551.39 249.13 556.31 249.13C558.7 249.13 560.65 248.17 562.18 246.12L564.57 248.32C562.8 250.61 560.32 252.33 556.11 252.33C549.23 252.33 544.6 247.08 544.6 240.2C544.6 233.32 549.24 228.11 556.11 228.11Z" fill="#242423"/>
<path d="M592.301 251.75V237.13H573.671V251.75H569.711V219.89H573.671V233.6H592.301V219.89H596.261V251.75H592.301Z" fill="#242423"/>
<path d="M603.689 219.89H607.649V239.29C607.649 245.11 610.799 248.79 616.679 248.79C622.559 248.79 625.709 245.11 625.709 239.29V219.89H629.669V239.33C629.669 247.26 625.319 252.32 616.679 252.32C608.039 252.32 603.689 247.21 603.689 239.38V219.89Z" fill="#242423"/>
<path d="M637.1 251.75V219.89H651.29C656.83 219.89 660.22 223.24 660.22 228.01C660.22 232.02 657.55 234.7 654.63 235.32C658.02 235.85 660.84 239.33 660.84 243.16C660.84 248.27 657.45 251.76 651.62 251.76H637.1V251.75ZM641.06 233.69H650.61C654.2 233.69 656.1 231.5 656.1 228.58C656.1 225.66 654.19 223.42 650.61 223.42H641.06V233.69ZM641.06 248.21H650.8C654.53 248.21 656.72 246.11 656.72 242.72C656.72 239.81 654.71 237.23 650.8 237.23H641.06V248.22V248.21Z" fill="#242423"/>
<path d="M678.141 235.84C678.141 226.05 685.351 219.36 694.381 219.36C700.161 219.36 704.071 222.08 706.611 225.67L703.271 227.53C701.461 224.86 698.161 222.9 694.381 222.9C687.551 222.9 682.241 228.25 682.241 235.84C682.241 243.43 687.551 248.78 694.381 248.78C698.151 248.78 701.451 246.87 703.271 244.15L706.661 246.01C703.991 249.64 700.171 252.32 694.391 252.32C685.361 252.32 678.151 245.63 678.151 235.84H678.141Z" fill="#242423"/>
<path d="M710.211 240.19C710.211 233.5 714.611 228.1 721.631 228.1C728.651 228.1 733.051 233.49 733.051 240.19C733.051 246.89 728.661 252.32 721.631 252.32C714.601 252.32 710.211 246.88 710.211 240.19ZM729.271 240.19C729.271 235.51 726.541 231.3 721.631 231.3C716.721 231.3 713.941 235.5 713.941 240.19C713.941 244.88 716.711 249.12 721.631 249.12C726.551 249.12 729.271 244.92 729.271 240.19Z" fill="#242423"/>
<path d="M766.699 251.75V236.08C766.699 233.17 765.409 231.3 762.449 231.3C760.059 231.3 757.529 233.02 756.339 234.84V251.75H752.759V236.08C752.759 233.17 751.519 231.3 748.499 231.3C746.159 231.3 743.679 233.02 742.439 234.88V251.74H738.859V228.67H742.439V232.01C743.399 230.53 746.499 228.1 749.889 228.1C753.279 228.1 755.429 230.01 756.099 232.4C757.389 230.29 760.489 228.1 763.839 228.1C768.049 228.1 770.289 230.44 770.289 235.07V251.74H766.699V251.75Z" fill="#242423"/>
<path d="M780.99 260.54H777.41V228.68H780.99V232.12C782.66 229.78 785.53 228.11 788.78 228.11C794.84 228.11 799.05 232.7 799.05 240.2C799.05 247.7 794.84 252.33 788.78 252.33C785.63 252.33 782.86 250.85 780.99 248.27V260.55V260.54ZM787.87 231.31C785.05 231.31 782.23 232.98 780.99 234.99V245.4C782.23 247.4 785.05 249.12 787.87 249.12C792.51 249.12 795.28 245.3 795.28 240.19C795.28 235.08 792.51 231.3 787.87 231.3V231.31Z" fill="#242423"/>
<path d="M819.229 251.75V249.12C817.319 251.22 814.689 252.32 811.589 252.32C807.679 252.32 803.52 249.69 803.52 244.68C803.52 239.67 807.679 237.09 811.589 237.09C814.749 237.09 817.369 238.09 819.229 240.24V236.09C819.229 232.98 816.739 231.21 813.399 231.21C810.629 231.21 808.39 232.22 806.33 234.41L804.649 231.93C807.139 229.35 810.1 228.11 813.87 228.11C818.74 228.11 822.81 230.3 822.81 235.9V251.76H819.219L819.229 251.75ZM819.229 242.53C817.839 240.62 815.41 239.67 812.88 239.67C809.54 239.67 807.19 241.77 807.19 244.73C807.19 247.69 809.53 249.74 812.88 249.74C815.41 249.74 817.849 248.78 819.229 246.88V242.53Z" fill="#242423"/>
<path d="M845.531 251.75V236.66C845.531 232.6 843.471 231.31 840.371 231.31C837.551 231.31 834.881 233.03 833.541 234.89V251.75H829.961V228.68H833.541V232.02C835.171 230.11 838.321 228.11 841.751 228.11C846.581 228.11 849.111 230.55 849.111 235.56V251.75H845.531Z" fill="#242423"/>
<path d="M855.54 257.53C856.07 257.77 856.93 257.91 857.5 257.91C859.08 257.91 860.13 257.38 860.94 255.47L862.47 251.98L852.82 228.67H856.69L864.38 247.59L872.02 228.67H875.94L864.38 256.42C862.99 259.76 860.66 261.06 857.6 261.1C856.84 261.1 855.64 260.96 854.97 260.76L855.54 257.51V257.53Z" fill="#242423"/>
</svg>
