<svg width="48" height="48" viewBox="0 0 48 48" fill="none" xmlns="http://www.w3.org/2000/svg">
<circle cx="24" cy="24" r="23.5" fill="white" stroke="white"/>
<g clip-path="url(#clip0_5026_2912)">
<path d="M15 21.75H19.5V31.5H15C14.8011 31.5 14.6103 31.421 14.4697 31.2803C14.329 31.1397 14.25 30.9489 14.25 30.75V22.5C14.25 22.3011 14.329 22.1103 14.4697 21.9697C14.6103 21.829 14.8011 21.75 15 21.75Z" stroke="#313235" stroke-width="2" stroke-linecap="round" stroke-linejoin="round"/>
<path d="M19.5 21.75L23.25 14.25C24.0456 14.25 24.8087 14.5661 25.3713 15.1287C25.9339 15.6913 26.25 16.4544 26.25 17.25V19.5H32.0531C32.2658 19.4995 32.4762 19.5445 32.67 19.632C32.8639 19.7195 33.0368 19.8474 33.1771 20.0073C33.3174 20.1671 33.4219 20.3551 33.4835 20.5587C33.5451 20.7623 33.5625 20.9767 33.5344 21.1875L32.4094 30.1875C32.3639 30.5488 32.1885 30.8812 31.9159 31.1227C31.6434 31.3642 31.2923 31.4983 30.9281 31.5H19.5" stroke="#313235" stroke-width="2" stroke-linecap="round" stroke-linejoin="round"/>
</g>
<defs>
<clipPath id="clip0_5026_2912">
<rect width="24" height="24" fill="white" transform="translate(12 12)"/>
</clipPath>
</defs>
</svg>
