<svg width="48" height="48" viewBox="0 0 48 48" fill="none" xmlns="http://www.w3.org/2000/svg">
<circle cx="24" cy="24" r="23.5" fill="white" stroke="white"/>
<g clip-path="url(#clip0_5026_2921)">
<path d="M23.4375 29.5351C23.4375 29.5351 23.5833 29.609 25.0517 30.0025C27.0197 30.478 27.8314 28.205 26.4109 27.3866C26.4109 27.3866 25.6642 27.0271 23.4123 25.9159C21.1604 24.8046 19.8411 24.8461 19.8411 24.8461H15.2216C13.4716 24.8461 12.6079 26.0767 12.6079 27.1724V29.9399C12.6079 31.4146 13.1379 32.6387 15.2305 33.0631C17.9882 33.6197 22.4219 34.3818 25.9493 34.3818C31.5059 34.3818 34.6813 28.7676 35.0747 28.276C35.9989 26.935 34.6602 25.4723 33.3273 25.9857L26.5556 29.7564" stroke="black" stroke-width="2" stroke-linecap="round" stroke-linejoin="round"/>
<path d="M28.1995 21.0384C27.0414 21.04 25.708 22.8728 24.7697 22.1939C23.8314 21.515 25.1547 19.6755 24.7937 18.5747C24.4337 17.4739 22.2724 16.7718 22.6281 15.6696C22.9838 14.5675 25.149 15.2577 26.0846 14.5751C27.0203 13.8926 27.0221 11.6265 28.1803 11.6243C29.3385 11.6226 29.3491 13.888 30.2874 14.567C31.2257 15.2459 33.3848 14.5474 33.7448 15.6482C34.1048 16.7491 31.9496 17.4593 31.5938 18.5615C31.2381 19.6637 32.5686 21.498 31.633 22.1806C30.6973 22.8632 29.3577 21.0361 28.1995 21.0384Z" stroke="black" stroke-width="2" stroke-linecap="round" stroke-linejoin="round"/>
</g>
<defs>
<clipPath id="clip0_5026_2921">
<rect width="28" height="28" fill="white" transform="translate(10 10)"/>
</clipPath>
</defs>
</svg>
