<svg width="40" height="40" viewBox="0 0 40 40" fill="none" xmlns="http://www.w3.org/2000/svg">
<rect width="40" height="40" rx="4" fill="#0E0E10" fill-opacity="0.15"/>
<path d="M8.80689 16.1635H13.7294V30.9768H8.80689V16.1635ZM11.3011 9.02283C9.61632 9.02283 8.51562 10.1289 8.51562 11.5806C8.51562 13.0025 9.58411 14.1407 11.2367 14.1407H11.268C12.985 14.1407 14.0543 13.0024 14.0543 11.5806C14.0221 10.1289 12.9851 9.02283 11.3011 9.02283ZM25.8154 15.8155C23.2025 15.8155 22.0319 17.2527 21.3789 18.2606V16.1635H16.4549C16.5201 17.5531 16.4549 30.9768 16.4549 30.9768H21.3789V22.704C21.3789 22.2609 21.4111 21.8195 21.5407 21.5021C21.8972 20.6176 22.7073 19.7016 24.0662 19.7016C25.8492 19.7016 26.5612 21.0606 26.5612 23.0511V30.9767H31.4844V22.4825C31.4844 17.9326 29.0561 15.8155 25.8154 15.8155Z" fill="white"/>
</svg>
