<svg xmlns="http://www.w3.org/2000/svg" width="77" height="20" viewBox="0 0 77 20" fill="none">
    <path d="M10.3536 13.9593C10.6969 14.9836 11.3653 15.6418 12.2049 16.1357C12.4444 16.276 12.7547 16.2908 13.0091 16.4129C13.5019 16.6513 14.0209 16.5988 14.5262 16.5566C14.9163 16.5235 15.3007 16.3901 15.6794 16.2737C16.1163 16.1391 16.4813 15.8437 16.8943 15.6692C17.2148 15.5346 17.6072 15.5152 17.9346 15.7604C17.9836 15.798 18.0407 15.8254 18.0897 15.8631C18.8072 16.4254 18.5369 17.5673 17.8399 17.8867C17.46 18.0612 17.1156 18.3144 16.738 18.4946C16.4848 18.6155 16.2007 18.6737 15.9292 18.757C15.8346 18.7867 15.7376 18.8106 15.6406 18.8323C15.4581 18.8733 15.2745 18.9395 15.0908 18.9441C14.4749 18.9578 13.8589 18.9532 13.2429 18.9441C13.1095 18.9418 12.9771 18.8882 12.8448 18.8551C12.7479 18.83 12.6532 18.7809 12.5562 18.7752C12.1501 18.7513 11.7954 18.5813 11.4315 18.4216C10.9878 18.2277 10.5726 17.987 10.1813 17.7087C9.64633 17.3277 9.17066 16.8737 8.84214 16.3022C8.52275 15.7456 8.25469 15.1581 7.97294 14.5809C7.93644 14.5068 7.95241 14.4076 7.93529 14.322C7.90107 14.1509 7.86001 13.9821 7.82237 13.8121C7.79727 13.7026 7.75393 13.5931 7.75164 13.4836C7.74252 12.968 7.66267 12.4353 7.76647 11.9425C7.88853 11.3585 7.92161 10.738 8.27066 10.2064C8.45773 9.92008 8.54214 9.56875 8.72579 9.27902C9.19461 8.53757 9.81287 7.93985 10.5612 7.47673C11.0117 7.1984 11.468 6.91437 11.9745 6.77407C12.3384 6.67254 12.6988 6.51741 13.0992 6.53224C13.6387 6.55277 14.1794 6.53224 14.7201 6.53224C15.2266 6.53224 15.6851 6.71703 16.1619 6.85962C16.795 7.04783 17.3129 7.4254 17.8661 7.74251C18.3315 8.00943 18.668 8.43491 18.9874 8.85924C19.381 9.38282 19.6798 9.96685 19.9171 10.5737C20.0505 10.9148 20.119 11.2946 20.1384 11.6608C20.1612 12.1068 20.2376 12.5539 20.168 13.0068C20.1327 13.2349 20.046 13.4083 19.8829 13.5498C19.6148 13.7825 19.3228 13.9239 18.9452 13.9228C16.2543 13.9114 13.5646 13.9159 10.8737 13.9182C10.7163 13.9182 10.5589 13.9444 10.3581 13.9615L10.3536 13.9593ZM10.4437 11.4555C10.7334 11.5501 17.1783 11.5604 17.5684 11.4577C17.5638 11.3596 17.5844 11.2421 17.5479 11.1475C17.4806 10.9741 17.3859 10.811 17.2912 10.6501C17.0095 10.1722 16.5829 9.83111 16.1551 9.49917C15.9349 9.32921 15.668 9.20829 15.4045 9.10905C14.8467 8.89917 14.2616 8.89346 13.6718 8.89917C13.0764 8.90487 12.5505 9.11362 12.0486 9.39195C11.5536 9.66457 11.176 10.0764 10.8406 10.5281C10.633 10.8064 10.4254 11.0824 10.4425 11.4566L10.4437 11.4555Z" fill="#5D5F65"/>
    <path d="M0.935876 14.738C0.95983 13.7079 0.983784 12.6768 1.00888 11.6467C1.01344 11.446 1.04994 11.2623 1.14918 11.073C1.26782 10.8471 1.28949 10.5722 1.38987 10.3349C1.5815 9.88208 1.8336 9.46345 2.11763 9.05736C2.54539 8.44481 3.08265 7.94975 3.69292 7.54367C4.10014 7.27218 4.5279 7.01667 5.01954 6.89348C5.35376 6.81021 5.66859 6.61629 6.00395 6.57864C6.52525 6.52047 7.06251 6.50564 7.58267 6.56496C7.8724 6.59804 8.15073 6.80678 8.27278 7.12732C8.32867 7.27675 8.41537 7.42275 8.43134 7.57675C8.47811 8.03302 8.15529 8.53036 7.72411 8.73911C7.54388 8.82694 7.37734 8.93417 7.16175 8.9182C6.23779 8.85318 5.46099 9.22732 4.7606 9.77485C3.99976 10.3703 3.54919 11.1357 3.41687 12.1201C3.28912 13.076 3.34957 14.0273 3.33132 14.981C3.31421 15.849 3.33132 16.7171 3.32562 17.584C3.32448 17.9091 3.26972 18.2159 3.09634 18.5114C2.96174 18.7418 2.74843 18.8422 2.5431 18.9232C2.03664 19.1239 1.3739 18.9026 1.11268 18.4395C1.00318 18.2456 0.967815 17.9878 0.964393 17.7574C0.949564 16.7513 0.957548 15.7452 0.957548 14.7391H0.933594L0.935876 14.738Z" fill="#5D5F65"/>
    <path d="M31.8535 14.3493C32.2996 15.4124 32.9908 16.1059 33.9285 16.593C34.6893 16.9877 35.4969 17.0333 36.2977 16.9158C36.9 16.8268 37.4965 16.6204 38.0304 16.2873C38.279 16.1321 38.5197 15.9622 38.846 15.9736C39.4083 15.993 39.7745 16.2827 39.981 16.7732C40.1578 17.193 40.0448 17.5888 39.7574 17.9242C39.4471 18.2869 39.0296 18.5128 38.6178 18.7363C38.36 18.8766 38.0874 19.0021 37.8057 19.0854C37.4384 19.1938 37.0585 19.3021 36.6798 19.3215C35.9908 19.358 35.2973 19.3363 34.606 19.3238C34.4486 19.3215 34.2923 19.2588 34.1372 19.2177C34.0653 19.1995 33.998 19.1493 33.9273 19.1458C33.4517 19.1196 33.0513 18.8732 32.6395 18.6839C31.7714 18.2846 31.0847 17.639 30.4996 16.8987C30.2361 16.5656 30.0558 16.1652 29.8402 15.7945C29.5767 15.3405 29.4855 14.8226 29.3144 14.3344C29.3098 14.323 29.3053 14.3105 29.3053 14.2979C29.3053 13.4937 29.3053 12.6895 29.3075 11.8854C29.6383 10.634 30.211 9.5344 31.1395 8.59904C31.7064 8.02756 32.3623 7.63288 33.0695 7.32033C33.9729 6.92109 34.9403 6.85264 35.9258 6.8823C36.4209 6.89713 36.9057 6.97242 37.3608 7.115C38.3452 7.42299 39.2692 7.89067 40.0003 8.63212C40.3939 9.03136 40.727 9.49562 41.0144 9.99638C41.2152 10.3443 41.3327 10.7184 41.5003 11.0732C41.6087 11.3036 41.6361 11.5831 41.6521 11.8443C41.6851 12.3816 41.7239 12.9234 41.6886 13.4595C41.6578 13.9226 41.1159 14.2762 40.7235 14.2968C40.5604 14.3048 40.3962 14.3025 40.233 14.3025C37.63 14.3025 35.0269 14.3025 32.4239 14.3048C32.2551 14.3048 32.0851 14.331 31.8513 14.3493H31.8535ZM39.0593 11.826C39.0661 11.7599 39.0981 11.6789 39.0764 11.6162C38.9007 11.1234 38.6612 10.6682 38.2437 10.3317C37.8992 10.0546 37.5433 9.80475 37.1292 9.62224C36.7973 9.47623 36.4585 9.33593 36.1106 9.31539C35.5562 9.28345 35.0041 9.24695 34.4418 9.4306C34.0699 9.55265 33.722 9.7192 33.4094 9.91311C32.9885 10.1743 32.5836 10.4949 32.3247 10.9477C32.1672 11.2226 31.9539 11.4747 31.9836 11.8192C32.2939 11.9241 38.7079 11.9298 39.0593 11.826Z" fill="#5D5F65"/>
    <path d="M55.0635 15.5526C55.0635 16.3705 55.0658 17.1872 55.0635 18.0051C55.0624 18.4089 54.9198 18.7956 54.6369 19.0466C54.2045 19.4275 53.5897 19.5108 53.0844 19.0431C52.9087 18.88 52.7228 18.718 52.6886 18.4397C52.6612 18.2116 52.4935 18.1568 52.3167 18.2994C51.8696 18.6587 51.3631 18.9211 50.827 19.0933C50.4049 19.2291 49.9498 19.2804 49.5061 19.3272C49.1581 19.3637 48.8023 19.3363 48.4509 19.3351C48.1247 19.334 47.8064 19.3249 47.4916 19.1891C47.2452 19.0831 46.9646 19.0888 46.7011 18.9895C46.1068 18.7648 45.5581 18.4694 45.0311 18.1215C44.203 17.5739 43.676 16.7914 43.2083 15.9359C42.9847 15.5275 42.9186 15.0735 42.7064 14.6697C42.7007 14.6583 42.6973 14.6458 42.6962 14.6332C42.6414 14.0868 42.484 13.5256 42.5615 12.9998C42.6368 12.4922 42.5547 11.9389 42.8444 11.4667C42.9266 10.7652 43.3144 10.188 43.6783 9.62561C44.1927 8.83055 44.8635 8.15983 45.7156 7.71724C46.1616 7.48454 46.6327 7.28606 47.1106 7.13321C47.4848 7.01344 47.8874 6.96096 48.281 6.9256C48.6677 6.89138 49.06 6.91305 49.449 6.91876C49.9521 6.9256 50.4198 7.08758 50.8931 7.23929C51.2274 7.34652 51.5274 7.50735 51.8399 7.6545C52.489 7.96021 53.0182 8.40051 53.4871 8.93892C53.9068 9.42029 54.2217 9.96325 54.4954 10.5302C54.6118 10.7709 54.6106 11.072 54.7373 11.3047C55.0019 11.7906 54.8388 12.3496 55.0464 12.8401C55.0829 12.9268 55.0624 13.0385 55.0635 13.1389C55.0635 13.9443 55.0635 14.7484 55.0635 15.5538V15.5526ZM52.5745 13.1925C52.5289 12.7203 52.5642 12.2572 52.3601 11.7929C52.1536 11.323 51.8639 10.9146 51.6095 10.48C51.581 10.4309 51.5182 10.4001 51.4703 10.3614C50.949 9.94158 50.4061 9.59823 49.7353 9.41116C48.9756 9.19899 48.2718 9.30736 47.5703 9.52979C47.0798 9.68493 46.6669 10.0089 46.2756 10.3499C45.6779 10.8712 45.2365 11.5249 45.095 12.28C44.9593 13.0032 44.9228 13.7629 45.2273 14.4986C45.6311 15.4762 46.311 16.156 47.2578 16.5861C47.4585 16.6773 47.6935 16.7002 47.884 16.8051C48.1429 16.9465 48.4121 16.9523 48.687 16.9477C49.1228 16.9408 49.562 16.9979 49.976 16.7709C50.2327 16.6306 50.5304 16.5656 50.7928 16.4344C51.2935 16.1868 51.6323 15.7557 51.9722 15.3302C52.2825 14.9435 52.4239 14.4827 52.5289 14.0161C52.5882 13.7503 52.562 13.4652 52.5745 13.1914V13.1925Z" fill="#5D5F65"/>
    <path d="M63.7127 15.3678C63.7127 14.6263 63.7435 13.8826 63.7024 13.1423C63.6705 12.5788 63.7845 12.037 63.9191 11.5157C64.0264 11.1016 64.1724 10.6784 64.4028 10.2849C64.6013 9.94723 64.7598 9.57879 65.0051 9.26852C65.5195 8.61833 66.1195 8.07308 66.8553 7.66585C67.2591 7.44228 67.68 7.26889 68.1077 7.12745C68.6268 6.95635 69.1697 6.85939 69.7275 6.89019C70.0914 6.90958 70.4564 6.90045 70.8214 6.91072C71.2617 6.92327 71.6747 7.05673 72.0728 7.23354C72.456 7.4035 72.8336 7.58601 73.2146 7.76053C73.7085 7.98525 74.1055 8.33658 74.4671 8.73012C74.953 9.2594 75.3523 9.85141 75.6842 10.4868C75.8028 10.7149 75.8188 10.9967 75.9408 11.2214C76.177 11.6571 76.0697 12.1602 76.25 12.6039C76.2899 12.7031 76.2705 12.8275 76.2705 12.9404C76.2705 14.6126 76.2705 16.2849 76.2717 17.9583C76.2717 18.3062 76.1644 18.613 75.9808 18.9085C75.8359 19.1412 75.6032 19.253 75.3842 19.3111C74.9804 19.4172 74.5583 19.3933 74.2184 19.0956C74.1021 18.9929 73.9937 18.848 73.9503 18.702C73.8739 18.4431 73.7644 18.1956 73.7678 17.9058C73.7827 16.4092 73.7758 14.9126 73.7735 13.4161C73.7735 13.1651 73.7348 12.9107 73.7621 12.6632C73.8066 12.2651 73.6412 11.9161 73.4952 11.5864C73.323 11.1997 73.0572 10.8461 72.7846 10.5176C72.4754 10.1469 72.0614 9.89818 71.6348 9.66776C70.9332 9.28906 70.1815 9.2286 69.4195 9.31643C68.8526 9.38145 68.3382 9.63012 67.8477 9.93126C67.2477 10.2997 66.8176 10.8199 66.5325 11.4415C66.4081 11.713 66.3089 12.0096 66.237 12.3176C65.9918 13.3773 66.1503 14.4415 66.1138 15.5024C66.0842 16.3819 66.091 17.2636 66.1138 18.1431C66.1275 18.6712 65.8731 19.0123 65.4579 19.2644C64.9766 19.5575 64.1279 19.2644 63.8678 18.7636C63.7401 18.5161 63.7093 18.2743 63.7104 18.0108C63.715 17.1301 63.7115 16.2507 63.7115 15.3701L63.7127 15.3678Z" fill="#5D5F65"/>
    <path d="M25.8361 9.95568C25.8361 7.29103 25.8361 4.62639 25.8361 1.9606C25.8361 1.51459 25.9707 1.12105 26.3539 0.871242C26.6437 0.681888 26.9573 0.514207 27.3258 0.687591C27.4695 0.754892 27.6281 0.794817 27.765 0.873524C28.1767 1.10737 28.1984 1.53855 28.2748 1.93665C28.2965 2.04615 28.2794 2.1625 28.2794 2.27543C28.2794 7.44161 28.2771 12.6078 28.2863 17.774C28.2863 18.1082 28.2361 18.4299 28.1277 18.7299C28.0034 19.0732 27.7045 19.2774 27.3406 19.3401C27.157 19.3709 26.9642 19.3538 26.776 19.347C26.3813 19.331 26.1201 19.0903 25.9912 18.7561C25.8862 18.4835 25.8418 18.1709 25.8406 17.8755C25.8292 15.2359 25.8338 12.5964 25.8338 9.95682L25.8361 9.95568Z" fill="#5D5F65"/>
    <path d="M56.4663 15.2822C56.4663 14.3012 56.4378 13.3179 56.48 12.3392C56.4982 11.9286 56.6659 11.5236 56.7697 11.1164C56.8096 10.959 56.8404 10.797 56.9055 10.6499C57.2499 9.86279 57.7439 9.18066 58.3553 8.57723C58.9074 8.03198 59.5644 7.64871 60.2636 7.33844C60.5659 7.20384 60.9195 7.18902 61.2252 7.0624C61.7602 6.84111 62.3123 6.91753 62.8587 6.91411C63.3766 6.91069 63.8431 7.38978 63.8671 7.90993C63.8865 8.32058 63.8671 8.7221 63.4884 8.9856C63.2682 9.13845 63.0549 9.3107 62.7549 9.29815C62.0682 9.26963 61.45 9.47495 60.8431 9.79891C60.2956 10.0909 59.8507 10.4799 59.504 10.9727C59.2644 11.3126 59.1355 11.7164 58.9986 12.1168C58.7591 12.8217 58.8617 13.5335 58.8515 14.243C58.8321 15.5514 58.8401 16.8598 58.8492 18.1681C58.8526 18.6894 58.5948 19.1001 58.1648 19.27C57.4017 19.5723 56.5062 19.2643 56.4686 18.264C56.4309 17.2716 56.4606 16.2769 56.4606 15.2822H56.4674H56.4663Z" fill="#5D5F65"/>
    <path d="M22.0368 15.7976C21.9809 15.4737 22.0562 15.1885 22.2775 14.9569C22.5341 14.6889 22.8923 14.6147 23.2299 14.5805C23.7592 14.528 24.406 15.2033 24.4162 15.76C24.4288 16.3942 23.782 17.0923 23.1706 17.041C22.8581 17.0147 22.5261 16.9087 22.3014 16.6531C22.0892 16.4125 21.966 16.1261 22.0368 15.7976Z" fill="#5D5F65"/>
    <path d="M23.2335 9.68652C23.8917 9.69223 24.4392 10.1907 24.4118 10.8021C24.3833 11.4192 23.8347 12.0877 23.1947 12.082C22.8388 12.0785 22.5708 11.8892 22.3084 11.6884C21.997 11.45 22.0244 11.1021 22.0267 10.7656C22.0301 10.0823 22.4818 9.68082 23.2347 9.68766L23.2335 9.68652Z" fill="#5D5F65"/>
</svg>
