<svg width="108" height="28" viewBox="0 0 108 28" fill="none" xmlns="http://www.w3.org/2000/svg">
<path d="M14.0512 19.5437C14.5319 20.9778 15.4677 21.8993 16.6431 22.5908C16.9785 22.7872 17.4128 22.8079 17.769 22.9788C18.4588 23.3126 19.1855 23.2391 19.8929 23.18C20.4391 23.1337 20.9773 22.9469 21.5074 22.784C22.1191 22.5955 22.6301 22.1819 23.2082 21.9376C23.657 21.7492 24.2063 21.722 24.6646 22.0653C24.7333 22.118 24.8132 22.1564 24.8818 22.2091C25.8863 22.9964 25.5078 24.5949 24.5321 25.0421C24.0003 25.2864 23.518 25.641 22.9894 25.8933C22.6349 26.0625 22.2373 26.144 21.8572 26.2606C21.7246 26.3021 21.5889 26.3356 21.4531 26.366C21.1976 26.4235 20.9405 26.5161 20.6834 26.5225C19.8211 26.5416 18.9587 26.5353 18.0963 26.5225C17.9095 26.5193 17.7242 26.4442 17.539 26.3979C17.4032 26.3628 17.2707 26.2941 17.135 26.2861C16.5664 26.2526 16.0698 26.0146 15.5604 25.7911C14.9391 25.5196 14.3578 25.1826 13.8101 24.793C13.0611 24.2596 12.3952 23.624 11.9352 22.8239C11.4881 22.0446 11.1128 21.2222 10.7184 20.4141C10.6673 20.3103 10.6896 20.1714 10.6657 20.0516C10.6178 19.812 10.5603 19.5757 10.5076 19.3377C10.4724 19.1844 10.4117 19.0311 10.4085 18.8778C10.3958 18.156 10.284 17.4102 10.4293 16.7203C10.6002 15.9027 10.6465 15.0339 11.1352 14.2897C11.3971 13.8889 11.5152 13.397 11.7724 12.9914C12.4287 11.9534 13.2943 11.1166 14.3419 10.4682C14.9727 10.0785 15.6115 9.6809 16.3205 9.48447C16.8299 9.34234 17.3346 9.12516 17.8951 9.14592C18.6505 9.17466 19.4074 9.14592 20.1644 9.14592C20.8734 9.14592 21.5154 9.40462 22.183 9.60424C23.0693 9.86774 23.7943 10.3963 24.5688 10.8403C25.2204 11.214 25.6915 11.8097 26.1386 12.4037C26.6896 13.1367 27.108 13.9544 27.4402 14.804C27.627 15.2814 27.7228 15.8132 27.75 16.3259C27.7819 16.9503 27.8889 17.5763 27.7915 18.2103C27.742 18.5297 27.6206 18.7724 27.3923 18.9704C27.017 19.2962 26.6081 19.4942 26.0796 19.4926C22.3123 19.4767 18.5467 19.4831 14.7794 19.4863C14.5591 19.4863 14.3387 19.523 14.0576 19.5469L14.0512 19.5437ZM14.1774 16.0384C14.583 16.171 23.6059 16.1853 24.152 16.0416C24.1456 15.9043 24.1744 15.7398 24.1233 15.6072C24.0291 15.3645 23.8965 15.1361 23.764 14.911C23.3695 14.2418 22.7722 13.7643 22.1734 13.2996C21.8652 13.0617 21.4915 12.8924 21.1226 12.7535C20.3417 12.4596 19.5224 12.4516 18.6968 12.4596C17.8632 12.4676 17.127 12.7598 16.4243 13.1495C15.7312 13.5312 15.2026 14.1077 14.7331 14.7401C14.4425 15.1297 14.1518 15.5162 14.1758 16.04L14.1774 16.0384Z" fill="#E23F27"/>
<path d="M0.866476 20.6329C0.900012 19.1909 0.933548 17.7472 0.968681 16.3052C0.975069 16.0241 1.02617 15.767 1.16511 15.5019C1.33119 15.1857 1.36153 14.8008 1.50207 14.4687C1.77036 13.8347 2.12329 13.2486 2.52093 12.6801C3.11979 11.8225 3.87196 11.1294 4.72634 10.5609C5.29645 10.1808 5.89531 9.82309 6.5836 9.65062C7.05151 9.53404 7.49228 9.26256 7.96178 9.20986C8.6916 9.12841 9.44377 9.10765 10.172 9.1907C10.5776 9.23701 10.9673 9.52925 11.1381 9.978C11.2164 10.1872 11.3378 10.3916 11.3601 10.6072C11.4256 11.246 10.9737 11.9423 10.37 12.2345C10.1177 12.3575 9.88453 12.5076 9.5827 12.4852C8.28916 12.3942 7.20163 12.918 6.22109 13.6845C5.15592 14.5182 4.52512 15.5897 4.33987 16.9679C4.16101 18.3062 4.24565 19.638 4.2201 20.9731C4.19614 22.1884 4.2201 23.4037 4.21211 24.6174C4.21052 25.0725 4.13386 25.5021 3.89112 25.9157C3.70268 26.2383 3.40405 26.3788 3.1166 26.4922C2.40754 26.7733 1.47971 26.4635 1.114 25.8151C0.960696 25.5436 0.911191 25.1827 0.9064 24.8601C0.885639 23.4516 0.896817 22.0431 0.896817 20.6345H0.863281L0.866476 20.6329Z" fill="#E23F27"/>
<path d="M44.1496 20.0916C44.7741 21.58 45.7418 22.551 47.0545 23.2329C48.1197 23.7854 49.2503 23.8493 50.3714 23.6848C51.2146 23.5602 52.0498 23.2712 52.7972 22.8049C53.1453 22.5877 53.4823 22.3497 53.939 22.3657C54.7263 22.3929 55.239 22.7985 55.528 23.4852C55.7755 24.0729 55.6174 24.627 55.215 25.0965C54.7806 25.6044 54.1961 25.9206 53.6196 26.2336C53.2587 26.43 52.8771 26.6057 52.4826 26.7222C51.9684 26.8739 51.4366 27.0257 50.9064 27.0528C49.9418 27.1039 48.9709 27.0736 48.0031 27.056C47.7827 27.0528 47.564 26.965 47.3468 26.9075C47.2462 26.8819 47.1519 26.8117 47.0529 26.8069C46.387 26.7701 45.8265 26.4252 45.25 26.1601C44.0347 25.6012 43.0733 24.6973 42.2541 23.6608C41.8852 23.1945 41.6328 22.634 41.331 22.115C40.9621 21.4794 40.8343 20.7544 40.5948 20.0709C40.5884 20.0549 40.582 20.0373 40.582 20.0198C40.582 18.8939 40.582 17.7681 40.5852 16.6422C41.0483 14.8903 41.85 13.3509 43.1499 12.0413C43.9436 11.2413 44.8619 10.6887 45.852 10.2511C47.1168 9.69221 48.471 9.59639 49.8508 9.63791C50.5439 9.65867 51.2226 9.76407 51.8598 9.96369C53.238 10.3949 54.5315 11.0496 55.5552 12.0877C56.1061 12.6466 56.5724 13.2966 56.9749 13.9976C57.2559 14.4847 57.4204 15.0085 57.6552 15.5052C57.8069 15.8277 57.8452 16.219 57.8676 16.5847C57.9139 17.3369 57.9682 18.0954 57.9187 18.846C57.8755 19.4944 57.117 19.9894 56.5676 20.0182C56.3393 20.0294 56.1093 20.0262 55.8809 20.0262C52.2367 20.0262 48.5924 20.0262 44.9481 20.0294C44.7118 20.0294 44.4738 20.0661 44.1465 20.0916H44.1496ZM54.2377 16.5591C54.2472 16.4665 54.292 16.3531 54.2616 16.2653C54.0157 15.5754 53.6803 14.9382 53.0958 14.4671C52.6136 14.0791 52.1153 13.7293 51.5356 13.4738C51.0709 13.2694 50.5966 13.073 50.1095 13.0442C49.3334 12.9995 48.5605 12.9484 47.7732 13.2055C47.2525 13.3764 46.7655 13.6096 46.3279 13.881C45.7386 14.2467 45.1717 14.6955 44.8092 15.3295C44.5888 15.7144 44.2902 16.0673 44.3317 16.5496C44.7661 16.6965 53.7458 16.7045 54.2377 16.5591Z" fill="#474E5D"/>
<path d="M76.6436 21.7766C76.6436 22.9216 76.6468 24.0651 76.6436 25.2101C76.642 25.7754 76.4423 26.3168 76.0463 26.6681C75.441 27.2015 74.5803 27.3181 73.8728 26.6633C73.6269 26.4349 73.3666 26.2082 73.3187 25.8185C73.2804 25.4991 73.0456 25.4225 72.7981 25.6221C72.1721 26.1251 71.463 26.4924 70.7124 26.7336C70.1216 26.9236 69.4844 26.9955 68.8632 27.061C68.3761 27.1121 67.8778 27.0737 67.386 27.0721C66.9292 27.0705 66.4837 27.0578 66.0429 26.8677C65.698 26.7192 65.3051 26.7272 64.9362 26.5883C64.1042 26.2737 63.3361 25.86 62.5983 25.373C61.4389 24.6064 60.7011 23.5109 60.0463 22.3132C59.7333 21.7415 59.6407 21.1059 59.3437 20.5406C59.3357 20.5246 59.3309 20.507 59.3293 20.4895C59.2526 19.7245 59.0322 18.9388 59.1408 18.2026C59.2462 17.492 59.1313 16.7174 59.5369 16.0563C59.6519 15.0741 60.1948 14.2661 60.7043 13.4788C61.4245 12.3657 62.3635 11.4267 63.5564 10.8071C64.1809 10.4813 64.8404 10.2034 65.5095 9.98942C66.0333 9.82174 66.5971 9.74828 67.148 9.69877C67.6894 9.65086 68.2387 9.68121 68.7833 9.68919C69.4876 9.69877 70.1423 9.92554 70.8051 10.1379C71.273 10.2881 71.693 10.5132 72.1305 10.7192C73.0392 11.1472 73.7802 11.7636 74.4366 12.5174C75.0242 13.1913 75.465 13.9515 75.8483 14.7452C76.0112 15.0821 76.0096 15.5037 76.1868 15.8295C76.5573 16.5098 76.329 17.2923 76.6196 17.979C76.6707 18.1004 76.642 18.2569 76.6436 18.3974C76.6436 19.5249 76.6436 20.6507 76.6436 21.7782V21.7766ZM73.159 18.4725C73.0951 17.8113 73.1446 17.163 72.8588 16.513C72.5697 15.8551 72.1641 15.2834 71.808 14.6749C71.768 14.6062 71.6802 14.5631 71.6131 14.5088C70.8833 13.9211 70.1232 13.4405 69.1841 13.1786C68.1206 12.8815 67.1352 13.0332 66.1531 13.3446C65.4664 13.5618 64.8883 14.0154 64.3406 14.4929C63.5037 15.2227 62.8857 16.1377 62.6877 17.1949C62.4977 18.2074 62.4466 19.271 62.8729 20.301C63.4383 21.6696 64.3901 22.6214 65.7155 23.2235C65.9966 23.3512 66.3256 23.3832 66.5923 23.5301C66.9548 23.7281 67.3317 23.7361 67.7165 23.7297C68.3266 23.7201 68.9414 23.8 69.5211 23.4822C69.8804 23.2857 70.2972 23.1947 70.6645 23.0111C71.3656 22.6645 71.8399 22.0609 72.3158 21.4652C72.7502 20.9238 72.9482 20.2787 73.0951 19.6255C73.1782 19.2534 73.1414 18.8542 73.159 18.4709V18.4725Z" fill="#474E5D"/>
<path d="M88.7534 21.5177C88.7534 20.4797 88.7965 19.4384 88.739 18.402C88.6943 17.6131 88.854 16.8545 89.0424 16.1247C89.1926 15.545 89.397 14.9526 89.7196 14.4016C89.9974 13.9289 90.2194 13.4131 90.5628 12.9787C91.283 12.0684 92.123 11.3051 93.153 10.735C93.7184 10.422 94.3076 10.1792 94.9065 9.98121C95.6331 9.74167 96.3933 9.60593 97.1742 9.64905C97.6836 9.67619 98.1946 9.66342 98.7057 9.67779C99.3221 9.69536 99.9002 9.8822 100.458 10.1297C100.994 10.3677 101.523 10.6232 102.056 10.8675C102.748 11.1821 103.303 11.674 103.81 12.2249C104.49 12.9659 105.049 13.7948 105.514 14.6843C105.68 15.0037 105.702 15.3981 105.873 15.7127C106.203 16.3228 106.053 17.027 106.306 17.6482C106.362 17.7872 106.334 17.9612 106.334 18.1193C106.334 20.4605 106.334 22.8016 106.336 25.1444C106.336 25.6315 106.186 26.061 105.929 26.4747C105.726 26.8004 105.4 26.9569 105.094 27.0384C104.528 27.1869 103.937 27.1534 103.461 26.7366C103.299 26.5928 103.147 26.39 103.086 26.1856C102.979 25.8231 102.826 25.4766 102.831 25.0709C102.851 22.9757 102.842 20.8805 102.839 18.7853C102.839 18.4339 102.784 18.0778 102.823 17.7313C102.885 17.1739 102.653 16.6853 102.449 16.2237C102.208 15.6824 101.836 15.1873 101.454 14.7274C101.021 14.2084 100.442 13.8602 99.8443 13.5377C98.8622 13.0075 97.8098 12.9228 96.743 13.0458C95.9493 13.1368 95.2291 13.485 94.5424 13.9066C93.7024 14.4224 93.1003 15.1506 92.7011 16.0209C92.527 16.401 92.3881 16.8162 92.2875 17.2474C91.9441 18.731 92.1661 20.2209 92.115 21.7061C92.0735 22.9374 92.0831 24.1718 92.115 25.4031C92.1342 26.1425 91.778 26.62 91.1967 26.9729C90.5228 27.3833 89.3347 26.9729 88.9706 26.2718C88.7917 25.9253 88.7486 25.5867 88.7502 25.2178C88.7566 23.985 88.7518 22.7537 88.7518 21.5209L88.7534 21.5177Z" fill="#474E5D"/>
<path d="M35.7261 13.9403C35.7261 10.2097 35.7261 6.47924 35.7261 2.74713C35.7261 2.12272 35.9146 1.57177 36.4512 1.22203C36.8568 0.956938 37.2959 0.722184 37.8118 0.964923C38.013 1.05914 38.235 1.11504 38.4266 1.22523C39.0031 1.55261 39.0334 2.15626 39.1404 2.7136C39.1708 2.86691 39.1468 3.0298 39.1468 3.1879C39.1468 10.4205 39.1436 17.6532 39.1564 24.8858C39.1564 25.3538 39.0861 25.8041 38.9344 26.2241C38.7604 26.7048 38.342 26.9906 37.8325 27.0785C37.5754 27.1216 37.3055 27.0976 37.042 27.0881C36.4895 27.0657 36.1238 26.7287 35.9433 26.2608C35.7964 25.8791 35.7341 25.4416 35.7325 25.028C35.7166 21.3326 35.7229 17.6372 35.7229 13.9418L35.7261 13.9403Z" fill="#474E5D"/>
<path d="M78.6075 21.3979C78.6075 20.0245 78.5676 18.6479 78.6267 17.2777C78.6522 16.7028 78.887 16.1359 79.0323 15.5657C79.0882 15.3454 79.1313 15.1186 79.2223 14.9126C79.7046 13.8107 80.3961 12.8557 81.2521 12.0109C82.025 11.2476 82.9449 10.711 83.9238 10.2766C84.347 10.0882 84.8421 10.0674 85.27 9.89014C86.019 9.58033 86.7919 9.68733 87.5569 9.68253C88.2819 9.67774 88.9351 10.3485 88.9686 11.0767C88.9958 11.6516 88.9686 12.2137 88.4384 12.5826C88.1302 12.7966 87.8316 13.0378 87.4116 13.0202C86.4502 12.9803 85.5846 13.2677 84.7351 13.7213C83.9685 14.1301 83.3457 14.6746 82.8602 15.3645C82.5249 15.8404 82.3444 16.4058 82.1528 16.9663C81.8174 17.9532 81.9611 18.9497 81.9468 19.943C81.9196 21.7747 81.9308 23.6065 81.9436 25.4382C81.9484 26.168 81.5874 26.7429 80.9854 26.9808C79.917 27.404 78.6634 26.9729 78.6107 25.5723C78.558 24.183 78.5995 22.7904 78.5995 21.3979H78.6091H78.6075Z" fill="#474E5D"/>
<path d="M30.407 22.1181C30.3287 21.6646 30.4341 21.2654 30.7439 20.9412C31.1032 20.5659 31.6047 20.4621 32.0774 20.4142C32.8184 20.3407 33.7238 21.2861 33.7382 22.0654C33.7558 22.9534 32.8503 23.9307 31.9943 23.8588C31.5568 23.8221 31.0921 23.6736 30.7774 23.3159C30.4804 22.9789 30.3079 22.5781 30.407 22.1181Z" fill="#474E5D"/>
<path d="M32.0824 13.5635C33.0038 13.5715 33.7704 14.2693 33.7321 15.1253C33.6921 15.9893 32.924 16.9251 32.0281 16.9171C31.5298 16.9123 31.1546 16.6472 30.7872 16.3661C30.3513 16.0324 30.3896 15.5453 30.3928 15.0742C30.3976 14.1176 31.03 13.5555 32.084 13.5651L32.0824 13.5635Z" fill="#474E5D"/>
</svg>
