<svg width="900" height="259" viewBox="0 0 900 259" fill="none" xmlns="http://www.w3.org/2000/svg">
<path d="M804.014 95.2612C805.499 92.9264 828.423 91.8651 829.908 93.7754C829.908 98.0204 829.696 105.449 829.484 106.935C833.729 99.5062 846.252 91.2284 861.958 91.2284C884.245 91.2284 899.739 108.421 899.739 135.801C899.739 149.173 898.89 185.256 898.041 196.08C897.829 198.415 873.632 197.566 872.995 197.142C871.934 196.717 873.42 146.201 873.42 137.924C873.42 124.764 866.628 115.001 853.044 115.001C838.823 115.001 830.121 125.613 830.121 135.801C830.121 144.079 829.696 194.382 829.059 195.019C828.635 196.08 804.65 195.444 804.014 194.17C803.801 193.321 803.589 139.622 804.014 95.2612Z" fill="#101110"/>
<path d="M793.815 92.771C796.786 94.2567 793.602 117.18 790.631 120.576C787.023 119.727 781.292 118.666 776.622 118.666C766.434 118.878 759.218 126.731 757.095 136.919C756.671 140.527 758.156 195.076 757.732 195.713C757.307 196.562 730.776 196.986 730.352 195.713C729.927 194.864 729.927 99.563 730.564 95.318C731.837 92.1342 754.548 91.073 756.034 92.9832C756.458 97.6527 756.034 106.992 755.822 108.053C764.099 94.0445 780.018 90.6484 793.815 92.771Z" fill="#101110"/>
<path d="M633.255 113.917C633.892 110.308 647.264 91.6304 674.007 91.6304C700.963 91.6304 718.368 107.549 718.368 138.326C718.368 159.763 717.094 194.36 716.67 195.421C716.033 196.695 695.02 195.421 695.02 195.421L693.747 186.294C690.563 189.478 681.436 197.756 665.729 197.756C641.108 197.756 630.708 183.323 630.708 166.13C630.708 146.179 647.476 133.656 669.338 133.656C680.587 133.656 687.804 137.264 692.261 141.297C692.261 126.227 690.351 114.766 670.611 114.766C654.48 114.766 649.174 125.591 647.264 125.803C645.353 126.015 633.255 115.827 633.255 113.917ZM648.271 164.055C648.271 176.824 655.999 183.913 667.556 183.654C682.531 183.654 685.302 173.993 685.302 163.843C685.302 154.079 678.204 148.136 667.167 148.136C656.13 148.136 648.271 153.101 648.271 164.055Z" fill="#101110"/>
<path d="M553.649 151.111C553.649 165.969 565.11 175.096 580.817 175.096C593.552 175.096 601.405 170.426 607.348 165.969C609.046 167.455 616.475 181.675 616.687 184.435C611.169 189.741 596.948 197.17 579.543 197.17C544.31 197.17 528.179 172.761 528.179 145.381C528.179 117.363 545.583 91.4688 577.633 91.4688C604.165 91.4688 621.357 111.42 621.357 134.343C621.357 140.923 620.72 146.017 619.447 150.05C609.046 151.536 567.657 151.536 553.649 151.111ZM554.073 134.556L596.948 134.131C597.797 120.123 590.156 110.784 576.996 110.784C562.988 110.784 554.073 121.821 554.073 134.556Z" fill="#101110"/>
<path d="M494.587 36.6628C497.346 34.5403 517.298 34.5403 518.147 36.026C519.632 38.3608 516.661 180.569 515.6 196.7C515.6 196.7 494.375 196.912 492.889 195.639C491.191 194.365 491.191 39.2098 494.587 36.6628Z" fill="#101110"/>
<path d="M476.279 178.441C476.279 190.752 468.638 197.756 454.841 197.331C446.988 197.331 438.71 189.903 438.71 179.078C438.71 166.767 446.139 159.551 459.511 160.187C467.576 160.824 476.279 165.281 476.279 178.441ZM476.067 114.553C476.067 127.076 468.213 134.293 454.417 133.868C446.564 133.656 437.861 126.227 437.861 115.19C437.861 102.88 445.502 95.4508 459.086 96.0876C467.152 96.7243 476.067 101.182 476.067 114.553Z" fill="#101110"/>
<path d="M361.215 150.871C361.215 165.728 372.677 174.855 388.383 174.855C401.118 174.855 408.972 170.186 414.915 165.728C416.613 167.214 424.042 181.435 424.254 184.194C418.735 189.501 404.514 196.929 387.11 196.929C351.876 196.929 335.745 172.521 335.745 145.14C335.745 117.123 353.15 91.2284 385.2 91.2284C411.731 91.2284 428.923 111.18 428.923 134.103C428.923 140.683 428.287 145.777 427.013 149.81C416.613 151.295 375.224 151.295 361.215 150.871ZM361.64 134.315L404.514 133.891C405.363 119.882 397.722 110.543 384.563 110.543C370.554 110.543 361.64 121.58 361.64 134.315Z" fill="#E53E25"/>
<path d="M325.206 92.2899C328.178 93.7756 324.994 116.699 322.022 120.095C318.414 119.246 312.683 118.185 308.014 118.185C297.826 118.397 290.609 126.25 288.487 136.438C288.062 140.046 289.548 194.595 289.123 195.232C288.699 196.081 262.168 196.505 261.743 195.232C261.319 194.383 261.319 99.0819 261.955 94.8369C263.229 91.6531 285.94 90.5919 287.425 92.5021C287.85 97.1717 287.425 106.511 287.213 107.572C295.491 93.5634 311.41 90.1674 325.206 92.2899Z" fill="#E53E25"/>
<path d="M690.975 248.543V212.365H696.015V248.543H690.975ZM703.916 249.026C702.003 249.026 700.234 248.543 698.589 247.578C696.945 246.613 695.622 245.29 694.621 243.61C693.62 241.929 693.102 240.017 693.102 237.89V237.622L696.015 237.55V237.783C696.015 239.052 696.337 240.196 696.998 241.197C697.66 242.215 698.5 243.002 699.554 243.592C700.609 244.182 701.735 244.468 702.933 244.468C704.899 244.468 706.579 243.788 707.92 242.448C709.261 241.107 709.94 239.016 709.94 236.21C709.94 233.403 709.261 231.312 707.92 229.971C706.579 228.631 704.917 227.969 702.915 227.969C701.717 227.969 700.591 228.255 699.537 228.827C698.482 229.399 697.642 230.186 696.981 231.187C696.319 232.188 695.997 233.314 695.997 234.601L693.084 234.494C693.084 232.349 693.584 230.454 694.603 228.809C695.622 227.165 696.945 225.878 698.571 224.948C700.198 224.019 701.985 223.554 703.898 223.554C705.811 223.554 707.723 224.037 709.421 225.02C711.119 226.003 712.496 227.433 713.533 229.31C714.569 231.187 715.088 233.475 715.088 236.192C715.088 238.909 714.569 241.286 713.568 243.199C712.55 245.111 711.191 246.559 709.493 247.542C707.795 248.525 705.936 249.008 703.898 249.008L703.916 249.026Z" fill="#231F20"/>
<path d="M720.468 259C719.807 259 719.199 258.964 718.645 258.893C718.091 258.821 717.769 258.75 717.644 258.696V254.603C717.841 254.692 718.18 254.763 718.645 254.835C719.11 254.889 719.61 254.924 720.111 254.924C721.022 254.924 721.809 254.746 722.452 254.37C723.114 253.995 723.668 253.494 724.115 252.833C724.561 252.172 724.937 251.439 725.223 250.599L725.849 248.74L717.376 223.947H722.613L728.923 244.771H728.28L734.428 223.947H739.594L730.782 250.331C730.246 251.975 729.584 253.459 728.798 254.764C728.011 256.068 726.957 257.105 725.652 257.856C724.347 258.607 722.613 258.982 720.468 258.982V259Z" fill="#231F20"/>
<path d="M781.439 236.46C781.439 237.872 781.171 239.32 780.653 240.785C780.134 242.251 779.33 243.61 778.275 244.861C777.221 246.112 775.862 247.113 774.253 247.882C772.627 248.65 770.732 249.026 768.534 249.026C765.548 249.026 763.028 248.275 760.937 246.773C758.845 245.272 757.254 243.198 756.164 240.553C755.074 237.907 754.52 234.887 754.52 231.473C754.52 228.058 755.074 225.02 756.164 222.392C757.254 219.765 758.845 217.709 760.937 216.207C763.028 214.706 765.566 213.955 768.534 213.955C771.018 213.955 773.127 214.438 774.879 215.421C776.631 216.386 778.025 217.637 779.062 219.175C780.099 220.694 780.796 222.285 781.135 223.947C781.332 224.841 781.439 225.699 781.439 226.485H776.398C776.398 226.056 776.363 225.592 776.273 225.073C776.112 223.84 775.684 222.714 775.04 221.677C774.379 220.64 773.521 219.818 772.43 219.21C771.34 218.603 770.035 218.281 768.534 218.281C766.782 218.281 765.227 218.764 763.886 219.747C762.545 220.73 761.491 222.196 760.758 224.162C760.007 226.128 759.632 228.559 759.632 231.49C759.632 234.422 760.007 236.853 760.758 238.819C761.509 240.785 762.545 242.269 763.886 243.27C765.227 244.271 766.782 244.771 768.534 244.771C769.821 244.771 770.947 244.539 771.912 244.074C772.877 243.61 773.699 242.984 774.361 242.197C775.022 241.411 775.523 240.517 775.88 239.534C776.22 238.551 776.398 237.532 776.398 236.478H781.439V236.46Z" fill="#231F20"/>
<path d="M798.849 249.026C796.383 249.026 794.166 248.508 792.218 247.471C790.269 246.434 788.732 244.951 787.606 243.02C786.48 241.09 785.926 238.82 785.926 236.228C785.926 233.636 786.48 231.366 787.606 229.471C788.714 227.577 790.252 226.129 792.218 225.11C794.166 224.091 796.383 223.573 798.849 223.573C800.708 223.573 802.371 223.859 803.819 224.413C805.266 224.967 806.5 225.717 807.501 226.647C808.502 227.576 809.27 228.595 809.789 229.704C810.307 230.812 810.575 231.92 810.575 233.028V233.189H805.606C805.606 233.189 805.606 233.028 805.588 232.921C805.588 232.814 805.552 232.724 805.534 232.635C805.409 231.723 805.052 230.919 804.462 230.204C803.872 229.489 803.103 228.935 802.156 228.506C801.191 228.095 800.083 227.88 798.796 227.88C797.383 227.88 796.097 228.184 794.917 228.792C793.737 229.4 792.79 230.329 792.075 231.563C791.36 232.796 791.002 234.333 791.002 236.192C791.002 238.051 791.36 239.588 792.057 240.858C792.754 242.109 793.701 243.074 794.881 243.717C796.061 244.361 797.366 244.683 798.778 244.683C800.297 244.683 801.548 244.45 802.531 243.986C803.514 243.521 804.23 242.877 804.73 242.091C805.231 241.287 805.517 240.428 805.588 239.499H810.557C810.557 240.607 810.307 241.733 809.789 242.859C809.27 243.986 808.537 245.022 807.536 245.952C806.553 246.881 805.32 247.614 803.872 248.168C802.406 248.722 800.726 249.008 798.813 249.008L798.849 249.026Z" fill="#231F20"/>
<path d="M840.319 214.402V248.543H835.296V231.58L837.567 233.618H818.726L820.997 231.598V248.543H815.974V214.402H820.997V231.527L818.726 229.417H837.567L835.296 231.527V214.402H840.319Z" fill="#231F20"/>
<path d="M870.724 236.049C870.724 240.428 869.652 243.699 867.507 245.826C865.362 247.971 862.394 249.026 858.623 249.026C854.851 249.026 851.902 247.954 849.775 245.826C847.648 243.699 846.575 240.428 846.575 236.049V214.402H851.598V236.013C851.598 239.105 852.188 241.322 853.35 242.698C854.53 244.057 856.281 244.754 858.623 244.754C860.964 244.754 862.752 244.075 863.932 242.698C865.112 241.322 865.701 239.105 865.701 236.013V214.402H870.724V236.049Z" fill="#231F20"/>
<path d="M889.028 214.402C891.226 214.402 893.086 214.706 894.569 215.314C896.053 215.922 897.179 216.833 897.965 218.049C898.752 219.264 899.127 220.766 899.127 222.571C899.127 224.377 898.77 225.753 898.073 226.933C897.375 228.112 896.482 229.006 895.391 229.632C894.301 230.257 893.193 230.597 892.049 230.669C893.282 230.704 894.497 230.99 895.713 231.544C896.928 232.099 897.93 232.974 898.716 234.172C899.503 235.388 899.896 236.996 899.896 239.016C899.896 241.036 899.503 242.645 898.734 244.075C897.947 245.505 896.75 246.595 895.141 247.364C893.532 248.132 891.441 248.526 888.885 248.526H876.998V214.385H889.064L889.028 214.402ZM881.806 230.329L880.108 228.756H887.044C889.296 228.756 891.03 228.291 892.245 227.362C893.461 226.432 894.069 225.11 894.069 223.376C894.069 222.196 893.818 221.266 893.3 220.569C892.799 219.872 892.067 219.354 891.119 219.032C890.172 218.71 889.046 218.549 887.759 218.549H879.518L881.789 215.922V230.311L881.806 230.329ZM887.902 244.379C890.065 244.379 891.745 243.896 892.96 242.931C894.176 241.966 894.784 240.571 894.784 238.748C894.784 237.658 894.587 236.728 894.194 235.977C893.8 235.227 893.264 234.637 892.585 234.19C891.906 233.743 891.119 233.421 890.225 233.207C889.332 232.992 888.367 232.903 887.348 232.903H880.126L881.824 231.33V247.024L879.554 244.396H887.902V244.379Z" fill="#231F20"/>
<path fill-rule="evenodd" clip-rule="evenodd" d="M127.866 94.9331C129.573 90.9292 131.251 86.9101 132.988 82.9365C135.798 76.5151 137.249 69.8671 137.219 62.8111C137.204 56.707 137.717 50.618 137.899 44.514C138.035 39.8906 138.201 35.2521 138.035 30.6287C137.899 26.5945 136.086 23.059 133.638 19.9012C130.707 16.139 127.156 13.1776 122.442 11.9085C119.828 11.2135 117.124 10.8206 114.767 12.5128C113.316 13.5554 111.85 14.7943 110.899 16.275C108.934 19.3271 107.182 22.5604 105.55 25.8089C103.253 30.3567 103.208 35.2823 103.797 40.1776C104.583 46.7652 105.399 53.383 106.698 59.895C108.315 68.0086 110.219 76.092 112.41 84.0696C113.528 88.1642 115.537 92.017 117.063 96.021C117.864 98.1513 118.574 100.312 119.163 102.503C119.314 103.062 119.058 103.983 118.65 104.346C118.347 104.603 117.32 104.437 116.912 104.104C116.051 103.394 115.25 102.533 114.661 101.581C112.576 98.2269 110.853 94.6007 108.496 91.4429C104.371 85.9129 101.44 80.0657 100.398 73.1004C98.8869 63.0831 96.8018 53.1262 94.8527 43.1692C93.6289 36.9594 92.677 30.7344 93.0245 24.3433C93.4325 16.8189 96.9227 10.8811 102.589 6.22745C108.134 1.6796 114.6 -0.345017 121.807 0.0478204C129.377 0.485985 135.179 3.74955 139.047 10.4429C144.441 19.7954 146.42 30.0243 147.372 40.5705C147.84 45.7831 147.976 50.9807 147.221 56.1631C146.254 62.7658 143.957 68.885 140.467 74.5962C136.433 81.1687 132.52 87.8167 128.561 94.4194C128.425 94.646 128.274 94.8576 128.123 95.0842C128.032 95.0389 127.957 94.9633 127.866 94.9331Z" fill="#E18905"/>
<path fill-rule="evenodd" clip-rule="evenodd" d="M147.885 135.697C147.583 134.066 147.251 132.509 147.1 130.953C147.069 130.636 147.734 130.062 148.172 129.941C151.738 128.944 155.334 128.067 158.9 127.085C162.571 126.088 166.213 124.985 169.884 123.973C176.26 122.22 182.591 120.271 189.043 118.821C193.938 117.718 198.969 117.159 203.97 116.584C207.022 116.237 210.15 115.995 213.202 116.237C216.39 116.464 219.623 117.007 222.675 117.974C226.151 119.062 227.858 122.069 228.613 125.484C229.958 131.467 230.215 137.45 228.432 143.418C226.649 149.341 222.932 153.783 217.689 156.911C210.618 161.126 202.898 162.063 194.814 161.292C191.656 160.99 188.861 159.948 186.051 158.618C181.443 156.427 176.91 154.146 172.649 151.29C168.388 148.404 163.886 145.821 159.293 143.509C156.573 142.149 153.461 141.56 150.545 140.623C149.834 140.396 149.139 140.185 148.429 139.943C148.429 139.792 148.459 139.641 148.475 139.505C150.937 139.732 153.415 139.777 155.848 140.185C162.345 141.303 168.207 144.31 174.311 146.591C181.835 149.386 189.36 152.227 197.549 151.925C203.94 151.698 209.697 149.507 214.486 145.171C218.838 141.243 219.79 134.066 216.617 129.805C214.547 127.025 211.419 126.133 208.246 125.318C205.753 124.683 203.426 125.514 201.069 125.937C194.648 127.07 188.257 128.279 181.851 129.488C176.275 130.53 170.715 131.603 165.155 132.645C159.625 133.688 154.11 134.7 148.58 135.713C148.339 135.758 148.082 135.682 147.885 135.667" fill="#D12310"/>
<path fill-rule="evenodd" clip-rule="evenodd" d="M114.691 165.04C113.603 172.519 112.636 179.998 111.367 187.431C110.369 193.218 108.979 198.96 107.786 204.716C106.517 210.896 105.278 217.06 104.008 223.24C103.721 224.645 103.495 226.05 103.102 227.44C101.455 233.182 106.29 241.643 114.252 242.111C118.256 242.338 122.215 242.232 125.992 240.6C130.359 238.727 133.154 235.478 134.559 230.976C136.448 224.947 136.025 218.904 134.816 212.845C133.471 206.227 131.552 199.775 128.939 193.566C126.748 188.338 124.527 183.125 122.094 178.003C121.097 175.933 119.601 174.06 118.196 172.232C117.289 171.038 117.153 169.95 117.833 168.711C118.438 167.578 119.072 166.475 119.722 165.387C120.19 164.601 120.9 164.481 121.369 165.251C122.487 167.14 123.998 168.998 124.436 171.068C126.007 178.638 129.241 185.361 133.532 191.722C136.478 196.119 139.5 200.47 141.373 205.532C144.123 212.966 144.607 220.52 143.368 228.271C142.507 233.68 140.86 238.787 137.913 243.426C134.197 249.273 128.878 252.295 121.898 251.977C116.489 251.736 111.064 251.449 105.701 250.784C102.044 250.315 98.3275 249.454 95.502 246.75C91.7399 243.169 91.1959 238.545 91.5132 233.68C91.8456 228.392 93.8703 223.663 96.4539 219.206C100.322 212.467 102.921 205.26 105.081 197.857C108.179 187.19 111.2 176.507 114.268 165.855C114.358 165.553 114.494 165.266 114.615 164.979C114.645 165.024 114.676 165.04 114.706 165.07" fill="#2E6EAF"/>
<path fill-rule="evenodd" clip-rule="evenodd" d="M130.192 109.166C131.069 109.997 132.006 110.753 132.791 111.659C134.922 114.077 137.082 116.494 139.062 119.033C141.872 122.629 143.005 126.814 143.141 131.347C143.277 136.423 142.657 141.288 140.104 145.821C138.17 149.251 135.45 151.804 132.157 153.829C126.083 157.591 119.374 159.238 112.364 159.782C109.72 159.978 107.045 160.084 104.401 159.963C98.1309 159.646 94.4745 155.748 92.2837 150.384C89.0503 142.452 88.2646 134.096 88.9748 125.635C89.3676 120.906 92.1024 117.416 96.0761 114.893C103.056 110.451 110.807 108.698 118.936 108.396C120.054 108.35 121.399 109.136 122.29 109.922C123.696 111.176 124.829 112.747 126.007 114.228C126.763 115.18 126.551 115.845 125.267 116.132C120.19 117.265 115.098 118.338 110.067 119.622C104.9 120.951 100.201 123.324 97.8589 128.415C95.6228 133.296 95.7134 137.919 100.125 142.301C103.087 145.232 106.38 147.604 110.369 149.039C116.156 151.094 121.142 149.583 125.463 145.579C128.455 142.799 131.25 139.747 132.444 135.728C132.912 134.142 133.093 132.344 132.852 130.727C132.172 126.058 131.129 121.435 130.374 116.766C129.981 114.349 129.86 111.871 129.618 109.408C129.8 109.333 129.981 109.257 130.177 109.181" fill="#CF1B69"/>
<path fill-rule="evenodd" clip-rule="evenodd" d="M35.9726 68.9603C35.6251 65.7421 36.6827 62.8411 38.2238 60.2423C39.0095 58.9278 40.7017 58.0213 42.1673 57.281C45.9597 55.3319 50.0996 54.7577 54.315 54.7426C57.3217 54.7124 60.1472 55.4225 62.7308 57.0543C65.4505 58.7616 68.4118 60.1517 70.8897 62.1461C75.6038 65.9234 79.4717 70.5468 82.2065 75.986C85.6514 82.8758 88.93 89.8411 92.4202 96.7006C93.8254 99.4656 95.6687 102.034 97.2401 104.724C97.4516 105.101 97.376 105.66 97.4214 106.129C97.0587 105.902 96.6206 105.751 96.3637 105.449C93.221 101.536 90.0783 97.6223 86.9961 93.6637C83.4454 89.0857 80.061 84.3565 75.498 80.6699C73.3676 78.9474 71.1315 77.361 68.9407 75.7141C66.2663 73.7348 63.5769 71.7706 60.9177 69.7611C57.6995 67.3587 53.6653 68.8697 51.399 70.7281C48.211 73.3268 47.8785 76.7868 49.4348 80.7454C51.7767 86.7437 56.0979 91.1707 60.54 95.4466C63.9698 98.7555 68.2154 101.097 72.7028 102.744C79.2451 105.147 85.8629 107.368 92.4353 109.725C93.0548 109.951 93.5232 110.571 94.0671 111.009C93.5534 111.598 93.1304 112.444 92.4807 112.762C89.7761 114.016 86.8903 113.895 84.2613 112.807C78.2177 110.314 72.2193 107.64 66.2966 104.86C62.5646 103.092 58.9082 101.158 55.3727 99.0275C53.1667 97.6979 51.2177 95.915 49.2082 94.2681C47.5462 92.8932 46.0655 91.3067 44.3883 89.962C39.9614 86.4264 38.0727 81.5009 36.8791 76.2429C36.3352 73.8859 36.2596 71.408 35.9726 68.9905" fill="#82CB42"/>
<path fill-rule="evenodd" clip-rule="evenodd" d="M80.9065 130.741C80.4382 130.802 79.9698 130.968 79.5165 130.923C74.047 130.182 68.5171 129.684 63.108 128.611C53.8914 126.798 44.7655 124.728 35.2921 124.441C28.9312 124.26 23.1293 126.027 17.4029 128.369C14.3206 129.638 11.3593 131.134 8.35254 132.57C7.97481 132.736 7.67263 133.068 7.34023 133.34C4.75657 135.35 4.98321 137.284 8.277 139.067C10.8002 140.426 13.6861 141.363 16.5266 141.832C26.7555 143.554 37.0901 144.385 47.4701 144.748C53.0151 144.944 58.5753 144.929 63.9541 143.509C68.5624 142.3 73.0347 140.608 76.9933 137.813C78.2775 136.906 79.6827 136.12 81.1181 135.501C82.3268 134.987 83.8226 135.909 84.5629 137.374C85.1069 138.447 84.8349 139.414 83.9435 140.079C82.4779 141.152 80.9519 142.149 79.3956 143.101C77.3257 144.385 75.1953 145.594 73.1102 146.833C68.7739 149.416 64.0145 150.595 59.0588 151.169C54.0879 151.758 49.1472 152.453 44.1914 153.118C38.8579 153.858 33.7056 152.589 28.5081 151.819C24.1416 151.184 19.8053 150.368 15.4538 149.628C10.2865 148.767 6.11639 146.243 3.04924 142.028C2.03693 140.638 1.1606 139.082 0.601563 137.45C-1 132.721 0.631781 129.367 5.07386 126.194C9.68214 122.9 14.7739 120.573 20.1528 118.805C26.3475 116.781 32.648 116.373 39.0543 117.4C42.3027 117.899 45.5814 118.382 48.7392 119.289C54.8433 121.056 60.8718 123.051 66.9004 125.045C70.7683 126.33 74.5909 127.735 78.4286 129.125C79.305 129.442 80.136 129.88 80.9821 130.258C80.9368 130.424 80.9065 130.575 80.8763 130.741" fill="#197342"/>
<path fill-rule="evenodd" clip-rule="evenodd" d="M148.187 116.69C150.106 115.829 152.04 114.998 153.943 114.107C158.612 111.931 163.236 109.634 167.965 107.579C171.364 106.114 174.93 105.026 178.36 103.636C186.927 100.146 194.527 95.5224 197.926 86.185C198.742 83.9639 199.754 81.7882 200.646 79.5823C202.988 73.7502 201.25 68.9303 195.584 66.2107C193.061 65.002 190.356 64.1559 187.652 63.4306C185.537 62.8565 183.588 63.9292 181.82 65.002C176.668 68.1296 172.407 72.3601 167.904 76.3036C161.06 82.3321 157.615 90.4608 153.898 98.4385C151.586 103.409 148.957 108.169 145.21 112.233C143.382 114.212 141.07 114.122 139.454 111.946C139.197 111.598 139.333 110.752 139.575 110.269C142.204 105.011 144.757 99.7076 147.583 94.5403C151.269 87.8621 155.046 81.2292 159.05 74.7322C162.087 69.7916 165.698 65.289 170.956 62.4032C175.746 59.7742 180.823 58.1122 186.247 57.9007C190.009 57.7496 193.801 57.9007 197.533 58.2633C202.414 58.7619 205.239 61.8744 206.236 66.4978C207.717 73.2969 207.52 80.0658 205.632 86.8347C203.834 93.2258 199.89 97.9852 194.753 101.914C190.598 105.071 185.778 106.643 180.838 107.987C170.579 110.768 160.335 113.638 150.091 116.464C149.486 116.63 148.882 116.781 148.278 116.947C148.247 116.872 148.217 116.796 148.187 116.705" fill="#F5C51B"/>
<path fill-rule="evenodd" clip-rule="evenodd" d="M138.532 162.41C139.847 163.438 141.191 164.42 142.446 165.508C148.595 170.917 153.656 177.293 158.718 183.684C163.432 189.637 168.252 195.529 173.298 201.195C176.35 204.625 180.369 206.499 185.189 206.227C187.652 206.091 189.767 205.093 191.49 203.537C193.378 201.86 195.071 199.896 196.581 197.871C198.304 195.545 197.972 193.293 195.871 190.8C192.774 187.144 188.846 184.5 184.917 181.871C176.547 176.28 167.179 172.564 158.401 167.714C153.46 164.979 148.519 162.274 144.818 157.877C143.337 156.125 142.068 154.191 140.602 152.196C141.327 151.849 141.63 151.683 141.962 151.547C145.195 150.247 145.301 150.232 146.585 153.39C147.855 156.518 150.061 158.512 153.158 159.645C159.715 162.017 166.288 164.374 172.86 166.686C180.596 169.421 188.392 172.02 195.463 176.326C200.177 179.196 203.501 183.215 205.556 188.292C206.765 191.314 206.387 194.351 205.209 197.282C202.882 203.069 199.226 207.889 194.119 211.53C191.142 213.66 187.894 213.947 184.464 212.588C174.703 208.705 166.016 203.19 158.945 195.363C157.343 193.595 156.165 191.359 155.107 189.168C153.354 185.542 151.874 181.78 150.242 178.078C148.127 173.289 144.908 169.27 141.222 165.613C140.255 164.646 139.257 163.679 138.275 162.743C138.366 162.637 138.457 162.531 138.547 162.425" fill="#521F79"/>
<path fill-rule="evenodd" clip-rule="evenodd" d="M97.3452 162.788C96.6955 164.692 96.1818 166.641 95.381 168.469C93.2809 173.229 91.7548 178.169 90.3195 183.17C88.8992 188.141 86.7537 192.916 84.85 197.751C84.2305 199.337 83.5204 200.878 82.644 202.329C80.5892 205.653 77.0083 206.726 73.6239 207.889C66.6435 210.246 59.7991 209.475 53.4683 205.879C49.0263 203.356 46.6088 199.126 46.4426 193.943C46.3368 190.181 46.2764 186.374 46.8203 182.642C47.6513 177.217 49.6457 172.186 54.2842 168.711C57.0039 166.671 60.1163 165.493 63.4403 164.919C69.1969 163.921 74.9535 163 80.7101 162.003C81.7375 161.821 82.7498 161.398 83.7168 160.975C85.4543 160.22 87.1466 159.389 88.869 158.603C88.9445 158.754 89.0352 158.92 89.1107 159.056C83.2786 162.411 77.4767 165.825 71.6144 169.119C68.789 170.705 65.752 171.884 62.972 173.516C59.4062 175.631 56.0973 178.094 53.8763 181.72C52.1992 184.47 52.3503 187.235 53.7403 190.075C55.7347 194.185 58.8472 197.358 62.4885 199.926C63.6519 200.742 65.5103 200.909 67.0212 200.848C72.536 200.606 76.2378 197.585 79.1236 193.006C81.8735 188.625 83.2786 183.714 85.4846 179.151C87.6301 174.724 90.0173 170.403 92.5707 166.188C93.5226 164.632 95.245 163.574 96.6049 162.275C96.8466 162.426 97.0884 162.592 97.3301 162.773" fill="#26B0E6"/>
</svg>
