<svg width="32" height="33" viewBox="0 0 32 33" fill="none" xmlns="http://www.w3.org/2000/svg">
<g id="Frame" clip-path="url(#clip0_2681_3043)">
<path id="Vector" d="M16 22.7679C18.7614 22.7679 21 20.5036 21 17.7106C21 14.9175 18.7614 12.6533 16 12.6533C13.2386 12.6533 11 14.9175 11 17.7106C11 20.5036 13.2386 22.7679 16 22.7679Z" stroke="#4E5055" stroke-width="2" stroke-linecap="round" stroke-linejoin="round"/>
<path id="Vector_2" d="M24.5 14.6763C25.6647 14.6743 26.8137 14.9476 27.8554 15.4745C28.8972 16.0013 29.8028 16.767 30.5 17.7106" stroke="#4E5055" stroke-width="2" stroke-linecap="round" stroke-linejoin="round"/>
<path id="Vector_3" d="M1.5 17.7106C2.19725 16.767 3.10285 16.0013 4.14457 15.4745C5.1863 14.9476 6.33532 14.6743 7.5 14.6763" stroke="#4E5055" stroke-width="2" stroke-linecap="round" stroke-linejoin="round"/>
<path id="Vector_4" d="M8.80005 27.3195C9.45858 25.9555 10.4827 24.8059 11.7556 24.0017C13.0286 23.1976 14.4992 22.7712 16 22.7712C17.5009 22.7712 18.9715 23.1976 20.2445 24.0017C21.5174 24.8059 22.5415 25.9555 23.2 27.3195" stroke="#4E5055" stroke-width="2" stroke-linecap="round" stroke-linejoin="round"/>
<path id="Vector_5" d="M7.49991 14.6764C6.74071 14.6771 5.99697 14.4594 5.35559 14.0485C4.71422 13.6376 4.20169 13.0506 3.87789 12.3561C3.5541 11.6615 3.43241 10.8881 3.52705 10.1262C3.62169 9.36428 3.92875 8.64536 4.41235 8.0534C4.89595 7.46145 5.53612 7.02093 6.25805 6.7833C6.97998 6.54568 7.75387 6.52077 8.48928 6.71148C9.22469 6.90219 9.89125 7.30065 10.4111 7.8603C10.9309 8.41994 11.2826 9.11767 11.4249 9.87194" stroke="#4E5055" stroke-width="2" stroke-linecap="round" stroke-linejoin="round"/>
<path id="Vector_6" d="M20.575 9.87194C20.7173 9.11767 21.0689 8.41994 21.5888 7.8603C22.1086 7.30065 22.7752 6.90219 23.5106 6.71148C24.246 6.52077 25.0199 6.54568 25.7418 6.7833C26.4637 7.02093 27.1039 7.46145 27.5875 8.0534C28.0711 8.64536 28.3782 9.36428 28.4728 10.1262C28.5674 10.8881 28.4458 11.6615 28.122 12.3561C27.7982 13.0506 27.2856 13.6376 26.6443 14.0485C26.0029 14.4594 25.2591 14.6771 24.5 14.6764" stroke="#4E5055" stroke-width="2" stroke-linecap="round" stroke-linejoin="round"/>
</g>
<defs>
<clipPath id="clip0_2681_3043">
<rect width="32" height="32.3666" fill="white" transform="translate(0 0.0102539)"/>
</clipPath>
</defs>
</svg>
