<svg width="368" height="228" viewBox="0 0 368 228" fill="none" xmlns="http://www.w3.org/2000/svg">
<g clip-path="url(#clip0_2681_3533)">
<rect width="368" height="228" rx="4" fill="#E9E9EC"/>
<rect width="401.895" height="249" transform="translate(-17 -10)" fill="#27316E"/>
<path d="M73.1769 75.3402V114.656L60.5397 122.379V83.0629L73.1769 75.3402ZM73.1769 75.3402L160.233 74.6381M160.233 74.6381V66.2133L172.87 57.0864M160.233 74.6381H172.87V57.0864M172.87 57.0864H184.806" stroke="black" stroke-width="2.80827"/>
<path d="M61.9438 179.246L60.5397 122.379L73.1769 114.656L74.581 173.63M61.9438 179.246L74.581 173.63M61.9438 179.246H289.414L302.051 173.63M74.581 173.63H302.051M302.051 173.63L297.839 57.0864H183.402" stroke="black" stroke-width="2.80827"/>
<mask id="path-4-outside-1_2681_3533" maskUnits="userSpaceOnUse" x="63.1561" y="73.7444" width="112" height="43" fill="black">
<rect fill="white" x="63.1561" y="73.7444" width="112" height="43"/>
<path fill-rule="evenodd" clip-rule="evenodd" d="M171.466 76.7444H74.5809V91.5374C73.7548 91.0595 72.7957 90.786 71.7727 90.786C68.6707 90.786 66.1561 93.3007 66.1561 96.4026C66.1561 99.5045 68.6707 102.019 71.7727 102.019C72.7957 102.019 73.7548 101.746 74.5809 101.268V113.252H171.466V76.7444Z"/>
</mask>
<path fill-rule="evenodd" clip-rule="evenodd" d="M171.466 76.7444H74.5809V91.5374C73.7548 91.0595 72.7957 90.786 71.7727 90.786C68.6707 90.786 66.1561 93.3007 66.1561 96.4026C66.1561 99.5045 68.6707 102.019 71.7727 102.019C72.7957 102.019 73.7548 101.746 74.5809 101.268V113.252H171.466V76.7444Z" fill="#D7F289"/>
<path d="M74.5809 76.7444V73.9361H71.7726V76.7444H74.5809ZM171.466 76.7444H174.274V73.9361H171.466V76.7444ZM74.5809 91.5374L73.1747 93.9683L77.3892 96.4061V91.5374H74.5809ZM74.5809 101.268H77.3892V96.399L73.1747 98.8369L74.5809 101.268ZM74.5809 113.252H71.7726V116.06H74.5809V113.252ZM171.466 113.252V116.06H174.274V113.252H171.466ZM74.5809 79.5527H171.466V73.9361H74.5809V79.5527ZM77.3892 91.5374V76.7444H71.7726V91.5374H77.3892ZM71.7727 93.5943C72.2888 93.5943 72.7645 93.731 73.1747 93.9683L75.987 89.1065C74.745 88.3881 73.3025 87.9778 71.7727 87.9778V93.5943ZM68.9644 96.4026C68.9644 94.8516 70.2217 93.5943 71.7727 93.5943V87.9778C67.1198 87.9778 63.3479 91.7497 63.3479 96.4026H68.9644ZM71.7727 99.2109C70.2217 99.2109 68.9644 97.9535 68.9644 96.4026H63.3479C63.3479 101.055 67.1198 104.827 71.7727 104.827V99.2109ZM73.1747 98.8369C72.7645 99.0742 72.2888 99.2109 71.7727 99.2109V104.827C73.3025 104.827 74.745 104.417 75.987 103.699L73.1747 98.8369ZM77.3892 113.252V101.268H71.7726V113.252H77.3892ZM171.466 110.444H74.5809V116.06H171.466V110.444ZM168.658 76.7444V113.252H174.274V76.7444H168.658Z" fill="black" mask="url(#path-4-outside-1_2681_3533)"/>
<mask id="path-6-outside-2_2681_3533" maskUnits="userSpaceOnUse" x="164.254" y="47.0654" width="145" height="69" fill="black">
<rect fill="white" x="164.254" y="47.0654" width="145" height="69"/>
<path fill-rule="evenodd" clip-rule="evenodd" d="M212.839 58.4903C213.317 57.6642 213.59 56.705 213.59 55.682C213.59 52.58 211.076 50.0654 207.974 50.0654C204.872 50.0654 202.357 52.58 202.357 55.682C202.357 56.705 202.631 57.6642 203.109 58.4903H174.275L174.275 87.9772C170.397 87.9772 167.254 91.1204 167.254 94.9978C167.254 98.8753 170.397 102.019 174.275 102.019L174.275 113.252H297.839L297.27 91.0616C298.209 91.77 299.379 92.1899 300.647 92.1899C303.749 92.1899 306.263 89.6753 306.263 86.5734C306.263 83.4715 303.749 80.9569 300.647 80.9569C299.276 80.9569 298.019 81.4482 297.044 82.2645L296.434 58.4903H212.839Z"/>
</mask>
<path fill-rule="evenodd" clip-rule="evenodd" d="M212.839 58.4903C213.317 57.6642 213.59 56.705 213.59 55.682C213.59 52.58 211.076 50.0654 207.974 50.0654C204.872 50.0654 202.357 52.58 202.357 55.682C202.357 56.705 202.631 57.6642 203.109 58.4903H174.275L174.275 87.9772C170.397 87.9772 167.254 91.1204 167.254 94.9978C167.254 98.8753 170.397 102.019 174.275 102.019L174.275 113.252H297.839L297.27 91.0616C298.209 91.77 299.379 92.1899 300.647 92.1899C303.749 92.1899 306.263 89.6753 306.263 86.5734C306.263 83.4715 303.749 80.9569 300.647 80.9569C299.276 80.9569 298.019 81.4482 297.044 82.2645L296.434 58.4903H212.839Z" fill="#69E692"/>
<path d="M212.839 58.4903L210.408 57.0841L207.97 61.2986H212.839V58.4903ZM203.109 58.4903V61.2986H207.978L205.54 57.0841L203.109 58.4903ZM174.275 58.4903V55.682H171.466L171.466 58.4903L174.275 58.4903ZM174.275 87.9772V90.7854H177.083L177.083 87.9772H174.275ZM174.275 102.019L177.083 102.019L177.083 99.2102H174.275V102.019ZM174.275 113.252L171.466 113.252L171.466 116.06H174.275V113.252ZM297.839 113.252V116.06H300.72L300.646 113.18L297.839 113.252ZM297.27 91.0616L298.96 88.8189L294.313 85.3168L294.462 91.1335L297.27 91.0616ZM297.044 82.2645L294.237 82.3365L294.386 88.1516L298.846 84.4179L297.044 82.2645ZM296.434 58.4903L299.242 58.4183L299.172 55.682H296.434V58.4903ZM210.782 55.682C210.782 56.1982 210.645 56.6739 210.408 57.0841L215.27 59.8965C215.988 58.6545 216.399 57.2119 216.399 55.682H210.782ZM207.974 52.8737C209.525 52.8737 210.782 54.131 210.782 55.682H216.399C216.399 51.0291 212.627 47.2572 207.974 47.2572V52.8737ZM205.166 55.682C205.166 54.131 206.423 52.8737 207.974 52.8737V47.2572C203.321 47.2572 199.549 51.0291 199.549 55.682H205.166ZM205.54 57.0841C205.302 56.6739 205.166 56.1982 205.166 55.682H199.549C199.549 57.2119 199.959 58.6545 200.678 59.8965L205.54 57.0841ZM174.275 61.2986H203.109V55.682H174.275V61.2986ZM177.083 87.9772L177.083 58.4903L171.466 58.4903L171.466 87.9772L177.083 87.9772ZM170.062 94.9978C170.062 92.6714 171.948 90.7854 174.275 90.7854V85.1689C168.846 85.1689 164.446 89.5695 164.446 94.9978H170.062ZM174.275 99.2102C171.948 99.2102 170.062 97.3243 170.062 94.9978H164.446C164.446 100.426 168.846 104.827 174.275 104.827V99.2102ZM177.083 113.252L177.083 102.019L171.466 102.019L171.466 113.252L177.083 113.252ZM297.839 110.443H174.275V116.06H297.839V110.443ZM294.462 91.1335L295.031 113.324L300.646 113.18L300.077 90.9896L294.462 91.1335ZM295.579 93.3042C296.989 94.367 298.748 94.9982 300.647 94.9982V89.3817C300.01 89.3817 299.43 89.1729 298.96 88.8189L295.579 93.3042ZM300.647 94.9982C305.3 94.9982 309.072 91.2263 309.072 86.5734H303.455C303.455 88.1244 302.198 89.3817 300.647 89.3817V94.9982ZM309.072 86.5734C309.072 81.9205 305.3 78.1486 300.647 78.1486V83.7651C302.198 83.7651 303.455 85.0224 303.455 86.5734H309.072ZM300.647 78.1486C298.592 78.1486 296.703 78.8875 295.241 80.111L298.846 84.4179C299.335 84.0089 299.959 83.7651 300.647 83.7651V78.1486ZM293.627 58.5623L294.237 82.3365L299.851 82.1925L299.242 58.4183L293.627 58.5623ZM212.839 61.2986H296.434V55.682H212.839V61.2986Z" fill="black" mask="url(#path-6-outside-2_2681_3533)"/>
<mask id="path-8-outside-3_2681_3533" maskUnits="userSpaceOnUse" x="61.752" y="104.635" width="242" height="77" fill="black">
<rect fill="white" x="61.752" y="104.635" width="242" height="77"/>
<path fill-rule="evenodd" clip-rule="evenodd" d="M247.149 116.06C247.241 115.606 247.29 115.137 247.29 114.656C247.29 110.779 244.146 107.635 240.269 107.635C236.392 107.635 233.248 110.779 233.248 114.656C233.248 115.137 233.297 115.606 233.389 116.06H74.5809L75.2118 141.297C74.2355 139.639 72.4319 138.526 70.3685 138.526C67.2666 138.526 64.752 141.041 64.752 144.143C64.752 147.245 67.2666 149.759 70.3685 149.759C72.532 149.759 74.4098 148.536 75.348 146.743L75.985 172.226H182.699C182.699 175.327 185.214 177.842 188.316 177.842C191.418 177.842 193.932 175.327 193.932 172.225L300.647 172.226L297.838 116.06H247.149Z"/>
</mask>
<path fill-rule="evenodd" clip-rule="evenodd" d="M247.149 116.06C247.241 115.606 247.29 115.137 247.29 114.656C247.29 110.779 244.146 107.635 240.269 107.635C236.392 107.635 233.248 110.779 233.248 114.656C233.248 115.137 233.297 115.606 233.389 116.06H74.5809L75.2118 141.297C74.2355 139.639 72.4319 138.526 70.3685 138.526C67.2666 138.526 64.752 141.041 64.752 144.143C64.752 147.245 67.2666 149.759 70.3685 149.759C72.532 149.759 74.4098 148.536 75.348 146.743L75.985 172.226H182.699C182.699 175.327 185.214 177.842 188.316 177.842C191.418 177.842 193.932 175.327 193.932 172.225L300.647 172.226L297.838 116.06H247.149Z" fill="#5A8573"/>
<path d="M247.149 116.06L244.397 115.501L243.714 118.868H247.149V116.06ZM233.389 116.06V118.868H236.824L236.141 115.501L233.389 116.06ZM74.5809 116.06V113.252H71.7015L71.7735 116.13L74.5809 116.06ZM75.2118 141.297L72.7919 142.722L78.29 152.06L78.0192 141.227L75.2118 141.297ZM75.348 146.743L78.1554 146.673L77.8845 135.84L72.8598 145.441L75.348 146.743ZM75.985 172.226L73.1776 172.296L73.2461 175.034H75.985V172.226ZM182.699 172.226L185.508 172.226L185.508 169.417H182.699V172.226ZM193.932 172.225V169.417L191.124 169.417V172.225H193.932ZM300.647 172.226V175.034H303.599L303.451 172.085L300.647 172.226ZM297.838 116.06L300.643 115.92L300.51 113.252H297.838V116.06ZM244.481 114.656C244.481 114.948 244.452 115.231 244.397 115.501L249.901 116.619C250.031 115.982 250.098 115.326 250.098 114.656H244.481ZM240.269 110.444C242.595 110.444 244.481 112.329 244.481 114.656H250.098C250.098 109.228 245.697 104.827 240.269 104.827V110.444ZM236.057 114.656C236.057 112.329 237.942 110.444 240.269 110.444V104.827C234.841 104.827 230.44 109.228 230.44 114.656H236.057ZM236.141 115.501C236.086 115.231 236.057 114.948 236.057 114.656H230.44C230.44 115.326 230.507 115.982 230.637 116.619L236.141 115.501ZM74.5809 118.868H233.389V113.252H74.5809V118.868ZM78.0192 141.227L77.3883 115.99L71.7735 116.13L72.4044 141.367L78.0192 141.227ZM70.3685 141.334C71.3968 141.334 72.2994 141.886 72.7919 142.722L77.6318 139.872C76.1716 137.392 73.4671 135.718 70.3685 135.718V141.334ZM67.5602 144.143C67.5602 142.592 68.8175 141.334 70.3685 141.334V135.718C65.7156 135.718 61.9437 139.49 61.9437 144.143H67.5602ZM70.3685 146.951C68.8175 146.951 67.5602 145.694 67.5602 144.143H61.9437C61.9437 148.796 65.7156 152.568 70.3685 152.568V146.951ZM72.8598 145.441C72.3871 146.345 71.4463 146.951 70.3685 146.951V152.568C73.6177 152.568 76.4326 150.727 77.8361 148.045L72.8598 145.441ZM78.7924 172.155L78.1554 146.673L72.5406 146.813L73.1776 172.296L78.7924 172.155ZM182.699 169.417H75.985V175.034H182.699V169.417ZM188.316 175.034C186.765 175.034 185.508 173.776 185.508 172.226L179.891 172.226C179.891 176.878 183.663 180.65 188.316 180.65V175.034ZM191.124 172.225C191.124 173.776 189.867 175.034 188.316 175.034V180.65C192.969 180.65 196.741 176.878 196.741 172.225H191.124ZM300.647 169.417L193.932 169.417V175.034L300.647 175.034V169.417ZM295.034 116.2L297.842 172.366L303.451 172.085L300.643 115.92L295.034 116.2ZM247.149 118.868H297.838V113.252H247.149V118.868Z" fill="black" mask="url(#path-8-outside-3_2681_3533)"/>
<path d="M101.924 156.102V136.556H94.8804V131.198H114.527V136.556H107.518V156.102H101.924ZM135.331 156.102H117.975V131.198H135.364V136.388H123.569V141.005H134.488V146.161H123.569V150.912H135.331V156.102ZM160.991 156.102H155.195L153.544 151.081H145.186L143.468 156.102H137.671L147.006 131.198H151.859L160.991 156.102ZM152.061 146.194L149.399 138.309L146.703 146.194H152.061ZM174.667 156.472C171.027 156.472 167.983 155.293 165.534 152.934C163.085 150.553 161.861 147.486 161.861 143.734C161.861 139.96 163.108 136.86 165.601 134.433C168.118 131.984 171.162 130.76 174.734 130.76C176.936 130.76 178.98 131.221 180.867 132.142C182.754 133.04 184.271 134.265 185.417 135.815L181.777 139.522C179.89 137.253 177.643 136.118 175.037 136.118C172.97 136.118 171.218 136.837 169.78 138.275C168.342 139.713 167.623 141.521 167.623 143.7C167.623 145.835 168.331 147.61 169.746 149.025C171.162 150.44 172.914 151.148 175.003 151.148C177.699 151.148 180.002 150.002 181.912 147.711L185.652 151.215C184.484 152.811 182.923 154.091 180.968 155.057C179.014 156.001 176.913 156.472 174.667 156.472ZM194.743 156.102H189.182V131.198H194.743V140.937H204.448V131.198H210.042V156.102H204.448V146.295H194.743V156.102ZM233.004 156.102H215.649V131.198H233.038V136.388H221.243V141.005H232.162V146.161H221.243V150.912H233.004V156.102ZM257.452 156.102H250.982L246.095 147.407H243.366V156.102H237.805V131.198H247.713C250.566 131.198 252.745 131.973 254.25 133.523C255.756 135.029 256.508 136.938 256.508 139.252C256.508 140.915 256.093 142.397 255.261 143.7C254.453 145.004 253.262 145.981 251.689 146.632L257.452 156.102ZM247.679 136.32H243.366V142.487H247.308C248.432 142.487 249.285 142.195 249.87 141.611C250.476 141.027 250.779 140.274 250.779 139.353C250.779 138.477 250.499 137.758 249.937 137.197C249.398 136.612 248.645 136.32 247.679 136.32ZM268.796 156.54C266.819 156.54 264.977 156.158 263.27 155.394C261.585 154.608 260.169 153.484 259.024 152.024L262.057 148.048C263.921 150.249 266.179 151.35 268.83 151.35C269.796 151.35 270.582 151.148 271.189 150.744C271.796 150.317 272.099 149.766 272.099 149.092C272.099 148.171 271.38 147.396 269.942 146.767L267.718 145.958C266.348 145.442 265.28 144.981 264.517 144.577C261.843 143.116 260.506 141.016 260.506 138.275C260.506 136.118 261.326 134.332 262.966 132.917C264.606 131.501 266.741 130.794 269.369 130.794C272.672 130.794 275.491 131.895 277.828 134.096L275.064 138.241C274.346 137.567 273.458 137.028 272.402 136.624C271.369 136.219 270.38 136.017 269.437 136.017C268.516 136.017 267.785 136.208 267.246 136.59C266.73 136.949 266.471 137.444 266.471 138.073C266.471 138.926 267.145 139.657 268.493 140.263L270.919 141.24C272.425 141.825 273.38 142.218 273.784 142.42C276.772 143.768 278.266 145.88 278.266 148.755C278.266 151.047 277.39 152.912 275.637 154.349C273.907 155.81 271.627 156.54 268.796 156.54Z" fill="black"/>
<path d="M192.858 85.6254V77.1795H196.734V92.7444H193.764L186.687 84.4038V92.7444H182.833V77.1795H185.655L192.858 85.6254ZM211.66 92.7444H200.434V77.1795H211.681V80.8233H204.393V83.119H211.133V86.7417H204.393V89.1007H211.66V92.7444ZM218.003 92.7444H213.433L218.277 84.8882L213.833 77.1795H218.361L220.825 81.9396L223.521 77.1795H228.092L223.332 84.8882L227.987 92.7444H223.479L220.783 87.8369L218.003 92.7444ZM233.465 92.7444V80.9707H229.148V77.1795H241.743V80.9707H237.446V92.7444H233.465ZM251.189 92.9761C248.774 92.9761 246.794 92.2249 245.249 90.7224C243.719 89.206 242.954 87.2893 242.954 84.9725C242.954 82.6276 243.747 80.6969 245.334 79.1804C246.934 77.664 248.928 76.9057 251.315 76.9057C252.509 76.9057 253.646 77.1164 254.727 77.5376C255.808 77.9448 256.714 78.4924 257.444 79.1804L254.938 82.1081C253.857 81.1532 252.635 80.6758 251.273 80.6758C250.009 80.6758 248.977 81.083 248.177 81.8974C247.377 82.7259 246.976 83.7369 246.976 84.9304C246.976 86.0958 247.37 87.1068 248.156 87.9633C248.942 88.8058 249.981 89.227 251.273 89.227C251.933 89.227 252.579 89.1147 253.211 88.89C253.857 88.6513 254.376 88.3494 254.769 87.9844V86.6364H251.231V83.2665H258.329V90.0063C256.293 91.9862 253.913 92.9761 251.189 92.9761ZM272.642 92.7444H261.416V77.1795H272.664V80.8233H265.376V83.119H272.116V86.7417H265.376V89.1007H272.642V92.7444ZM285.957 85.6254V77.1795H289.833V92.7444H286.863L279.786 84.4038V92.7444H275.932V77.1795H278.754L285.957 85.6254Z" fill="black"/>
<path d="M106.876 87.9773L111.791 94.998L106.876 102.019" stroke="#E6587F" stroke-width="4.21241" stroke-linecap="square"/>
<path d="M119.513 87.9773L124.428 94.998L119.513 102.019" stroke="#E6587F" stroke-width="4.21241" stroke-linecap="square"/>
<path d="M132.151 87.9773L137.065 94.998L132.151 102.019" stroke="#E6587F" stroke-width="4.21241" stroke-linecap="square"/>
</g>
<defs>
<clipPath id="clip0_2681_3533">
<rect width="368" height="228" rx="4" fill="white"/>
</clipPath>
</defs>
</svg>
