<svg width="212" height="49" viewBox="0 0 212 49" fill="none" xmlns="http://www.w3.org/2000/svg">
<rect x="0.504942" y="21.3712" width="208.737" height="27.234" rx="13.5823" transform="rotate(-5.75059 0.504942 21.3712)" fill="#29292E"/>
<path d="M27.2833 35.0786C26.4625 36.104 25.3498 36.6874 23.9453 36.8289C22.5408 36.9703 21.3341 36.6205 20.3254 35.7793C19.3156 34.9289 18.7387 33.7876 18.5944 32.3554C18.4502 30.9231 18.7885 29.6943 19.6093 28.6689C20.4292 27.6343 21.5414 27.0463 22.9459 26.9048C24.3504 26.7634 25.5575 27.1178 26.5672 27.9682C27.576 28.8094 28.1525 29.9461 28.2968 31.3783C28.441 32.8106 28.1032 34.044 27.2833 35.0786ZM21.3863 34.6364C22.0632 35.2403 22.8683 35.4952 23.8015 35.4013C24.7348 35.3073 25.4683 34.8974 26.0019 34.1716C26.5447 33.4449 26.7645 32.5687 26.6612 31.543C26.5579 30.5173 26.1679 29.7026 25.491 29.0987C24.8225 28.4846 24.0215 28.2246 23.0883 28.3186C22.155 28.4126 21.4174 28.8275 20.8755 29.5635C20.3419 30.2893 20.1267 31.165 20.23 32.1907C20.3333 33.2164 20.7187 34.0316 21.3863 34.6364ZM35.9042 28.456L36.6077 35.4417L35.0969 35.5939L34.9796 34.4296C34.7785 34.8419 34.4909 35.1835 34.1168 35.4545C33.7427 35.7256 33.3108 35.8857 32.8211 35.9351C32.0634 36.0114 31.4261 35.8469 30.9092 35.4415C30.4007 35.026 30.1087 34.4441 30.0334 33.6956L29.57 29.0939L31.0807 28.9418L31.5093 33.197C31.5539 33.6405 31.7196 33.9878 32.0062 34.239C32.2919 34.4809 32.6566 34.5795 33.1001 34.5349C33.6822 34.4762 34.1159 34.1945 34.4011 33.6898C34.6863 33.185 34.7866 32.5122 34.7019 31.6714L34.3934 28.6082L35.9042 28.456ZM42.2469 29.3014C41.9862 29.2157 41.6803 29.1905 41.3292 29.2258C40.7748 29.2816 40.3388 29.5869 40.0213 30.1416C39.7121 30.6861 39.6092 31.4712 39.7125 32.4969L39.9749 35.1026L38.4641 35.2548L37.7606 28.2691L39.2714 28.117L39.4054 29.4476C39.5483 29.0131 39.8096 28.6415 40.1892 28.3325C40.5678 28.0144 40.9697 27.8339 41.3948 27.7911C41.6997 27.7604 41.9626 27.7759 42.1835 27.8377L42.2469 29.3014ZM47.4972 34.3451L46.5202 24.6428L48.225 24.4711L53.393 31.1612L52.6742 24.023L54.2266 23.8667L55.2036 33.569L53.4988 33.7407L48.3183 27.0659L49.0357 34.1901L47.4972 34.3451ZM62.7518 25.7524L63.4553 32.738L61.9445 32.8902L61.8272 31.7259C61.6261 32.1382 61.3384 32.4798 60.9644 32.7509C60.5903 33.0219 60.1584 33.182 59.6687 33.2314C58.911 33.3077 58.2737 33.1432 57.7568 32.7378C57.2483 32.3224 56.9563 31.7404 56.881 30.9919L56.4175 26.3902L57.9283 26.2381L58.3568 30.4933C58.4015 30.9368 58.5672 31.2841 58.8538 31.5353C59.1395 31.7772 59.5042 31.8758 59.9477 31.8312C60.5298 31.7725 60.9635 31.4908 61.2487 30.9861C61.5339 30.4813 61.6341 29.8085 61.5495 28.9677L61.241 25.9045L62.7518 25.7524ZM65.3117 32.5511L64.6082 25.5654L66.119 25.4133L66.2376 26.5914C66.5761 25.6892 67.2167 25.1907 68.1592 25.0958C68.7228 25.039 69.2062 25.1117 69.6092 25.3138C70.0215 25.515 70.3239 25.8299 70.5164 26.2585C70.6695 25.8324 70.9363 25.4695 71.3169 25.1698C71.6974 24.8702 72.151 24.6938 72.6777 24.6408C73.4261 24.5654 74.0445 24.7271 74.5327 25.126C75.0292 25.5147 75.3133 26.0648 75.3849 26.7763L75.8595 31.4889L74.3487 31.641L73.9118 27.3027C73.8671 26.8591 73.707 26.5206 73.4315 26.287C73.1643 26.0432 72.8135 25.9432 72.3792 25.9869C71.871 26.0381 71.49 26.2865 71.2362 26.7321C70.9907 27.1675 70.9023 27.7271 70.9712 28.4109L71.3271 31.9453L69.8302 32.096L69.3933 27.7577C69.3486 27.3142 69.1932 26.9751 68.9269 26.7406C68.6596 26.4968 68.3089 26.3968 67.8746 26.4406C67.3663 26.4917 66.9853 26.7401 66.7315 27.1857C66.4869 27.6304 66.3986 28.19 66.4665 28.8645L66.8225 32.3989L65.3117 32.5511ZM81.341 31.0488C80.879 31.0954 80.4446 31.0458 80.0379 30.9001C79.6312 30.7543 79.3298 30.542 79.1337 30.2631L79.223 31.1501L77.7122 31.3023L76.724 21.4891L78.2348 21.3369L78.6075 25.0377C78.7902 24.7206 79.0622 24.4552 79.4234 24.2415C79.7928 24.0176 80.1994 23.8833 80.6429 23.8386C81.6778 23.7344 82.5198 23.9856 83.169 24.5923C83.8273 25.1981 84.2105 26.0369 84.3184 27.1087C84.4273 28.1899 84.2196 29.0928 83.6952 29.8177C83.1699 30.5333 82.3851 30.9437 81.341 31.0488ZM79.4823 29.2759C79.8938 29.6545 80.4045 29.8131 81.0143 29.7516C81.6242 29.6902 82.093 29.433 82.4207 28.98C82.7475 28.5177 82.8765 27.9447 82.8077 27.2609C82.7379 26.5679 82.4972 26.0321 82.0857 25.6535C81.6743 25.2749 81.1636 25.1163 80.5537 25.1777C79.9439 25.2391 79.4751 25.4963 79.1473 25.9494C78.8196 26.4024 78.6906 26.9754 78.7604 27.6685C78.8293 28.3522 79.0699 28.888 79.4823 29.2759ZM92.2273 26.0463C92.2524 26.2957 92.2641 26.5046 92.2623 26.6728L86.9261 27.2102C87.0512 27.8043 87.3117 28.2587 87.7074 28.5736C88.1124 28.8875 88.5921 29.0165 89.1465 28.9607C89.6085 28.9142 89.9818 28.7739 90.2662 28.5399C90.5497 28.2967 90.7186 27.981 90.7729 27.5928L92.2368 27.8094C92.1199 28.5026 91.7983 29.0623 91.2718 29.4887C90.7454 29.9151 90.071 30.1697 89.2486 30.2525C88.186 30.3595 87.3051 30.0935 86.6061 29.4545C85.9061 28.8063 85.5063 27.9879 85.4067 26.9991C85.3062 26.0012 85.5209 25.1208 86.0508 24.3581C86.5899 23.5944 87.3908 23.1591 88.4535 23.0521C89.5253 22.9441 90.3992 23.1875 91.0752 23.7821C91.7511 24.3768 92.1351 25.1315 92.2273 26.0463ZM86.8795 26.0528L90.5664 25.6815C90.4709 25.1964 90.2465 24.8223 89.8933 24.5592C89.5494 24.2951 89.1094 24.1901 88.5735 24.2441C88.093 24.2924 87.7055 24.4761 87.4109 24.7952C87.1154 25.1049 86.9383 25.5241 86.8795 26.0528ZM97.8625 23.7006C97.6018 23.6149 97.2959 23.5897 96.9448 23.625C96.3904 23.6809 95.9544 23.9861 95.6369 24.5408C95.3277 25.0853 95.2248 25.8704 95.3281 26.8961L95.5905 29.5018L94.0797 29.654L93.3762 22.6683L94.887 22.5162L95.021 23.8468C95.1639 23.4124 95.4252 23.0407 95.8048 22.7318C96.1834 22.4136 96.5853 22.2331 97.0103 22.1903C97.3153 22.1596 97.5782 22.1752 97.7991 22.2369L97.8625 23.7006ZM101.891 28.9793C101.106 29.0584 100.435 28.9253 99.877 28.5801C99.3279 28.2247 98.9325 27.7745 98.6909 27.2295L99.8853 26.5771C100.264 27.4631 100.892 27.8619 101.77 27.7735C102.121 27.7381 102.399 27.6215 102.603 27.4236C102.816 27.2247 102.91 26.996 102.884 26.7372C102.856 26.46 102.7 26.2564 102.416 26.1263C102.132 25.9962 101.792 25.9091 101.396 25.865C101.008 25.8107 100.618 25.7426 100.227 25.6607C99.8352 25.5695 99.4899 25.3849 99.1912 25.1069C98.8926 24.829 98.7186 24.4451 98.6692 23.9554C98.6134 23.401 98.7891 22.9213 99.1964 22.5162C99.6128 22.1103 100.195 21.8696 100.944 21.7942C101.6 21.7281 102.198 21.8312 102.739 22.1035C103.279 22.3664 103.648 22.7446 103.847 23.2379L102.653 23.8903C102.536 23.566 102.325 23.3212 102.019 23.156C101.722 22.9899 101.408 22.9236 101.075 22.9571C100.742 22.9906 100.485 23.0818 100.304 23.2307C100.122 23.3704 100.043 23.5557 100.066 23.7867C100.091 24.027 100.244 24.2029 100.526 24.3145C100.807 24.4169 101.141 24.4906 101.528 24.5356C101.924 24.5797 102.323 24.6469 102.724 24.7371C103.125 24.8274 103.477 25.0254 103.778 25.3311C104.08 25.6367 104.257 26.0529 104.31 26.5796C104.371 27.1895 104.178 27.7223 103.729 28.1782C103.28 28.6341 102.668 28.9011 101.891 28.9793ZM111.286 20.7527C112.191 20.6615 112.941 20.8334 113.536 21.2682C114.129 21.6938 114.469 22.3363 114.556 23.1956L114.994 27.5478L113.511 27.6971L113.404 26.6299C113.236 27.0015 112.964 27.3182 112.589 27.58C112.213 27.8325 111.794 27.982 111.332 28.0286C110.639 28.0983 110.056 27.9611 109.583 27.6167C109.109 27.2723 108.842 26.7999 108.782 26.1992C108.648 24.8686 109.642 23.9845 111.763 23.5469L113.066 23.2756L113.056 23.1786C113.013 22.7536 112.841 22.4303 112.538 22.2087C112.245 21.9862 111.868 21.8982 111.406 21.9447C110.981 21.9875 110.642 22.143 110.389 22.4112C110.135 22.6701 110.006 23.0098 110.001 23.4303L108.618 23.3176C108.66 22.6226 108.928 22.0403 109.422 21.5705C109.916 21.1007 110.537 20.8281 111.286 20.7527ZM111.52 26.8336C112.102 26.7749 112.541 26.5487 112.838 26.1548C113.134 25.761 113.258 25.2725 113.208 24.6894L113.179 24.3983L111.864 24.6848C110.731 24.9296 110.197 25.3707 110.261 26.0083C110.289 26.2855 110.418 26.5012 110.648 26.6554C110.878 26.8095 111.169 26.8689 111.52 26.8336ZM116.84 27.3619L116.136 20.3763L117.647 20.2241L117.764 21.3884C118.214 20.4843 118.939 19.982 119.937 19.8815C120.685 19.8062 121.313 19.9762 121.822 20.3917C122.339 20.797 122.635 21.3739 122.71 22.1224L123.174 26.7241L121.663 26.8762L121.234 22.621C121.19 22.1775 121.025 21.8348 120.739 21.5929C120.452 21.3417 120.092 21.238 119.657 21.2817C119.066 21.3413 118.628 21.6235 118.343 22.1282C118.057 22.633 117.957 23.3058 118.042 24.1466L118.35 27.2098L116.84 27.3619ZM127.994 26.3506C126.95 26.4558 126.099 26.2101 125.442 25.6136C124.783 25.0079 124.4 24.1644 124.291 23.0833C124.183 22.0114 124.386 21.1135 124.901 20.3896C125.426 19.6648 126.206 19.2502 127.24 19.146C127.684 19.1013 128.104 19.1523 128.502 19.299C128.908 19.4355 129.232 19.6409 129.474 19.9151L129.101 16.2144L130.612 16.0623L131.6 25.8755L130.09 26.0276L130 25.1405C129.864 25.453 129.611 25.7211 129.241 25.945C128.872 26.1689 128.456 26.3041 127.994 26.3506ZM126.523 24.5386C126.935 24.9172 127.446 25.0758 128.055 25.0144C128.665 24.9529 129.134 24.6957 129.462 24.2427C129.789 23.7804 129.918 23.2074 129.849 22.5236C129.779 21.8306 129.538 21.2948 129.127 20.9162C128.715 20.5376 128.205 20.379 127.595 20.4404C126.985 20.5018 126.516 20.7591 126.188 21.2121C125.861 21.6651 125.732 22.2382 125.801 22.9312C125.87 23.615 126.111 24.1508 126.523 24.5386ZM139.994 25.1422C138.949 25.2474 138.071 24.9999 137.357 24.3997C136.643 23.7995 136.232 22.9635 136.124 21.8916C136.016 20.8198 136.252 19.9186 136.832 19.1882C137.412 18.4577 138.224 18.0399 139.268 17.9348C140.127 17.8482 140.865 17.9887 141.48 18.356C142.096 18.7234 142.5 19.2614 142.693 19.97L141.253 20.409C141.139 20.0192 140.918 19.7194 140.589 19.5099C140.268 19.2902 139.886 19.2027 139.442 19.2473C138.841 19.3078 138.382 19.5641 138.063 20.0162C137.745 20.4683 137.62 21.0409 137.69 21.7339C137.76 22.4269 137.996 22.9632 138.398 23.3427C138.801 23.7223 139.302 23.8818 139.903 23.8213C140.346 23.7766 140.704 23.6239 140.977 23.3631C141.249 23.1023 141.406 22.7645 141.449 22.3495L142.961 22.4912C142.887 23.2361 142.584 23.8453 142.053 24.3188C141.53 24.7821 140.844 25.0566 139.994 25.1422ZM147.862 24.3499C146.808 24.4559 145.91 24.2057 145.168 23.5991C144.425 22.9832 144 22.1532 143.895 21.1091C143.79 20.0649 144.041 19.1716 144.647 18.4291C145.253 17.6774 146.083 17.2485 147.136 17.1424C148.18 17.0373 149.074 17.2926 149.817 17.9085C150.569 18.5142 150.997 19.3391 151.103 20.3832C151.208 21.4274 150.953 22.3258 150.338 23.0784C149.731 23.8209 148.906 24.2447 147.862 24.3499ZM146.154 22.5477C146.585 22.9337 147.11 23.0955 147.729 23.0331C148.348 22.9708 148.826 22.708 149.162 22.2448C149.507 21.7807 149.646 21.2113 149.578 20.5368C149.51 19.8622 149.261 19.332 148.83 18.946C148.408 18.5591 147.888 18.3968 147.269 18.4592C146.649 18.5215 146.167 18.7848 145.822 19.2489C145.486 19.7121 145.352 20.281 145.42 20.9555C145.488 21.6301 145.732 22.1608 146.154 22.5477ZM158.551 16.1049L159.254 23.0906L157.743 23.2427L157.626 22.0784C157.425 22.4907 157.137 22.8324 156.763 23.1034C156.389 23.3744 155.957 23.5346 155.468 23.5839C154.71 23.6602 154.073 23.4957 153.556 23.0904C153.047 22.6749 152.755 22.0929 152.68 21.3445L152.217 16.7428L153.727 16.5906L154.156 20.8458C154.201 21.2893 154.366 21.6367 154.653 21.8878C154.939 22.1298 155.303 22.2284 155.747 22.1837C156.329 22.1251 156.762 21.8434 157.048 21.3386C157.333 20.8339 157.433 20.1611 157.348 19.3202L157.04 16.257L158.551 16.1049ZM161.111 22.9036L160.407 15.9179L161.918 15.7658L162.035 16.9301C162.486 16.026 163.21 15.5237 164.208 15.4232C164.956 15.3478 165.585 15.5179 166.093 15.9334C166.61 16.3387 166.906 16.9156 166.981 17.6641L167.445 22.2657L165.934 22.4179L165.506 18.1627C165.461 17.7192 165.296 17.3765 165.01 17.1345C164.723 16.8834 164.363 16.7797 163.929 16.8234C163.337 16.883 162.899 17.1651 162.614 17.6699C162.329 18.1746 162.228 18.8474 162.313 19.6883L162.621 22.7515L161.111 22.9036ZM173.003 21.65C172.681 21.7944 172.317 21.8871 171.911 21.928C171.218 21.9978 170.639 21.8601 170.175 21.5148C169.72 21.1686 169.454 20.612 169.377 19.845L169.025 16.3522L167.805 16.475L167.675 15.186L168.895 15.0632L168.686 12.9841L170.196 12.832L170.406 14.911L172.208 14.7296L172.338 16.0186L170.536 16.2001L170.879 19.6097C170.913 19.9516 171.023 20.2066 171.208 20.3746C171.401 20.5325 171.646 20.5966 171.942 20.5668C172.274 20.5333 172.55 20.4495 172.77 20.3153L173.003 21.65ZM174.279 13.3449C174.002 13.3728 173.762 13.3036 173.559 13.1374C173.354 12.962 173.239 12.7403 173.212 12.4723C173.184 12.1951 173.253 11.9548 173.419 11.7514C173.584 11.5387 173.805 11.4184 174.083 11.3905C174.369 11.3617 174.614 11.435 174.819 11.6104C175.032 11.7757 175.152 11.9969 175.18 12.2741C175.207 12.5421 175.133 12.7829 174.958 12.9965C174.792 13.1999 174.566 13.316 174.279 13.3449ZM174.352 21.5702L173.648 14.5845L175.159 14.4324L175.863 21.418L174.352 21.5702ZM177.724 21.2306L177.02 14.2449L178.531 14.0928L178.648 15.2571C179.099 14.353 179.823 13.8507 180.821 13.7502C181.569 13.6748 182.198 13.8449 182.706 14.2604C183.223 14.6657 183.519 15.2426 183.595 15.991L184.058 20.5927L182.547 20.7449L182.119 16.4897C182.074 16.0462 181.909 15.7034 181.623 15.4615C181.336 15.2104 180.976 15.1067 180.542 15.1504C179.95 15.2099 179.512 15.4921 179.227 15.9969C178.942 16.5016 178.841 17.1744 178.926 18.0153L179.235 21.0785L177.724 21.2306ZM190.159 12.9217L191.656 12.771L192.321 19.3686C192.411 20.2649 192.17 21.0219 191.597 21.6396C191.035 22.2656 190.25 22.6293 189.243 22.7307C188.421 22.8135 187.698 22.6856 187.076 22.3469C186.454 22.0082 186.055 21.5256 185.88 20.8992L187.27 20.5212C187.342 20.8594 187.55 21.1184 187.895 21.2984C188.249 21.4774 188.657 21.5437 189.119 21.4972C189.683 21.4404 190.125 21.2419 190.445 20.9016C190.765 20.5613 190.901 20.1509 190.853 19.6704L190.768 18.8249C190.619 19.1106 190.364 19.3556 190.002 19.5601C189.639 19.7553 189.231 19.8757 188.778 19.9213C187.762 20.0237 186.931 19.79 186.285 19.2203C185.639 18.6414 185.264 17.8344 185.16 16.7995C185.055 15.7646 185.258 14.9041 185.768 14.2181C186.286 13.5219 187.048 13.1231 188.055 13.0216C188.49 12.9779 188.905 13.0201 189.3 13.1483C189.696 13.2765 190.009 13.4689 190.24 13.7257L190.159 12.9217ZM187.367 18.1453C187.767 18.4971 188.262 18.6432 188.853 18.5837C189.445 18.5241 189.897 18.2826 190.209 17.8592C190.53 17.4348 190.658 16.8992 190.593 16.2523C190.528 15.6055 190.295 15.1062 189.896 14.7544C189.506 14.4017 189.015 14.2551 188.424 14.3146C187.832 14.3742 187.376 14.6162 187.055 15.0406C186.733 15.4649 186.605 16.0005 186.67 16.6474C186.735 17.2942 186.968 17.7935 187.367 18.1453Z" fill="white"/>
<rect x="0.504942" y="21.3712" width="208.737" height="27.234" rx="13.5823" transform="rotate(-5.75059 0.504942 21.3712)" stroke="#43434C" stroke-width="0.696528"/>
</svg>
