<svg width="30" height="30" viewBox="0 0 30 30" fill="none" xmlns="http://www.w3.org/2000/svg">
<circle cx="15" cy="15" r="14" fill="#EFEEF1" stroke="#E2E1E5"/>
<g clip-path="url(#clip0_2935_2701)">
<path d="M14.5547 10.5787L16.1016 9.03179C16.7565 8.43486 17.6162 8.11323 18.5022 8.13374C19.3881 8.15425 20.232 8.51532 20.8586 9.14192C21.4852 9.76853 21.8463 10.6125 21.8668 11.4984C21.8873 12.3843 21.5657 13.244 20.9687 13.899L18.7578 16.1021C18.4392 16.4219 18.0605 16.6757 17.6436 16.8489C17.2266 17.022 16.7796 17.1112 16.3281 17.1112C15.8767 17.1112 15.4296 17.022 15.0127 16.8489C14.5957 16.6757 14.2171 16.4219 13.8984 16.1021" stroke="#0E0E10" stroke-width="1.42857" stroke-linecap="round" stroke-linejoin="round"/>
<path d="M15.4449 19.4222L13.898 20.969C13.2431 21.566 12.3833 21.8876 11.4974 21.8671C10.6115 21.8466 9.76755 21.4855 9.14095 20.8589C8.51434 20.2323 8.15327 19.3884 8.13276 18.5024C8.11225 17.6165 8.43388 16.7568 9.03081 16.1018L11.2418 13.8987C11.5604 13.5789 11.939 13.3251 12.356 13.1519C12.7729 12.9788 13.22 12.8896 13.6714 12.8896C14.1229 12.8896 14.5699 12.9788 14.9869 13.1519C15.4038 13.3251 15.7825 13.5789 16.1011 13.8987" stroke="#0E0E10" stroke-width="1.42857" stroke-linecap="round" stroke-linejoin="round"/>
</g>
<defs>
<clipPath id="clip0_2935_2701">
<rect width="20" height="20" fill="white" transform="translate(5 5)"/>
</clipPath>
</defs>
</svg>
