<svg width="70" height="36" viewBox="0 0 70 36" fill="none" xmlns="http://www.w3.org/2000/svg">
<path d="M4.08397 35.1466C4.3055 35.6525 4.8952 35.883 5.40111 35.6615L13.6454 32.0515C14.1513 31.8299 14.3818 31.2402 14.1603 30.7343C13.9388 30.2284 13.3491 29.9979 12.8431 30.2194L5.51492 33.4283L2.30602 26.1001C2.08449 25.5942 1.49478 25.3636 0.988875 25.5852C0.482967 25.8067 0.252431 26.3964 0.473959 26.9023L4.08397 35.1466ZM69 1C68.9457 0.00147754 68.9454 0.00149268 68.945 0.00151312C68.9448 0.00152701 68.9443 0.00155282 68.9438 0.00158072C68.9428 0.00163656 68.9414 0.00171399 68.9396 0.00181347C68.936 0.00201237 68.9309 0.00229949 68.9243 0.00267839C68.9111 0.00343621 68.8918 0.00456125 68.8666 0.00608248C68.8162 0.00912488 68.7421 0.0137522 68.6452 0.0201964C68.4515 0.0330845 68.1669 0.0532417 67.7997 0.0825239C67.0653 0.141084 66 0.236164 64.6695 0.382628C62.0092 0.675482 58.285 1.17417 54.0234 1.99815C45.5197 3.64232 34.7931 6.59695 26.1158 11.8522L27.1518 13.563C35.5314 8.48802 45.9879 5.58885 54.4031 3.96178C58.6009 3.15014 62.2701 2.65884 64.8883 2.37062C66.1971 2.22655 67.2424 2.13331 67.9587 2.0762C68.3168 2.04764 68.5926 2.02812 68.778 2.01578C68.8707 2.00962 68.9407 2.00525 68.9871 2.00245C69.0103 2.00105 69.0276 2.00004 69.0388 1.9994C69.0445 1.99907 69.0486 1.99884 69.0512 1.9987C69.0525 1.99863 69.0534 1.99858 69.0539 1.99855C69.0542 1.99853 69.0543 1.99853 69.0544 1.99852C69.0544 1.99852 69.0543 1.99852 69 1ZM26.1158 11.8522C17.4755 17.0851 11.9768 22.6791 8.63081 26.987C6.95847 29.14 5.82516 30.9702 5.10637 32.2711C4.74698 32.9216 4.49119 33.4398 4.32344 33.8001C4.23957 33.9802 4.17769 34.1209 4.13588 34.2188C4.11497 34.2678 4.09907 34.3061 4.08795 34.3333C4.08239 34.3469 4.07802 34.3578 4.07481 34.3658C4.07321 34.3698 4.07189 34.3731 4.07086 34.3757C4.07035 34.377 4.06991 34.3781 4.06954 34.3791C4.06935 34.3795 4.06913 34.3801 4.06904 34.3803C4.06883 34.3809 4.06864 34.3814 5 34.7455C5.93136 35.1096 5.93121 35.11 5.93107 35.1103C5.93105 35.1104 5.93093 35.1107 5.93088 35.1108C5.93079 35.111 5.93077 35.1111 5.93082 35.1109C5.93092 35.1107 5.93129 35.1097 5.93196 35.1081C5.93328 35.1048 5.93573 35.0987 5.93935 35.0898C5.94659 35.0721 5.95847 35.0434 5.97525 35.0041C6.00881 34.9255 6.06193 34.8045 6.13651 34.6443C6.28569 34.324 6.52074 33.8469 6.85695 33.2383C7.52936 32.0213 8.60632 30.2789 10.2103 28.2138C13.417 24.0852 18.7353 18.6603 27.1518 13.563L26.1158 11.8522Z" fill="#E36654"/>
</svg>
