<svg width="77" height="20" viewBox="0 0 77 20" fill="none" xmlns="http://www.w3.org/2000/svg">
<path d="M10.0344 13.9602C10.3777 14.9846 11.0461 15.6428 11.8857 16.1367C12.1252 16.277 12.4355 16.2918 12.6899 16.4139C13.1827 16.6523 13.7017 16.5998 14.207 16.5576C14.5971 16.5245 14.9815 16.391 15.3602 16.2747C15.7971 16.1401 16.1621 15.8447 16.5751 15.6701C16.8956 15.5355 17.288 15.5161 17.6154 15.7614C17.6644 15.799 17.7215 15.8264 17.7705 15.864C18.488 16.4264 18.2177 17.5682 17.5207 17.8876C17.1408 18.0622 16.7964 18.3154 16.4188 18.4956C16.1656 18.6165 15.8815 18.6747 15.61 18.758C15.5154 18.7876 15.4184 18.8116 15.3214 18.8333C15.1389 18.8743 14.9553 18.9405 14.7716 18.945C14.1557 18.9587 13.5397 18.9542 12.9237 18.945C12.7903 18.9428 12.6579 18.8891 12.5256 18.8561C12.4287 18.831 12.334 18.7819 12.237 18.7762C11.8309 18.7523 11.4762 18.5823 11.1123 18.4226C10.6686 18.2287 10.2534 17.988 9.86211 17.7097C9.32713 17.3287 8.85146 16.8747 8.52294 16.3032C8.20355 15.7466 7.93549 15.1591 7.65374 14.5819C7.61724 14.5078 7.63321 14.4085 7.6161 14.323C7.58188 14.1519 7.54081 13.9831 7.50317 13.8131C7.47807 13.7036 7.43473 13.5941 7.43245 13.4846C7.42332 12.969 7.34347 12.4363 7.44727 11.9435C7.56933 11.3595 7.60241 10.7389 7.95146 10.2074C8.13853 9.92106 8.22294 9.56973 8.40659 9.27999C8.87542 8.53854 9.49367 7.94083 10.242 7.47771C10.6925 7.19938 11.1488 6.91535 11.6553 6.77504C12.0192 6.67352 12.3796 6.51839 12.78 6.53322C13.3195 6.55375 13.8602 6.53322 14.4009 6.53322C14.9074 6.53322 15.3659 6.71801 15.8427 6.86059C16.4758 7.04881 16.9937 7.42637 17.5469 7.74348C18.0123 8.01041 18.3488 8.43588 18.6682 8.86022C19.0618 9.3838 19.3606 9.96783 19.5979 10.5747C19.7313 10.9157 19.7998 11.2956 19.8192 11.6617C19.842 12.1078 19.9184 12.5549 19.8488 13.0078C19.8135 13.2359 19.7268 13.4093 19.5637 13.5507C19.2956 13.7834 19.0036 13.9249 18.626 13.9237C15.9351 13.9123 13.2454 13.9169 10.5545 13.9192C10.3971 13.9192 10.2397 13.9454 10.0389 13.9625L10.0344 13.9602ZM10.1245 11.4564C10.4142 11.5511 16.8591 11.5614 17.2492 11.4587C17.2446 11.3606 17.2652 11.2431 17.2287 11.1484C17.1614 10.9751 17.0667 10.8119 16.972 10.6511C16.6903 10.1732 16.2637 9.83209 15.8359 9.50015C15.6157 9.33018 15.3488 9.20927 15.0853 9.11003C14.5275 8.90014 13.9424 8.89444 13.3526 8.90014C12.7572 8.90585 12.2313 9.11459 11.7294 9.39292C11.2344 9.66555 10.8568 10.0773 10.5214 10.529C10.3138 10.8074 10.1062 11.0834 10.1233 11.4576L10.1245 11.4564Z" fill="#E23F27"/>
<path d="M0.617516 14.7382C0.641471 13.7082 0.665425 12.677 0.69052 11.647C0.695083 11.4462 0.731585 11.2626 0.830824 11.0732C0.949456 10.8473 0.971129 10.5724 1.07151 10.3352C1.26315 9.88232 1.51524 9.46369 1.79927 9.05761C2.22703 8.44506 2.76429 7.94999 3.37456 7.54391C3.78179 7.27243 4.20954 7.01691 4.70118 6.89372C5.0354 6.81045 5.35023 6.61653 5.68559 6.57889C6.20689 6.52071 6.74415 6.50589 7.26431 6.5652C7.55404 6.59828 7.83237 6.80703 7.95442 7.12756C8.01032 7.27699 8.09701 7.423 8.11298 7.57699C8.15975 8.03327 7.83693 8.53061 7.40575 8.73935C7.22552 8.82719 7.05898 8.93441 6.84339 8.91844C5.91944 8.85342 5.14263 9.22757 4.44224 9.7751C3.6814 10.3705 3.23083 11.1359 3.09851 12.1203C2.97076 13.0762 3.03121 14.0276 3.01296 14.9812C2.99585 15.8493 3.01296 16.7173 3.00726 17.5842C3.00612 17.9093 2.95136 18.2162 2.77798 18.5116C2.64338 18.742 2.43007 18.8424 2.22475 18.9234C1.71828 19.1242 1.05554 18.9029 0.794322 18.4398C0.684816 18.2458 0.649456 17.9881 0.646033 17.7576C0.631204 16.7515 0.639189 15.7455 0.639189 14.7394H0.615234L0.617516 14.7382Z" fill="#E23F27"/>
<path d="M31.5366 14.3519C31.9826 15.4151 32.6738 16.1086 33.6115 16.5957C34.3723 16.9903 35.1799 17.036 35.9807 16.9185C36.583 16.8295 37.1796 16.623 37.7134 16.29C37.9621 16.1348 38.2028 15.9649 38.529 15.9763C39.0914 15.9957 39.4575 16.2854 39.664 16.7759C39.8408 17.1957 39.7279 17.5915 39.4404 17.9269C39.1301 18.2896 38.7127 18.5154 38.3009 18.739C38.0431 18.8793 37.7704 19.0048 37.4887 19.0881C37.1214 19.1964 36.7415 19.3048 36.3628 19.3242C35.6739 19.3607 34.9803 19.339 34.2891 19.3265C34.1316 19.3242 33.9754 19.2615 33.8202 19.2204C33.7484 19.2021 33.6811 19.152 33.6103 19.1485C33.1347 19.1223 32.7343 18.8759 32.3225 18.6866C31.4545 18.2873 30.7678 17.6417 30.1826 16.9014C29.9191 16.5683 29.7389 16.1679 29.5233 15.7972C29.2598 15.3432 29.1685 14.8253 28.9974 14.3371C28.9928 14.3257 28.9883 14.3132 28.9883 14.3006C28.9883 13.4964 28.9883 12.6922 28.9906 11.888C29.3214 10.6367 29.894 9.53709 30.8225 8.60173C31.3894 8.03024 32.0453 7.63556 32.7526 7.32301C33.656 6.92377 34.6233 6.85533 35.6088 6.88499C36.1039 6.89982 36.5887 6.9751 37.0438 7.11769C38.0282 7.42568 38.9522 7.89336 39.6834 8.6348C40.0769 9.03404 40.41 9.49831 40.6974 9.99907C40.8982 10.347 41.0157 10.7211 41.1834 11.0759C41.2917 11.3063 41.3191 11.5858 41.3351 11.847C41.3682 12.3842 41.407 12.9261 41.3716 13.4622C41.3408 13.9253 40.799 14.2789 40.4066 14.2995C40.2435 14.3074 40.0792 14.3052 39.9161 14.3052C37.313 14.3052 34.71 14.3052 32.1069 14.3074C31.9381 14.3074 31.7681 14.3337 31.5343 14.3519H31.5366ZM38.7423 11.8287C38.7492 11.7626 38.7811 11.6816 38.7594 11.6188C38.5838 11.1261 38.3442 10.6709 37.9267 10.3344C37.5822 10.0572 37.2263 9.80743 36.8123 9.62492C36.4803 9.47892 36.1415 9.33861 35.7936 9.31808C35.2393 9.28614 34.6872 9.24963 34.1248 9.43329C33.7529 9.55534 33.405 9.72188 33.0925 9.9158C32.6716 10.177 32.2666 10.4975 32.0077 10.9504C31.8503 11.2253 31.637 11.4774 31.6666 11.8219C31.9769 11.9268 38.391 11.9325 38.7423 11.8287Z" fill="#474E5D"/>
<path d="M54.7457 15.5551C54.7457 16.3729 54.748 17.1897 54.7457 18.0075C54.7445 18.4114 54.602 18.798 54.3191 19.049C53.8867 19.43 53.2719 19.5133 52.7666 19.0456C52.5909 18.8825 52.405 18.7205 52.3708 18.4421C52.3434 18.214 52.1757 18.1593 51.9989 18.3018C51.5518 18.6612 51.0453 18.9235 50.5092 19.0958C50.0871 19.2315 49.632 19.2828 49.1882 19.3296C48.8403 19.3661 48.4844 19.3387 48.1331 19.3376C47.8069 19.3364 47.4886 19.3273 47.1738 19.1916C46.9274 19.0855 46.6468 19.0912 46.3833 18.992C45.789 18.7672 45.2403 18.4718 44.7133 18.1239C43.8852 17.5764 43.3582 16.7939 42.8905 15.9383C42.6669 15.53 42.6008 15.076 42.3886 14.6722C42.3829 14.6608 42.3795 14.6482 42.3783 14.6357C42.3236 14.0893 42.1662 13.5281 42.2437 13.0022C42.319 12.4946 42.2369 11.9414 42.5266 11.4691C42.6088 10.7676 42.9966 10.1904 43.3605 9.62805C43.8749 8.83299 44.5456 8.16227 45.3977 7.71968C45.8438 7.48698 46.3149 7.2885 46.7928 7.13565C47.1669 7.01588 47.5696 6.9634 47.9631 6.92804C48.3498 6.89382 48.7422 6.9155 49.1312 6.9212C49.6343 6.92804 50.1019 7.09002 50.5753 7.24173C50.9095 7.34896 51.2095 7.5098 51.5221 7.65694C52.1712 7.96265 52.7004 8.40295 53.1693 8.94136C53.589 9.42273 53.9039 9.9657 54.1776 10.5326C54.294 10.7733 54.2928 11.0744 54.4194 11.3071C54.6841 11.7931 54.521 12.352 54.7286 12.8425C54.7651 12.9292 54.7445 13.041 54.7457 13.1414C54.7457 13.9467 54.7457 14.7509 54.7457 15.5562V15.5551ZM52.2567 13.195C52.2111 12.7227 52.2464 12.2596 52.0423 11.7954C51.8358 11.3254 51.5461 10.917 51.2917 10.4824C51.2632 10.4334 51.2004 10.4026 51.1525 10.3638C50.6312 9.94402 50.0883 9.60068 49.4175 9.4136C48.6578 9.20144 47.954 9.3098 47.2525 9.53224C46.762 9.68737 46.3491 10.0113 45.9578 10.3524C45.3601 10.8737 44.9187 11.5273 44.7772 12.2824C44.6415 13.0056 44.605 13.7653 44.9095 14.5011C45.3133 15.4786 45.9932 16.1585 46.94 16.5885C47.1407 16.6798 47.3757 16.7026 47.5662 16.8075C47.8251 16.949 48.0943 16.9547 48.3692 16.9501C48.805 16.9433 49.2441 17.0003 49.6582 16.7733C49.9149 16.633 50.2126 16.568 50.4749 16.4368C50.9757 16.1893 51.3145 15.7581 51.6544 15.3326C51.9647 14.9459 52.1061 14.4851 52.2111 14.0186C52.2704 13.7528 52.2442 13.4676 52.2567 13.1938V13.195Z" fill="#474E5D"/>
<path d="M63.3946 15.371C63.3946 14.6295 63.4254 13.8858 63.3843 13.1455C63.3524 12.582 63.4664 12.0401 63.601 11.5189C63.7083 11.1048 63.8543 10.6816 64.0847 10.2881C64.2832 9.95041 64.4417 9.58196 64.687 9.2717C65.2014 8.62151 65.8014 8.07625 66.5372 7.66903C66.941 7.44545 67.3619 7.27207 67.7897 7.13062C68.3087 6.95952 68.8516 6.86256 69.4094 6.89336C69.7733 6.91275 70.1383 6.90363 70.5034 6.91389C70.9437 6.92644 71.3566 7.0599 71.7547 7.23671C72.138 7.40667 72.5155 7.58918 72.8965 7.76371C73.3904 7.98842 73.7874 8.33975 74.149 8.73329C74.6349 9.26257 75.0342 9.85459 75.3661 10.49C75.4847 10.7181 75.5007 10.9998 75.6228 11.2246C75.8589 11.6603 75.7517 12.1633 75.9319 12.6071C75.9718 12.7063 75.9524 12.8306 75.9524 12.9436C75.9524 14.6158 75.9524 16.2881 75.9536 17.9615C75.9536 18.3094 75.8463 18.6162 75.6627 18.9117C75.5178 19.1444 75.2851 19.2561 75.0661 19.3143C74.6623 19.4204 74.2403 19.3964 73.9003 19.0987C73.784 18.9961 73.6756 18.8512 73.6323 18.7052C73.5558 18.4463 73.4463 18.1987 73.4498 17.909C73.4646 16.4124 73.4577 14.9158 73.4555 13.4192C73.4555 13.1683 73.4167 12.9139 73.4441 12.6664C73.4885 12.2683 73.3231 11.9192 73.1771 11.5896C73.0049 11.2029 72.7391 10.8493 72.4665 10.5207C72.1574 10.15 71.7433 9.90136 71.3167 9.67094C70.6151 9.29223 69.8634 9.23177 69.1015 9.3196C68.5345 9.38462 68.0201 9.6333 67.5296 9.93444C66.9296 10.3029 66.4995 10.823 66.2144 11.4447C66.09 11.7162 65.9908 12.0128 65.9189 12.3208C65.6737 13.3805 65.8322 14.4447 65.7957 15.5056C65.7661 16.385 65.7729 17.2668 65.7957 18.1463C65.8094 18.6744 65.555 19.0155 65.1398 19.2676C64.6585 19.5607 63.8098 19.2675 63.5497 18.7668C63.422 18.5193 63.3912 18.2774 63.3923 18.0139C63.3969 17.1333 63.3934 16.2538 63.3934 15.3732L63.3946 15.371Z" fill="#474E5D"/>
<path d="M25.5188 9.95788C25.5188 7.29323 25.5188 4.62859 25.5188 1.9628C25.5188 1.51679 25.6534 1.12325 26.0367 0.87344C26.3264 0.684085 26.6401 0.516404 27.0085 0.689789C27.1523 0.757089 27.3108 0.797014 27.4477 0.875721C27.8595 1.10956 27.8812 1.54074 27.9576 1.93884C27.9793 2.04835 27.9622 2.1647 27.9622 2.27763C27.9622 7.4438 27.9599 12.61 27.969 17.7762C27.969 18.1104 27.9188 18.4321 27.8104 18.7321C27.6861 19.0754 27.3873 19.2796 27.0234 19.3423C26.8397 19.3731 26.6469 19.356 26.4587 19.3492C26.0641 19.3332 25.8028 19.0925 25.6739 18.7583C25.569 18.4857 25.5245 18.1731 25.5234 17.8777C25.512 15.2381 25.5165 12.5986 25.5165 9.95902L25.5188 9.95788Z" fill="#474E5D"/>
<path d="M56.1496 15.2854C56.1496 14.3044 56.1211 13.3211 56.1633 12.3424C56.1816 11.9317 56.3492 11.5268 56.453 11.1196C56.493 10.9622 56.5238 10.8002 56.5888 10.653C56.9333 9.86596 57.4272 9.18383 58.0386 8.58041C58.5907 8.03516 59.2477 7.65189 59.947 7.34162C60.2492 7.20702 60.6029 7.19219 60.9086 7.06557C61.4435 6.84428 61.9956 6.9207 62.542 6.91728C63.0599 6.91386 63.5264 7.39295 63.5504 7.9131C63.5698 8.32375 63.5504 8.72527 63.1717 8.98877C62.9515 9.14162 62.7382 9.31387 62.4382 9.30132C61.7515 9.27281 61.1333 9.47813 60.5264 9.80208C59.9789 10.0941 59.534 10.4831 59.1873 10.9759C58.9477 11.3158 58.8188 11.7196 58.6819 12.12C58.4424 12.8249 58.5451 13.5367 58.5348 14.2462C58.5154 15.5546 58.5234 16.8629 58.5325 18.1713C58.5359 18.6926 58.2781 19.1033 57.8481 19.2732C57.085 19.5755 56.1895 19.2675 56.1519 18.2671C56.1143 17.2747 56.1439 16.2801 56.1439 15.2854H56.1508H56.1496Z" fill="#474E5D"/>
<path d="M21.7173 15.7991C21.6614 15.4751 21.7367 15.19 21.958 14.9584C22.2146 14.6903 22.5728 14.6162 22.9105 14.582C23.4397 14.5295 24.0865 15.2048 24.0968 15.7615C24.1093 16.3957 23.4626 17.0938 22.8511 17.0424C22.5386 17.0162 22.2067 16.9101 21.9819 16.6546C21.7698 16.4139 21.6466 16.1276 21.7173 15.7991Z" fill="#474E5D"/>
<path d="M22.9135 9.68848C23.5717 9.69418 24.1192 10.1927 24.0918 10.8041C24.0633 11.4212 23.5146 12.0896 22.8747 12.0839C22.5188 12.0805 22.2507 11.8911 21.9884 11.6904C21.677 11.452 21.7044 11.1041 21.7066 10.7676C21.7101 10.0843 22.1618 9.68277 22.9146 9.68961L22.9135 9.68848Z" fill="#474E5D"/>
</svg>
