<svg width="18" height="20" viewBox="0 0 18 20" fill="none" xmlns="http://www.w3.org/2000/svg">
<path d="M8.63 0.900818C8.76583 0.57012 9.23417 0.57012 9.37 0.900819L11.2827 5.55742C11.3518 5.7257 11.5258 5.82614 11.7061 5.80186L16.6951 5.12998C17.0494 5.08226 17.2836 5.48786 17.0651 5.77084L13.9887 9.75556C13.8775 9.89956 13.8775 10.1004 13.9887 10.2444L17.0651 14.2292C17.2836 14.5121 17.0494 14.9177 16.6951 14.87L11.7061 14.1981C11.5258 14.1739 11.3518 14.2743 11.2827 14.4426L9.37 19.0992C9.23417 19.4299 8.76583 19.4299 8.63 19.0992L6.71733 14.4426C6.64821 14.2743 6.47424 14.1739 6.29394 14.1981L1.30488 14.87C0.95057 14.9177 0.716398 14.5121 0.934875 14.2292L4.01128 10.2444C4.12245 10.1004 4.12245 9.89956 4.01128 9.75556L0.934875 5.77084C0.716398 5.48786 0.95057 5.08226 1.30488 5.12998L6.29394 5.80186C6.47424 5.82614 6.64821 5.7257 6.71733 5.55742L8.63 0.900818Z" fill="#E23F27"/>
</svg>
