<svg width="48" height="48" viewBox="0 0 48 48" fill="none" xmlns="http://www.w3.org/2000/svg">
<g opacity="0.8" clip-path="url(#clip0_2681_2636)">
<path d="M16.5 43.5H31.5" stroke="#E24028" stroke-width="3.8" stroke-linecap="round" stroke-linejoin="round"/>
<path d="M14.7564 31.3123C12.9706 29.9238 11.5243 28.147 10.527 26.1167C9.5297 24.0863 9.00757 21.8556 9.00016 19.5936C8.96266 11.4561 15.5064 4.68732 23.6439 4.49982C26.7933 4.42516 29.8862 5.34395 32.4841 7.12588C35.0819 8.90781 37.0528 11.4624 38.1172 14.4274C39.1816 17.3924 39.2855 20.6173 38.4142 23.6446C37.5428 26.672 35.7404 29.3481 33.2627 31.2936C32.7153 31.7167 32.272 32.2593 31.9665 32.88C31.661 33.5007 31.5015 34.183 31.5002 34.8748V35.9998C31.5002 36.3976 31.3421 36.7792 31.0608 37.0605C30.7795 37.3418 30.398 37.4998 30.0002 37.4998H18.0002C17.6023 37.4998 17.2208 37.3418 16.9395 37.0605C16.6582 36.7792 16.5002 36.3976 16.5002 35.9998V34.8748C16.4955 34.1882 16.3363 33.5115 16.0344 32.8948C15.7326 32.2781 15.2958 31.7372 14.7564 31.3123Z" stroke="#E24028" stroke-width="3.8" stroke-linecap="round" stroke-linejoin="round"/>
<path d="M25.5186 10.6501C27.3519 10.9609 29.0435 11.8331 30.3601 13.1463C31.6766 14.4594 32.5531 16.1489 32.8686 17.9814" stroke="#E24028" stroke-width="3.8" stroke-linecap="round" stroke-linejoin="round"/>
</g>
<defs>
<clipPath id="clip0_2681_2636">
<rect width="48" height="48" fill="white"/>
</clipPath>
</defs>
</svg>
