<svg width="16" height="16" viewBox="0 0 60 60" fill="none" xmlns="http://www.w3.org/2000/svg">
    <rect width="60" height="60" rx="2" fill="#E23F27"/>
    <path d="M25.8474 32.094C26.4615 33.9261 27.6571 35.1033 29.1587 35.9867C29.5871 36.2376 30.142 36.2641 30.597 36.4824C31.4784 36.9088 32.4066 36.815 33.3104 36.7395C34.0082 36.6803 34.6957 36.4416 35.3731 36.2335C36.1545 35.9928 36.8073 35.4644 37.5459 35.1522C38.1192 34.9115 38.821 34.8768 39.4065 35.3155C39.4942 35.3828 39.5963 35.4317 39.684 35.4991C40.9673 36.5049 40.4837 38.5471 39.2372 39.1184C38.5578 39.4305 37.9417 39.8834 37.2664 40.2058C36.8134 40.422 36.3054 40.5261 35.8199 40.675C35.6505 40.7281 35.4771 40.7709 35.3037 40.8097C34.9773 40.8831 34.6488 41.0015 34.3203 41.0096C33.2186 41.0341 32.1169 41.0259 31.0152 41.0096C30.7765 41.0055 30.5399 40.9096 30.3032 40.8505C30.1298 40.8056 29.9605 40.7179 29.787 40.7077C29.0607 40.6648 28.4262 40.3608 27.7754 40.0752C26.9818 39.7284 26.2392 39.2979 25.5394 38.8001C24.5825 38.1187 23.7318 37.3067 23.1442 36.2845C22.573 35.2889 22.0935 34.2382 21.5896 33.2059C21.5243 33.0733 21.5529 32.8958 21.5223 32.7428C21.4611 32.4368 21.3876 32.1348 21.3203 31.8308C21.2754 31.635 21.1979 31.4391 21.1938 31.2433C21.1775 30.3211 21.0347 29.3683 21.2203 28.487C21.4386 27.4424 21.4978 26.3325 22.1221 25.3818C22.4567 24.8697 22.6076 24.2413 22.9361 23.7231C23.7746 22.397 24.8804 21.328 26.2188 20.4996C27.0246 20.0018 27.8407 19.4938 28.7466 19.2429C29.3974 19.0613 30.0421 18.7838 30.7582 18.8104C31.7232 18.8471 32.6902 18.8104 33.6573 18.8104C34.5631 18.8104 35.3833 19.1409 36.2361 19.3959C37.3684 19.7325 38.2946 20.4078 39.2841 20.975C40.1165 21.4524 40.7184 22.2134 41.2896 22.9723C41.9935 23.9088 42.528 24.9534 42.9524 26.0387C43.1911 26.6488 43.3135 27.3281 43.3482 27.983C43.389 28.7807 43.5257 29.5805 43.4012 30.3905C43.338 30.7985 43.1829 31.1086 42.8912 31.3616C42.4117 31.7778 41.8894 32.0308 41.2141 32.0287C36.4013 32.0083 31.5906 32.0165 26.7778 32.0206C26.4962 32.0206 26.2147 32.0675 25.8556 32.0981L25.8474 32.094ZM26.0086 27.6158C26.5268 27.7851 38.0539 27.8035 38.7516 27.6199C38.7435 27.4444 38.7802 27.2343 38.7149 27.065C38.5945 26.7548 38.4252 26.4631 38.2559 26.1754C37.7519 25.3206 36.9889 24.7106 36.2238 24.1169C35.8301 23.8129 35.3527 23.5966 34.8814 23.4191C33.8837 23.0437 32.8371 23.0335 31.7823 23.0437C30.7174 23.0539 29.7768 23.4273 28.8792 23.9251C27.9937 24.4127 27.3184 25.1492 26.7186 25.9571C26.3473 26.4549 25.976 26.9487 26.0066 27.6178L26.0086 27.6158Z" fill="white"/>
    <path d="M9.00408 33.4854C9.04693 31.6432 9.08977 29.7988 9.13465 27.9565C9.14281 27.5975 9.2081 27.269 9.38559 26.9303C9.59777 26.5264 9.63654 26.0347 9.81607 25.6103C10.1588 24.8004 10.6097 24.0516 11.1177 23.3253C11.8828 22.2297 12.8437 21.3443 13.9352 20.618C14.6636 20.1324 15.4286 19.6754 16.3079 19.4551C16.9057 19.3062 17.4688 18.9593 18.0686 18.892C19.001 18.7879 19.9619 18.7614 20.8922 18.8675C21.4104 18.9267 21.9082 19.3 22.1265 19.8733C22.2265 20.1406 22.3816 20.4017 22.4101 20.6772C22.4938 21.4932 21.9164 22.3828 21.1452 22.7561C20.8229 22.9132 20.525 23.105 20.1394 23.0764C18.4869 22.9601 17.0975 23.6293 15.8448 24.6086C14.484 25.6736 13.6781 27.0425 13.4415 28.8032C13.213 30.5129 13.3211 32.2144 13.2885 33.92C13.2579 35.4726 13.2885 37.0252 13.2783 38.5757C13.2762 39.1572 13.1783 39.706 12.8682 40.2344C12.6274 40.6465 12.2459 40.826 11.8787 40.9709C10.9729 41.3299 9.78751 40.9342 9.32031 40.1058C9.12445 39.759 9.06121 39.2979 9.05509 38.8858C9.02856 37.0864 9.04284 35.2869 9.04284 33.4875H9L9.00408 33.4854Z" fill="white"/>
    <path d="M46.7438 35.3827C46.6439 34.8033 46.7785 34.2932 47.1743 33.8791C47.6334 33.3996 48.274 33.267 48.8779 33.2058C49.8245 33.112 50.9813 34.3198 50.9997 35.3154C51.0221 36.4497 49.8653 37.6983 48.7718 37.6065C48.2128 37.5596 47.6191 37.3698 47.2172 36.9128C46.8377 36.4824 46.6173 35.9703 46.7438 35.3827Z" fill="white"/>
    <path d="M48.8839 24.4536C50.0611 24.4638 51.0404 25.3554 50.9915 26.4489C50.9405 27.5527 49.9591 28.7482 48.8146 28.738C48.178 28.7319 47.6986 28.3932 47.2294 28.0341C46.6724 27.6077 46.7214 26.9855 46.7254 26.3836C46.7316 25.1616 47.5395 24.4434 48.886 24.4556L48.8839 24.4536Z" fill="white"/>
</svg>
